<svg width="32" height="21" viewBox="0 0 32 21" fill="none" xmlns="http://www.w3.org/2000/svg">
<path fill-rule="evenodd" clip-rule="evenodd" d="M0 1.5C0 0.671573 0.671573 0 1.5 0H30.5C31.3284 0 32 0.671573 32 1.5V19.5C32 20.3284 31.3284 21 30.5 21H1.5C0.671573 21 0 20.3284 0 19.5V1.5Z" fill="url(#paint0_radial_1009_37409)"/>
<path fill-rule="evenodd" clip-rule="evenodd" d="M0 1.5C0 0.671573 0.671573 0 1.5 0H30.5C31.3284 0 32 0.671573 32 1.5V19.5C32 20.3284 31.3284 21 30.5 21H1.5C0.671573 21 0 20.3284 0 19.5V1.5Z" fill="#E5E5E5" fill-opacity="0.01"/>
<mask id="path-3-outside-1_1009_37409" maskUnits="userSpaceOnUse" x="3.56641" y="7" width="25" height="7" fill="black">
<rect fill="white" x="3.56641" y="7" width="25" height="7"/>
<path fill-rule="evenodd" clip-rule="evenodd" d="M7.39453 11.0672L8.06137 9.23242H8.07571L8.72104 11.0672H7.39453ZM7.5024 8L5.56641 13H6.69932L7.10086 11.8866H9.01534L9.40253 13H10.5713L8.65682 8H7.5024ZM11.0156 8V13H12.0697V9.4916H12.084L13.3388 13H14.2064L15.4612 9.45658H15.4756V13H16.5296V8H14.945L13.8121 11.4384H13.7977L12.6003 8H11.0156ZM17.5195 8V13H21.4059V12.0756H18.6453V10.8501H21.1262V9.9958H18.6453V8.92437H21.3485V8H17.5195ZM23.4221 10.381L21.6367 13H22.8987L24.0388 11.2703L25.1574 13H26.4982L24.7128 10.388L26.3548 8H25.1215L24.0818 9.59664L23.078 8H21.773L23.4221 10.381Z"/>
</mask>
<path fill-rule="evenodd" clip-rule="evenodd" d="M7.39453 11.0672L8.06137 9.23242H8.07571L8.72104 11.0672H7.39453ZM7.5024 8L5.56641 13H6.69932L7.10086 11.8866H9.01534L9.40253 13H10.5713L8.65682 8H7.5024ZM11.0156 8V13H12.0697V9.4916H12.084L13.3388 13H14.2064L15.4612 9.45658H15.4756V13H16.5296V8H14.945L13.8121 11.4384H13.7977L12.6003 8H11.0156ZM17.5195 8V13H21.4059V12.0756H18.6453V10.8501H21.1262V9.9958H18.6453V8.92437H21.3485V8H17.5195ZM23.4221 10.381L21.6367 13H22.8987L24.0388 11.2703L25.1574 13H26.4982L24.7128 10.388L26.3548 8H25.1215L24.0818 9.59664L23.078 8H21.773L23.4221 10.381Z" fill="#1793C0" fill-opacity="0.01"/>
<path d="M7.39453 11.0672L6.45468 10.7256L5.96708 12.0672H7.39453V11.0672ZM8.06137 9.23242V8.23242H7.36082L7.12152 8.89083L8.06137 9.23242ZM8.07571 9.23242L9.01906 8.90062L8.78404 8.23242H8.07571V9.23242ZM8.72104 11.0672V12.0672H10.1328L9.66439 10.7354L8.72104 11.0672ZM7.5024 8V7H6.81725L6.56986 7.63892L7.5024 8ZM5.56641 13L4.63387 12.6389L4.10686 14H5.56641V13ZM6.69932 13V14H7.40173L7.64002 13.3392L6.69932 13ZM7.10086 11.8866V10.8866H6.39845L6.16016 11.5473L7.10086 11.8866ZM9.01534 11.8866L9.95986 11.5581L9.72633 10.8866H9.01534V11.8866ZM9.40253 13L8.45801 13.3285L8.69154 14H9.40253V13ZM10.5713 13V14H12.025L11.5052 12.6424L10.5713 13ZM8.65682 8L9.5907 7.64242L9.34472 7H8.65682V8ZM11.0156 8V7H10.0156V8H11.0156ZM11.0156 13H10.0156V14H11.0156V13ZM12.0697 13V14H13.0697V13H12.0697ZM12.0697 9.4916V8.4916H11.0697V9.4916H12.0697ZM12.084 9.4916L13.0256 9.15483L12.7884 8.4916H12.084V9.4916ZM13.3388 13L12.3972 13.3368L12.6344 14H13.3388V13ZM14.2064 13V14H14.9131L15.1491 13.3338L14.2064 13ZM15.4612 9.45658V8.45658H14.7545L14.5186 9.12277L15.4612 9.45658ZM15.4756 9.45658H16.4756V8.45658H15.4756V9.45658ZM15.4756 13H14.4756V14H15.4756V13ZM16.5296 13V14H17.5296V13H16.5296ZM16.5296 8H17.5296V7H16.5296V8ZM14.945 8V7H14.2216L13.9952 7.68706L14.945 8ZM13.8121 11.4384V12.4384H14.5354L14.7618 11.7513L13.8121 11.4384ZM13.7977 11.4384L12.8533 11.7673L13.0871 12.4384H13.7977V11.4384ZM12.6003 8L13.5446 7.67111L13.3109 7H12.6003V8ZM17.5195 8V7H16.5195V8H17.5195ZM17.5195 13H16.5195V14H17.5195V13ZM21.4059 13V14H22.4059V13H21.4059ZM21.4059 12.0756H22.4059V11.0756H21.4059V12.0756ZM18.6453 12.0756H17.6453V13.0756H18.6453V12.0756ZM18.6453 10.8501V9.85014H17.6453V10.8501H18.6453ZM21.1262 10.8501V11.8501H22.1262V10.8501H21.1262ZM21.1262 9.9958H22.1262V8.9958H21.1262V9.9958ZM18.6453 9.9958H17.6453V10.9958H18.6453V9.9958ZM18.6453 8.92437V7.92437H17.6453V8.92437H18.6453ZM21.3485 8.92437V9.92437H22.3485V8.92437H21.3485ZM21.3485 8H22.3485V7H21.3485V8ZM23.4221 10.381L24.2484 10.9442L24.6355 10.3764L24.2442 9.81155L23.4221 10.381ZM21.6367 13L20.8104 12.4367L19.7448 14H21.6367V13ZM22.8987 13V14H23.4373L23.7336 13.5503L22.8987 13ZM24.0388 11.2703L24.8785 10.7273L24.0468 9.44113L23.2038 10.72L24.0388 11.2703ZM25.1574 13L24.3176 13.543L24.6132 14H25.1574V13ZM26.4982 13V14H28.393L27.3238 12.4357L26.4982 13ZM24.7128 10.388L23.8888 9.82136L23.5004 10.3863L23.8872 10.9523L24.7128 10.388ZM26.3548 8L27.1788 8.5666L28.256 7H26.3548V8ZM25.1215 8V7H24.5794L24.2835 7.45432L25.1215 8ZM24.0818 9.59664L23.2352 10.1289L24.067 11.4519L24.9198 10.1423L24.0818 9.59664ZM23.078 8L23.9245 7.46774L23.6305 7H23.078V8ZM21.773 8V7H19.8638L20.9509 8.5694L21.773 8ZM8.33438 11.4087L9.00122 9.57401L7.12152 8.89083L6.45468 10.7256L8.33438 11.4087ZM8.06137 10.2324H8.07571V8.23242H8.06137V10.2324ZM7.13236 9.56423L7.77769 11.399L9.66439 10.7354L9.01906 8.90062L7.13236 9.56423ZM8.72104 10.0672H7.39453V12.0672H8.72104V10.0672ZM6.56986 7.63892L4.63387 12.6389L6.49894 13.3611L8.43493 8.36108L6.56986 7.63892ZM5.56641 14H6.69932V12H5.56641V14ZM7.64002 13.3392L8.04156 12.2258L6.16016 11.5473L5.75862 12.6608L7.64002 13.3392ZM7.10086 12.8866H9.01534V10.8866H7.10086V12.8866ZM8.07082 12.215L8.45801 13.3285L10.3471 12.6715L9.95986 11.5581L8.07082 12.215ZM9.40253 14H10.5713V12H9.40253V14ZM11.5052 12.6424L9.5907 7.64242L7.72294 8.35758L9.63742 13.3576L11.5052 12.6424ZM8.65682 7H7.5024V9H8.65682V7ZM10.0156 8V13H12.0156V8H10.0156ZM11.0156 14H12.0697V12H11.0156V14ZM13.0697 13V9.4916H11.0697V13H13.0697ZM12.0697 10.4916H12.084V8.4916H12.0697V10.4916ZM11.1424 9.82836L12.3972 13.3368L14.2804 12.6632L13.0256 9.15483L11.1424 9.82836ZM13.3388 14H14.2064V12H13.3388V14ZM15.1491 13.3338L16.4039 9.79039L14.5186 9.12277L13.2638 12.6662L15.1491 13.3338ZM15.4612 10.4566H15.4756V8.45658H15.4612V10.4566ZM14.4756 9.45658V13H16.4756V9.45658H14.4756ZM15.4756 14H16.5296V12H15.4756V14ZM17.5296 13V8H15.5296V13H17.5296ZM16.5296 7H14.945V9H16.5296V7ZM13.9952 7.68706L12.8623 11.1254L14.7618 11.7513L15.8947 8.31294L13.9952 7.68706ZM13.8121 10.4384H13.7977V12.4384H13.8121V10.4384ZM14.7421 11.1095L13.5446 7.67111L11.6559 8.32889L12.8533 11.7673L14.7421 11.1095ZM12.6003 7H11.0156V9H12.6003V7ZM16.5195 8V13H18.5195V8H16.5195ZM17.5195 14H21.4059V12H17.5195V14ZM22.4059 13V12.0756H20.4059V13H22.4059ZM21.4059 11.0756H18.6453V13.0756H21.4059V11.0756ZM19.6453 12.0756V10.8501H17.6453V12.0756H19.6453ZM18.6453 11.8501H21.1262V9.85014H18.6453V11.8501ZM22.1262 10.8501V9.9958H20.1262V10.8501H22.1262ZM21.1262 8.9958H18.6453V10.9958H21.1262V8.9958ZM19.6453 9.9958V8.92437H17.6453V9.9958H19.6453ZM18.6453 9.92437H21.3485V7.92437H18.6453V9.92437ZM22.3485 8.92437V8H20.3485V8.92437H22.3485ZM21.3485 7H17.5195V9H21.3485V7ZM22.5959 9.81768L20.8104 12.4367L22.463 13.5633L24.2484 10.9442L22.5959 9.81768ZM21.6367 14H22.8987V12H21.6367V14ZM23.7336 13.5503L24.8737 11.8206L23.2038 10.72L22.0638 12.4497L23.7336 13.5503ZM23.1991 11.8133L24.3176 13.543L25.9971 12.457L24.8785 10.7273L23.1991 11.8133ZM25.1574 14H26.4982V12H25.1574V14ZM27.3238 12.4357L25.5384 9.82365L23.8872 10.9523L25.6726 13.5643L27.3238 12.4357ZM25.5368 10.9546L27.1788 8.5666L25.5308 7.4334L23.8888 9.82136L25.5368 10.9546ZM26.3548 7H25.1215V9H26.3548V7ZM24.2835 7.45432L23.2438 9.05096L24.9198 10.1423L25.9595 8.54568L24.2835 7.45432ZM24.9284 9.06437L23.9245 7.46774L22.2314 8.53226L23.2352 10.1289L24.9284 9.06437ZM23.078 7H21.773V9H23.078V7ZM20.9509 8.5694L22.6001 10.9504L24.2442 9.81155L22.595 7.4306L20.9509 8.5694Z" fill="white" mask="url(#path-3-outside-1_1009_37409)"/>
<defs>
<radialGradient id="paint0_radial_1009_37409" cx="0" cy="0" r="1" gradientUnits="userSpaceOnUse" gradientTransform="translate(10.7461 3.98047) rotate(90) scale(21 32)">
<stop stop-color="#71C8F2"/>
<stop offset="1" stop-color="#0071BD"/>
</radialGradient>
</defs>
</svg>
