<svg width="47" height="47" viewBox="0 0 47 47" fill="none" xmlns="http://www.w3.org/2000/svg">
<path d="M22.7618 0.164965C22.2286 0.417718 21.8344 1.20501 21.0462 2.77963L14.6352 15.6404C14.1105 16.693 13.8482 17.2193 13.8496 17.726C13.8507 18.1718 13.9913 18.6062 14.2512 18.9683C14.5468 19.3799 15.0677 19.653 16.1094 20.199L24.1519 24.4159C25.2113 24.9713 25.7409 25.249 26.2538 25.2552C26.705 25.2608 27.1465 25.1234 27.5149 24.8631C27.9339 24.5669 28.2125 24.0378 28.77 22.9797L31.1619 18.4392C31.6034 17.6012 31.8242 17.1822 31.9163 16.7396C31.9977 16.3478 32.0053 15.9442 31.9384 15.5495C31.8628 15.1041 31.6577 14.6771 31.2477 13.8232L25.9438 2.77963C25.1554 1.20501 24.7612 0.417718 24.2281 0.164965C23.7641 -0.0549883 23.2257 -0.0549883 22.7618 0.164965Z" fill="url(#paint0_linear_6766_23507)"/>
<path d="M36.6029 23.2059C36.1198 22.2464 35.8783 21.7667 35.5495 21.609C35.2632 21.4718 34.9307 21.4688 34.642 21.6008C34.3101 21.7526 34.06 22.2278 33.5596 23.1783L32.61 24.9826C32.05 26.0465 31.7699 26.5783 31.7638 27.0933C31.7582 27.5461 31.8967 27.989 32.1588 28.3582C32.457 28.778 32.9899 29.056 34.0558 29.612L38.1181 31.7311C39.2605 32.327 39.8316 32.6251 40.1585 32.5329C40.4411 32.4533 40.6631 32.2344 40.7467 31.9532C40.8435 31.6276 40.5536 31.0522 39.9742 29.9013L36.6029 23.2059Z" fill="url(#paint1_linear_6766_23507)"/>
<path d="M45.2679 40.5966C44.9795 40.0206 44.8352 39.7325 44.642 39.4836C44.4707 39.2627 44.2712 39.0652 44.0488 38.896C43.7979 38.7054 43.5085 38.564 42.9294 38.2814L32.1349 33.0103C31.0891 32.4997 30.5663 32.2444 30.0636 32.2481C29.6212 32.2513 29.1908 32.3915 28.8314 32.6496C28.423 32.9427 28.151 33.4572 27.6069 34.4859L22.7476 43.6736C22.3092 44.5025 22.09 44.917 22.1346 45.2549C22.1732 45.5501 22.3333 45.8157 22.5759 45.988C22.8542 46.1852 23.3229 46.1852 24.2606 46.1852H43.6322C45.1001 46.1852 45.8342 46.1852 46.2759 45.8762C46.6618 45.6063 46.9194 45.1892 46.988 44.7233C47.0667 44.1898 46.738 43.5335 46.0811 42.2209L45.2679 40.5966Z" fill="url(#paint2_linear_6766_23507)"/>
<path d="M13.4862 46.1865C14.6101 46.1865 15.1721 46.1865 15.6709 46.0184C16.1122 45.8698 16.5156 45.6267 16.8536 45.3062C17.2357 44.9441 17.4985 44.4473 18.0242 43.4542L23.6539 32.8193C24.2162 31.757 24.4974 31.2258 24.5047 30.7111C24.5115 30.2583 24.3743 29.8151 24.1128 29.4453C23.8159 29.0248 23.2838 28.7455 22.2195 28.187L14.0017 23.873C12.9219 23.3064 12.3821 23.0229 11.8618 23.0196C11.4043 23.0167 10.9579 23.1606 10.5883 23.4299C10.1678 23.7365 9.89492 24.2816 9.34932 25.3721L0.918496 42.2222C0.261376 43.5348 -0.0671676 44.1911 0.0114592 44.7246C0.0801195 45.1905 0.337696 45.6076 0.72354 45.8774C1.16543 46.1865 1.89937 46.1865 3.36724 46.1865H13.4862Z" fill="url(#paint3_linear_6766_23507)"/>
<defs>
<linearGradient id="paint0_linear_6766_23507" x1="-0.00163779" y1="3.30703e-06" x2="46.1773" y2="46.9948" gradientUnits="userSpaceOnUse">
<stop stop-color="#0040FF"/>
<stop offset="1" stop-color="#1035A3"/>
</linearGradient>
<linearGradient id="paint1_linear_6766_23507" x1="-0.00365792" y1="4.87947e-05" x2="46.1753" y2="46.9949" gradientUnits="userSpaceOnUse">
<stop stop-color="#0040FF"/>
<stop offset="1" stop-color="#1035A3"/>
</linearGradient>
<linearGradient id="paint2_linear_6766_23507" x1="-0.00253882" y1="-0.000705773" x2="46.1764" y2="46.9941" gradientUnits="userSpaceOnUse">
<stop stop-color="#0040FF"/>
<stop offset="1" stop-color="#1035A3"/>
</linearGradient>
<linearGradient id="paint3_linear_6766_23507" x1="1.91681e-06" y1="0.000578401" x2="46.179" y2="46.9954" gradientUnits="userSpaceOnUse">
<stop stop-color="#0040FF"/>
<stop offset="1" stop-color="#1035A3"/>
</linearGradient>
</defs>
</svg>
