<svg id="Group_19" data-name="Group 19" xmlns="http://www.w3.org/2000/svg" xmlns:xlink="http://www.w3.org/1999/xlink" width="65.391" height="64" viewBox="0 0 65.391 64">
  <defs>
    <clipPath id="clip-path">
      <path id="Clip_2" data-name="Clip 2" d="M0,0H33.391V21.565H0Z" fill="none"/>
    </clipPath>
    <clipPath id="clip-path-2">
      <path id="Clip_5" data-name="Clip 5" d="M0,0H50.783V50.783H0Z" fill="none"/>
    </clipPath>
  </defs>
  <g id="Group_3" data-name="Group 3" transform="translate(0 12.522)">
    <path id="Clip_2-2" data-name="Clip 2" d="M0,0H33.391V21.565H0Z" fill="none"/>
    <g id="Group_3-2" data-name="Group 3" clip-path="url(#clip-path)">
      <path id="Fill_1" data-name="Fill 1" d="M7.95,21.565a1.248,1.248,0,0,1-.244-.023l-6.66-1.269a1.283,1.283,0,0,1-.955-.787,1.268,1.268,0,0,1,.156-1.224A44.879,44.879,0,0,1,9.126,9.345c6.9-5.3,13.854-10,23.079-9.271A1.28,1.28,0,1,1,32,2.626C23.7,1.969,17.184,6.388,10.7,11.372a43.64,43.64,0,0,0-7.113,6.78l4.6.878a1.279,1.279,0,0,1-.241,2.535" transform="translate(0)"/>
    </g>
  </g>
  <g id="Group_6" data-name="Group 6" transform="translate(14.609)">
    <path id="Clip_5-2" data-name="Clip 5" d="M0,0H50.783V50.783H0Z" fill="none"/>
    <g id="Group_6-2" data-name="Group 6" clip-path="url(#clip-path-2)">
      <path id="Fill_4" data-name="Fill 4" d="M16.267,50.783a1.292,1.292,0,0,1-.909-.377L.375,35.42A1.282,1.282,0,0,1,.2,33.829,95.535,95.535,0,0,1,22.65,8.918,47.281,47.281,0,0,1,42.251.135,7.225,7.225,0,0,1,43.639,0a7.146,7.146,0,0,1,7.009,8.525,47.242,47.242,0,0,1-8.782,19.6A95.531,95.531,0,0,1,16.95,50.585,1.279,1.279,0,0,1,16.267,50.783Zm27.4-48.223h0a4.7,4.7,0,0,0-.912.09,44.757,44.757,0,0,0-18.543,8.3A92.853,92.853,0,0,0,2.919,34.332L16.447,47.866a93.035,93.035,0,0,0,23.386-21.3,44.745,44.745,0,0,0,8.3-18.535,4.592,4.592,0,0,0-4.463-5.472Z" transform="translate(0 -0.001)"/>
    </g>
  </g>
  <path id="Fill_7" data-name="Fill 7" d="M2.933,32.7a1.311,1.311,0,0,1-.43-.071,1.294,1.294,0,0,1-.836-.9L.038,25.349A1.283,1.283,0,0,1,.99,23.794a1.309,1.309,0,0,1,1.583.932L3.7,29.147a44.663,44.663,0,0,0,6.259-6.538C15.042,16.145,19.55,9.662,18.886,1.38a1.306,1.306,0,0,1,2.6-.2c.737,9.194-4.055,16.122-9.462,23a46.009,46.009,0,0,1-8.3,8.253,1.319,1.319,0,0,1-.8.266" transform="translate(30.609 31.304)" fill="#4b286d"/>
  <path id="Fill_9" data-name="Fill 9" d="M14.71,15.3a1.159,1.159,0,0,1-.186-.013A17.453,17.453,0,0,1,0,.379L2.554,0A14.823,14.823,0,0,0,14.893,12.669a1.324,1.324,0,0,1,1.094,1.5A1.306,1.306,0,0,1,14.71,15.3" transform="translate(45.913 3.478)" fill="#4b286d"/>
  <path id="Fill_11" data-name="Fill 11" d="M18.846,20.174a1.323,1.323,0,0,1-.937-.39L.388,2.266A1.328,1.328,0,0,1,2.266.388L19.783,17.91a1.327,1.327,0,0,1-.937,2.264" transform="translate(18.087 26.435)" fill="#4b286d"/>
  <path id="Fill_13" data-name="Fill 13" d="M6.076,16a15.038,15.038,0,0,1-4.486-.746,1.3,1.3,0,0,1-.844-.844C-.4,10.755-.225,7.591,1.254,5A11.367,11.367,0,0,1,8.014.033,1.288,1.288,0,0,1,8.6,2.542,8.849,8.849,0,0,0,3.476,6.3a8.674,8.674,0,0,0-.463,6.682,8.684,8.684,0,0,0,6.7-.476A8.744,8.744,0,0,0,13.458,7.4a1.288,1.288,0,0,1,2.509.583A11.367,11.367,0,0,1,11,14.746,9.754,9.754,0,0,1,6.076,16" transform="translate(8.348 40.348)" fill="#4b286d"/>
  <path id="Fill_15" data-name="Fill 15" d="M4.174,8.348A4.174,4.174,0,0,1,1.22,1.22,4.176,4.176,0,1,1,7.127,7.126,4.145,4.145,0,0,1,4.174,8.348Zm0-5.849A1.676,1.676,0,0,0,2.99,5.357a1.714,1.714,0,0,0,2.368,0A1.675,1.675,0,0,0,4.174,2.5Z" transform="translate(40.348 16)" fill="#4b286d"/>
  <path id="Fill_17" data-name="Fill 17" d="M4.174,8.348A4.174,4.174,0,0,1,1.22,1.22,4.176,4.176,0,1,1,7.127,7.126,4.145,4.145,0,0,1,4.174,8.348Zm0-5.849A1.674,1.674,0,0,0,2.99,5.357a1.714,1.714,0,0,0,2.368,0A1.675,1.675,0,0,0,4.174,2.5Z" transform="translate(31.304 25.043)" fill="#4b286d"/>
</svg>
