<svg id="Group_29" data-name="Group 29" xmlns="http://www.w3.org/2000/svg" xmlns:xlink="http://www.w3.org/1999/xlink" width="64" height="66.064" viewBox="0 0 64 66.064">
  <defs>
    <clipPath id="clip-path">
      <path id="Clip_12" data-name="Clip 12" d="M0,0H10.876V12.962H0Z" fill="none"/>
    </clipPath>
    <clipPath id="clip-path-2">
      <path id="Clip_17" data-name="Clip 17" d="M0,0H12.549V11.29H0Z" fill="none"/>
    </clipPath>
    <clipPath id="clip-path-3">
      <path id="Clip_26" data-name="Clip 26" d="M0,.176H49.359V3.169H0Z" fill="none"/>
    </clipPath>
  </defs>
  <g id="Group_28" data-name="Group 28">
    <path id="Fill_1" data-name="Fill 1" d="M1.261,8.363A1.247,1.247,0,0,1,.31,7.92,1.3,1.3,0,0,1,.434,6.106a24.185,24.185,0,0,1,23.8-4.836,1.294,1.294,0,0,1,.8,1.625,1.26,1.26,0,0,1-1.6.817A21.7,21.7,0,0,0,2.089,8.047a1.244,1.244,0,0,1-.827.316" transform="translate(22.588 9.199)" fill="#4b286d"/>
    <path id="Fill_3" data-name="Fill 3" d="M24.68,42.231A24.63,24.63,0,0,1,0,17.71,24.239,24.239,0,0,1,1.854,8.372a1.271,1.271,0,0,1,1.655-.683A1.255,1.255,0,0,1,4.2,9.332,21.772,21.772,0,0,0,2.538,17.71a22.142,22.142,0,0,0,44.283,0A21.784,21.784,0,0,0,40.334,2.153a1.254,1.254,0,0,1,0-1.781,1.272,1.272,0,0,1,1.8,0A24.272,24.272,0,0,1,49.359,17.71,24.63,24.63,0,0,1,24.68,42.231" transform="translate(14.641 16.307)" fill="#4b286d"/>
    <path id="Fill_5" data-name="Fill 5" d="M1.263,6.69a1.239,1.239,0,0,1-.956-.45A1.319,1.319,0,0,1,.438,4.412,17.458,17.458,0,0,1,12.014,0a17.267,17.267,0,0,1,5.519.9,1.3,1.3,0,0,1,.809,1.635,1.258,1.258,0,0,1-1.592.827A14.936,14.936,0,0,0,2.088,6.375a1.235,1.235,0,0,1-.825.315" transform="translate(27.19 16.307)" fill="#4b286d"/>
    <path id="Fill_7" data-name="Fill 7" d="M17.778,29.269A17.748,17.748,0,0,1,.468,7.473a1.265,1.265,0,0,1,2.465.576,15.243,15.243,0,1,0,30.091,3.477A15.049,15.049,0,0,0,29.71,2.051,1.265,1.265,0,0,1,31.69.477a17.54,17.54,0,0,1,3.865,11.049A17.781,17.781,0,0,1,17.778,29.269" transform="translate(21.333 22.579)" fill="#4b286d"/>
    <path id="Fill_9" data-name="Fill 9" d="M8.366,16.307A8.3,8.3,0,0,1,0,8.082,8.287,8.287,0,0,1,6.682.025,1.275,1.275,0,0,1,8.185,1,1.254,1.254,0,0,1,7.192,2.48a5.758,5.758,0,0,0-4.643,5.6,5.818,5.818,0,0,0,11.634,0,5.642,5.642,0,0,0-.223-1.576,1.249,1.249,0,0,1,.874-1.548,1.279,1.279,0,0,1,1.574.86,8.127,8.127,0,0,1,.323,2.265,8.3,8.3,0,0,1-8.366,8.225" transform="translate(30.954 25.924)" fill="#4b286d"/>
    <g id="Group_13" data-name="Group 13" transform="translate(52.288)">
      <path id="Clip_12-2" data-name="Clip 12" d="M0,0H10.876V12.962H0Z" fill="none"/>
      <g id="Group_13-2" data-name="Group 13" clip-path="url(#clip-path)">
        <path id="Fill_11" data-name="Fill 11" d="M1.457,12.964A1.263,1.263,0,0,1,.232,11.954,11.281,11.281,0,0,1,1.841,3.492L3.742.569A1.26,1.26,0,0,1,4.8,0c.032,0,.065,0,.1,0a1.256,1.256,0,0,1,1.04.764A3.9,3.9,0,0,0,9.584,3.219H9.6a1.267,1.267,0,0,1,1.069,1.964l-1.9,2.923a11.074,11.074,0,0,1-7.055,4.832A1.088,1.088,0,0,1,1.457,12.964ZM4.77,3.6,3.932,4.888a8.691,8.691,0,0,0-1.415,5.185A8.546,8.546,0,0,0,6.671,6.71l.838-1.287A6.325,6.325,0,0,1,4.77,3.6Z" transform="translate(0 -0.002)"/>
      </g>
    </g>
    <path id="Fill_14" data-name="Fill 14" d="M18.817,15.889a1.252,1.252,0,0,1-.757-.255L.5,2.29A1.282,1.282,0,0,1,.253.507,1.254,1.254,0,0,1,2.018.256L19.576,13.6a1.283,1.283,0,0,1,.249,1.783,1.25,1.25,0,0,1-1.009.509" transform="translate(10.039 13.38)" fill="#4b286d"/>
    <g id="Group_18" data-name="Group 18" transform="translate(0 5.018)">
      <path id="Clip_17-2" data-name="Clip 17" d="M0,0H12.549V11.29H0Z" fill="none"/>
      <g id="Group_18-2" data-name="Group 18" clip-path="url(#clip-path-2)">
        <path id="Fill_16" data-name="Fill 16" d="M9.9,11.29A10.893,10.893,0,0,1,3.255,9.034L.5,6.935a1.27,1.27,0,0,1,.335-2.2A3.887,3.887,0,0,0,3.47,1.205,1.257,1.257,0,0,1,4.185.121,1.236,1.236,0,0,1,5.469.255l2.754,2.1a11.183,11.183,0,0,1,4.314,7.4,1.26,1.26,0,0,1-.242.942,1.236,1.236,0,0,1-.821.485A10.834,10.834,0,0,1,9.9,11.29ZM5.507,3.448A6.387,6.387,0,0,1,3.543,6.09l1.211.922a8.454,8.454,0,0,0,5.015,1.75,8.611,8.611,0,0,0-3.048-4.39Z" transform="translate(0)"/>
      </g>
    </g>
    <path id="Fill_19" data-name="Fill 19" d="M1.26,24.67a1.257,1.257,0,0,1-1.051-1.95L14.834.566a1.262,1.262,0,0,1,2.109,1.386L2.314,24.1a1.257,1.257,0,0,1-1.054.567" transform="translate(37.647 10.453)" fill="#4b286d"/>
    <path id="Fill_21" data-name="Fill 21" d="M3.924,14.216A3.881,3.881,0,0,1,.368,11.963,3.8,3.8,0,0,1,.942,7.824L7.28.444A1.281,1.281,0,0,1,9.074.3a1.251,1.251,0,0,1,.145,1.78L2.882,9.457a1.319,1.319,0,0,0-.2,1.448,1.341,1.341,0,0,0,1.242.786,1.384,1.384,0,0,0,1.013-.441L12.424,3.1a1.284,1.284,0,0,1,1.8-.083A1.254,1.254,0,0,1,14.308,4.8l-7.486,8.15a3.95,3.95,0,0,1-2.9,1.269" transform="translate(17.569 51.848)" fill="#4b286d"/>
    <path id="Fill_23" data-name="Fill 23" d="M10.716,14.216a3.95,3.95,0,0,1-2.9-1.269L.332,4.8A1.254,1.254,0,0,1,.416,3.014a1.284,1.284,0,0,1,1.8.083L9.7,11.25a1.379,1.379,0,0,0,1.013.441,1.338,1.338,0,0,0,1.242-.786,1.313,1.313,0,0,0-.2-1.445L5.421,2.08A1.254,1.254,0,0,1,5.566.3,1.281,1.281,0,0,1,7.36.444L13.7,7.824a3.8,3.8,0,0,1,.574,4.139,3.881,3.881,0,0,1-3.556,2.253" transform="translate(46.013 51.848)" fill="#4b286d"/>
    <g id="Group_27" data-name="Group 27" transform="translate(14.641 62.719)">
      <path id="Clip_26-2" data-name="Clip 26" d="M0,.176H49.359V3.169H0Z" fill="none"/>
      <g id="Group_27-2" data-name="Group 27" clip-path="url(#clip-path-3)">
        <path id="Fill_25" data-name="Fill 25" d="M48.09,2.994H1.269A1.3,1.3,0,0,1,0,1.673,1.3,1.3,0,0,1,1.269.351H48.09a1.3,1.3,0,0,1,1.269,1.321A1.3,1.3,0,0,1,48.09,2.994" transform="translate(0 0.176)"/>
      </g>
    </g>
  </g>
</svg>
