<svg id="Group_9" data-name="Group 9" xmlns="http://www.w3.org/2000/svg" xmlns:xlink="http://www.w3.org/1999/xlink" width="64" height="55.83" viewBox="0 0 64 55.83">
  <defs>
    <clipPath id="clip-path">
      <path id="Clip_2" data-name="Clip 2" d="M0,0H64V55.83H0Z" fill="none"/>
    </clipPath>
  </defs>
  <path id="Clip_2-2" data-name="Clip 2" d="M0,0H64V55.83H0Z" fill="none"/>
  <g id="Group_9-2" data-name="Group 9" clip-path="url(#clip-path)">
    <path id="Fill_1" data-name="Fill 1" d="M9.682,32H1.211A1.2,1.2,0,0,1,0,30.818V1.182A1.2,1.2,0,0,1,1.211,0H9.682a1.2,1.2,0,0,1,1.211,1.182V30.818A1.2,1.2,0,0,1,9.682,32ZM2.423,2.364V29.636H8.468V2.364Z" transform="translate(4.766 23.83)" fill="#4b286d"/>
    <path id="Fill_3" data-name="Fill 3" d="M9.682,34.724H1.211A1.2,1.2,0,0,1,0,33.546V1.178A1.2,1.2,0,0,1,1.211,0H9.682a1.2,1.2,0,0,1,1.211,1.178V33.546A1.2,1.2,0,0,1,9.682,34.724ZM2.424,2.353V32.368H8.47V2.353Z" transform="translate(19.745 21.106)" fill="#4b286d"/>
    <path id="Fill_4" data-name="Fill 4" d="M9.682,38.128H1.211A1.2,1.2,0,0,1,0,36.948V1.177A1.2,1.2,0,0,1,1.211,0H9.682a1.2,1.2,0,0,1,1.211,1.177v35.77A1.2,1.2,0,0,1,9.682,38.128ZM2.42,2.357V35.768H8.467V2.357Z" transform="translate(34.043 17.702)" fill="#4b286d"/>
    <path id="Fill_5" data-name="Fill 5" d="M9.682,42.213H1.211A1.2,1.2,0,0,1,0,41.027V1.187A1.2,1.2,0,0,1,1.211,0H9.682a1.2,1.2,0,0,1,1.211,1.187V41.027A1.2,1.2,0,0,1,9.682,42.213ZM2.423,2.371V39.839H8.468V2.371Z" transform="translate(49.021 13.617)" fill="#4b286d"/>
    <path id="Fill_6" data-name="Fill 6" d="M1.174,17.7a1.162,1.162,0,0,1-.188-2.311C1.362,15.333,38.681,9.269,56.144.135a1.191,1.191,0,0,1,1.32.147,1.153,1.153,0,0,1,.34,1.269l-2,5.578a1.184,1.184,0,0,1-1.5.706,1.16,1.16,0,0,1-.715-1.484l1.031-2.87C36.08,12.047,2.837,17.452,1.365,17.687a1.423,1.423,0,0,1-.191.015" transform="translate(3.404 2.723)" fill="#4b286d"/>
    <path id="Fill_7" data-name="Fill 7" d="M6.356,4.085a1.222,1.222,0,0,1-.393-.067L.742,2.14A1.093,1.093,0,0,1,.071.723,1.137,1.137,0,0,1,1.525.069L6.749,1.947A1.1,1.1,0,0,1,7.42,3.364a1.135,1.135,0,0,1-1.064.721" transform="translate(53.787)" fill="#4b286d"/>
    <path id="Fill_8" data-name="Fill 8" d="M62.824,2.437H1.176A1.13,1.13,0,0,1,0,1.362,1.13,1.13,0,0,1,1.176.286H62.824A1.13,1.13,0,0,1,64,1.362a1.13,1.13,0,0,1-1.176,1.076" transform="translate(0 53.787)" fill="#4b286d"/>
  </g>
</svg>
