<svg width="46" height="46" viewBox="0 0 46 46" fill="none" xmlns="http://www.w3.org/2000/svg">
<path fill-rule="evenodd" clip-rule="evenodd" d="M25.1479 11.3203H26.6897V9.77883H25.1479V11.3203ZM27.4587 8.04465C27.8461 8.04465 28.2296 8.43003 28.2296 8.8154V12.0911C28.2296 12.4784 27.8461 12.8618 27.4587 12.8618H24.1843C23.7988 12.8618 23.4114 12.4784 23.4114 12.0911V8.8154C23.4114 8.43003 23.7988 8.04465 24.1843 8.04465H27.4587ZM30.9297 11.3203H32.4715V9.77883H30.9297V11.3203ZM33.2405 8.04465C33.6259 8.04465 34.0114 8.43003 34.0114 8.8154V12.0911C34.0114 12.4784 33.6259 12.8618 33.2405 12.8618H29.9661C29.5806 12.8618 29.1932 12.4784 29.1932 12.0911V8.8154C29.1932 8.43003 29.5806 8.04465 29.9661 8.04465H33.2405ZM36.7115 11.3203H38.2533V9.77883H36.7115V11.3203ZM39.0223 8.04465C39.4077 8.04465 39.7932 8.43003 39.7932 8.8154V12.0911C39.7932 12.4784 39.4077 12.8618 39.0223 12.8618H35.7479C35.3624 12.8618 34.975 12.4784 34.975 12.0911V8.8154C34.975 8.43003 35.3624 8.04465 35.7479 8.04465H39.0223ZM7.98173 26.9761H9.52355V25.4346H7.98173V26.9761ZM10.2945 23.7004C10.678 23.7004 11.0654 24.0858 11.0654 24.4712V27.7468C11.0654 28.1341 10.678 28.5195 10.2945 28.5195H7.01617C6.63265 28.5195 6.24719 28.1341 6.24719 27.7468V24.4712C6.24719 24.0858 6.63265 23.7004 7.01617 23.7004H10.2945ZM13.7635 26.9761H15.3053V25.4346H13.7635V26.9761ZM16.0763 23.7004C16.4598 23.7004 16.8472 24.0858 16.8472 24.4712V27.7468C16.8472 28.1341 16.4598 28.5195 16.0763 28.5195H12.798C12.4144 28.5195 12.029 28.1341 12.029 27.7468V24.4712C12.029 24.0858 12.4144 23.7004 12.798 23.7004H16.0763ZM19.5453 26.9761H21.0871V25.4346H19.5453V26.9761ZM21.8581 23.7004C22.2416 23.7004 22.629 24.0858 22.629 24.4712V27.7468C22.629 28.1341 22.2416 28.5195 21.8581 28.5195H18.5798C18.1962 28.5195 17.8108 28.1341 17.8108 27.7468V24.4712C17.8108 24.0858 18.1962 23.7004 18.5798 23.7004H21.8581ZM7.98173 34.8781H9.52355V33.3367H7.98173V34.8781ZM10.2945 31.6006C10.678 31.6006 11.0654 31.9879 11.0654 32.3732V35.647C11.0654 36.0323 10.678 36.4177 10.2945 36.4177H7.01617C6.63265 36.4177 6.24719 36.0323 6.24719 35.647V32.3732C6.24719 31.9879 6.63265 31.6006 7.01617 31.6006H10.2945ZM13.7635 34.8781H15.3053V33.3367H13.7635V34.8781ZM16.0763 31.6006C16.4598 31.6006 16.8472 31.9879 16.8472 32.3732V35.647C16.8472 36.0323 16.4598 36.4177 16.0763 36.4177H12.798C12.4144 36.4177 12.029 36.0323 12.029 35.647V32.3732C12.029 31.9879 12.4144 31.6006 12.798 31.6006H16.0763ZM19.5453 34.8781H21.0871V33.3367H19.5453V34.8781ZM21.8581 31.6006C22.2416 31.6006 22.629 31.9879 22.629 32.3732V35.647C22.629 36.0323 22.2416 36.4177 21.8581 36.4177H18.5798C18.1962 36.4177 17.8108 36.0323 17.8108 35.647V32.3732C17.8108 31.9879 18.1962 31.6006 18.5798 31.6006H21.8581ZM7.98173 42.7764H9.52355V41.2349H7.98173V42.7764ZM10.2945 39.5007C10.678 39.5007 11.0654 39.8861 11.0654 40.2714V43.549C11.0654 43.9344 10.678 44.3178 10.2945 44.3178H7.01617C6.63265 44.3178 6.24719 43.9344 6.24719 43.549V40.2714C6.24719 39.8861 6.63265 39.5007 7.01617 39.5007H10.2945ZM13.7635 42.7764H15.3053V41.2349H13.7635V42.7764ZM16.0763 39.5007C16.4598 39.5007 16.8472 39.8861 16.8472 40.2714V43.549C16.8472 43.9344 16.4598 44.3178 16.0763 44.3178H12.798C12.4144 44.3178 12.029 43.9344 12.029 43.549V40.2714C12.029 39.8861 12.4144 39.5007 12.798 39.5007H16.0763ZM19.5453 42.7764H21.0871V41.2349H19.5453V42.7764ZM21.8581 39.5007C22.2416 39.5007 22.629 39.8861 22.629 40.2714V43.549C22.629 43.9344 22.2416 44.3178 21.8581 44.3178H18.5798C18.1962 44.3178 17.8108 43.9344 17.8108 43.549V40.2714C17.8108 39.8861 18.1962 39.5007 18.5798 39.5007H21.8581ZM30.9297 18.9815H32.4715V17.44H30.9297V18.9815ZM33.2405 15.8966C33.6259 15.8966 34.0114 16.282 34.0114 16.6674V19.945C34.0114 20.3284 33.6259 20.7138 33.2405 20.7138H29.9661C29.5806 20.7138 29.1932 20.3284 29.1932 19.945V16.6674C29.1932 16.282 29.5806 15.8966 29.9661 15.8966H33.2405ZM36.7115 18.9815H38.2533V17.44H36.7115V18.9815ZM39.0223 15.8966C39.4077 15.8966 39.7932 16.282 39.7932 16.6674V19.945C39.7932 20.3284 39.4077 20.7138 39.0223 20.7138H35.7479C35.3624 20.7138 34.975 20.3284 34.975 19.945V16.6674C34.975 16.282 35.3624 15.8966 35.7479 15.8966H39.0223ZM30.9297 26.8335H32.4715V25.292H30.9297V26.8335ZM33.2405 23.7486C33.6259 23.7486 34.0114 24.134 34.0114 24.5213V27.7969C34.0114 28.1804 33.6259 28.5657 33.2405 28.5657H29.9661C29.5806 28.5657 29.1932 28.1804 29.1932 27.7969V24.5213C29.1932 24.134 29.5806 23.7486 29.9661 23.7486H33.2405ZM36.7115 26.8335H38.2533V25.292H36.7115V26.8335ZM39.0223 23.7486C39.4077 23.7486 39.7932 24.134 39.7932 24.5213V27.7969C39.7932 28.1804 39.4077 28.5657 39.0223 28.5657H35.7479C35.3624 28.5657 34.975 28.1804 34.975 27.7969V24.5213C34.975 24.134 35.3624 23.7486 35.7479 23.7486H39.0223ZM30.9297 34.6835H32.4715V33.142H30.9297V34.6835ZM33.2405 31.6006C33.6259 31.6006 34.0114 31.9879 34.0114 32.3732V35.647C34.0114 36.0323 33.6259 36.4177 33.2405 36.4177H29.9661C29.5806 36.4177 29.1932 36.0323 29.1932 35.647V32.3732C29.1932 31.9879 29.5806 31.6006 29.9661 31.6006H33.2405ZM36.7115 34.6835H38.2533V33.142H36.7115V34.6835ZM39.0223 31.6006C39.4077 31.6006 39.7932 31.9879 39.7932 32.3732V35.647C39.7932 36.0323 39.4077 36.4177 39.0223 36.4177H35.7479C35.3624 36.4177 34.975 36.0323 34.975 35.647V32.3732C34.975 31.9879 35.3624 31.6006 35.7479 31.6006H39.0223ZM30.9297 42.5355H32.4715V40.994H30.9297V42.5355ZM33.2405 39.4544C33.6259 39.4544 34.0114 39.8398 34.0114 40.2233V43.4989C34.0114 43.8843 33.6259 44.2716 33.2405 44.2716H29.9661C29.5806 44.2716 29.1932 43.8843 29.1932 43.4989V40.2233C29.1932 39.8398 29.5806 39.4544 29.9661 39.4544H33.2405ZM36.7115 42.5355H38.2533V40.994H36.7115V42.5355ZM39.0223 39.4544C39.4077 39.4544 39.7932 39.8398 39.7932 40.2233V43.4989C39.7932 43.8843 39.4077 44.2716 39.0223 44.2716H35.7479C35.3624 44.2716 34.975 43.8843 34.975 43.4989V40.2233C34.975 39.8398 35.3624 39.4544 35.7479 39.4544H39.0223ZM25.0978 3.16006H38.0105V1.92686H25.0978V3.16006ZM7.98752 19.6771H20.9002V18.4439H7.98752V19.6771ZM42.8306 3.16006C43.5205 3.16006 44.0833 3.72077 44.0833 4.41252V45.0366C44.0833 45.5684 43.6516 46 43.1197 46C42.5877 46 42.156 45.5684 42.156 45.0366V5.08692H20.9542V16.5171H21.5747C22.2666 16.5171 22.8275 17.0797 22.8275 17.7695V19.6771H25.7184C26.4083 19.6771 26.9711 20.2378 26.9711 20.9296V45.0366C26.9711 45.5684 26.5394 46 26.0075 46C25.4755 46 25.0438 45.5684 25.0438 45.0366V21.604H3.84389V45.0366C3.84389 45.5684 3.41218 46 2.88026 46C2.34833 46 1.91663 45.5684 1.91663 45.0366V20.9296C1.91663 20.2378 2.47939 19.6771 3.16935 19.6771H6.06025V17.7695C6.06025 17.0797 6.62108 16.5171 7.31297 16.5171H19.0269V4.41252C19.0269 3.72077 19.5897 3.16006 20.2796 3.16006H23.1705V1.25246C23.1705 0.560717 23.7333 0 24.4232 0H38.685C39.3769 0 39.9397 0.560717 39.9397 1.25246V3.16006H42.8306Z" fill="white"/>
<mask id="mask0_1940_38077" style="mask-type:alpha" maskUnits="userSpaceOnUse" x="1" y="0" width="44" height="46">
<path fill-rule="evenodd" clip-rule="evenodd" d="M25.1479 11.3203H26.6897V9.77883H25.1479V11.3203ZM27.4587 8.04465C27.8461 8.04465 28.2296 8.43003 28.2296 8.8154V12.0911C28.2296 12.4784 27.8461 12.8618 27.4587 12.8618H24.1843C23.7988 12.8618 23.4114 12.4784 23.4114 12.0911V8.8154C23.4114 8.43003 23.7988 8.04465 24.1843 8.04465H27.4587ZM30.9297 11.3203H32.4715V9.77883H30.9297V11.3203ZM33.2405 8.04465C33.6259 8.04465 34.0114 8.43003 34.0114 8.8154V12.0911C34.0114 12.4784 33.6259 12.8618 33.2405 12.8618H29.9661C29.5806 12.8618 29.1932 12.4784 29.1932 12.0911V8.8154C29.1932 8.43003 29.5806 8.04465 29.9661 8.04465H33.2405ZM36.7115 11.3203H38.2533V9.77883H36.7115V11.3203ZM39.0223 8.04465C39.4077 8.04465 39.7932 8.43003 39.7932 8.8154V12.0911C39.7932 12.4784 39.4077 12.8618 39.0223 12.8618H35.7479C35.3624 12.8618 34.975 12.4784 34.975 12.0911V8.8154C34.975 8.43003 35.3624 8.04465 35.7479 8.04465H39.0223ZM7.98173 26.9761H9.52355V25.4346H7.98173V26.9761ZM10.2945 23.7004C10.678 23.7004 11.0654 24.0858 11.0654 24.4712V27.7468C11.0654 28.1341 10.678 28.5195 10.2945 28.5195H7.01617C6.63265 28.5195 6.24719 28.1341 6.24719 27.7468V24.4712C6.24719 24.0858 6.63265 23.7004 7.01617 23.7004H10.2945ZM13.7635 26.9761H15.3053V25.4346H13.7635V26.9761ZM16.0763 23.7004C16.4598 23.7004 16.8472 24.0858 16.8472 24.4712V27.7468C16.8472 28.1341 16.4598 28.5195 16.0763 28.5195H12.798C12.4144 28.5195 12.029 28.1341 12.029 27.7468V24.4712C12.029 24.0858 12.4144 23.7004 12.798 23.7004H16.0763ZM19.5453 26.9761H21.0871V25.4346H19.5453V26.9761ZM21.8581 23.7004C22.2416 23.7004 22.629 24.0858 22.629 24.4712V27.7468C22.629 28.1341 22.2416 28.5195 21.8581 28.5195H18.5798C18.1962 28.5195 17.8108 28.1341 17.8108 27.7468V24.4712C17.8108 24.0858 18.1962 23.7004 18.5798 23.7004H21.8581ZM7.98173 34.8781H9.52355V33.3367H7.98173V34.8781ZM10.2945 31.6006C10.678 31.6006 11.0654 31.9879 11.0654 32.3732V35.647C11.0654 36.0323 10.678 36.4177 10.2945 36.4177H7.01617C6.63265 36.4177 6.24719 36.0323 6.24719 35.647V32.3732C6.24719 31.9879 6.63265 31.6006 7.01617 31.6006H10.2945ZM13.7635 34.8781H15.3053V33.3367H13.7635V34.8781ZM16.0763 31.6006C16.4598 31.6006 16.8472 31.9879 16.8472 32.3732V35.647C16.8472 36.0323 16.4598 36.4177 16.0763 36.4177H12.798C12.4144 36.4177 12.029 36.0323 12.029 35.647V32.3732C12.029 31.9879 12.4144 31.6006 12.798 31.6006H16.0763ZM19.5453 34.8781H21.0871V33.3367H19.5453V34.8781ZM21.8581 31.6006C22.2416 31.6006 22.629 31.9879 22.629 32.3732V35.647C22.629 36.0323 22.2416 36.4177 21.8581 36.4177H18.5798C18.1962 36.4177 17.8108 36.0323 17.8108 35.647V32.3732C17.8108 31.9879 18.1962 31.6006 18.5798 31.6006H21.8581ZM7.98173 42.7764H9.52355V41.2349H7.98173V42.7764ZM10.2945 39.5007C10.678 39.5007 11.0654 39.8861 11.0654 40.2714V43.549C11.0654 43.9344 10.678 44.3178 10.2945 44.3178H7.01617C6.63265 44.3178 6.24719 43.9344 6.24719 43.549V40.2714C6.24719 39.8861 6.63265 39.5007 7.01617 39.5007H10.2945ZM13.7635 42.7764H15.3053V41.2349H13.7635V42.7764ZM16.0763 39.5007C16.4598 39.5007 16.8472 39.8861 16.8472 40.2714V43.549C16.8472 43.9344 16.4598 44.3178 16.0763 44.3178H12.798C12.4144 44.3178 12.029 43.9344 12.029 43.549V40.2714C12.029 39.8861 12.4144 39.5007 12.798 39.5007H16.0763ZM19.5453 42.7764H21.0871V41.2349H19.5453V42.7764ZM21.8581 39.5007C22.2416 39.5007 22.629 39.8861 22.629 40.2714V43.549C22.629 43.9344 22.2416 44.3178 21.8581 44.3178H18.5798C18.1962 44.3178 17.8108 43.9344 17.8108 43.549V40.2714C17.8108 39.8861 18.1962 39.5007 18.5798 39.5007H21.8581ZM30.9297 18.9815H32.4715V17.44H30.9297V18.9815ZM33.2405 15.8966C33.6259 15.8966 34.0114 16.282 34.0114 16.6674V19.945C34.0114 20.3284 33.6259 20.7138 33.2405 20.7138H29.9661C29.5806 20.7138 29.1932 20.3284 29.1932 19.945V16.6674C29.1932 16.282 29.5806 15.8966 29.9661 15.8966H33.2405ZM36.7115 18.9815H38.2533V17.44H36.7115V18.9815ZM39.0223 15.8966C39.4077 15.8966 39.7932 16.282 39.7932 16.6674V19.945C39.7932 20.3284 39.4077 20.7138 39.0223 20.7138H35.7479C35.3624 20.7138 34.975 20.3284 34.975 19.945V16.6674C34.975 16.282 35.3624 15.8966 35.7479 15.8966H39.0223ZM30.9297 26.8335H32.4715V25.292H30.9297V26.8335ZM33.2405 23.7486C33.6259 23.7486 34.0114 24.134 34.0114 24.5213V27.7969C34.0114 28.1804 33.6259 28.5657 33.2405 28.5657H29.9661C29.5806 28.5657 29.1932 28.1804 29.1932 27.7969V24.5213C29.1932 24.134 29.5806 23.7486 29.9661 23.7486H33.2405ZM36.7115 26.8335H38.2533V25.292H36.7115V26.8335ZM39.0223 23.7486C39.4077 23.7486 39.7932 24.134 39.7932 24.5213V27.7969C39.7932 28.1804 39.4077 28.5657 39.0223 28.5657H35.7479C35.3624 28.5657 34.975 28.1804 34.975 27.7969V24.5213C34.975 24.134 35.3624 23.7486 35.7479 23.7486H39.0223ZM30.9297 34.6835H32.4715V33.142H30.9297V34.6835ZM33.2405 31.6006C33.6259 31.6006 34.0114 31.9879 34.0114 32.3732V35.647C34.0114 36.0323 33.6259 36.4177 33.2405 36.4177H29.9661C29.5806 36.4177 29.1932 36.0323 29.1932 35.647V32.3732C29.1932 31.9879 29.5806 31.6006 29.9661 31.6006H33.2405ZM36.7115 34.6835H38.2533V33.142H36.7115V34.6835ZM39.0223 31.6006C39.4077 31.6006 39.7932 31.9879 39.7932 32.3732V35.647C39.7932 36.0323 39.4077 36.4177 39.0223 36.4177H35.7479C35.3624 36.4177 34.975 36.0323 34.975 35.647V32.3732C34.975 31.9879 35.3624 31.6006 35.7479 31.6006H39.0223ZM30.9297 42.5355H32.4715V40.994H30.9297V42.5355ZM33.2405 39.4544C33.6259 39.4544 34.0114 39.8398 34.0114 40.2233V43.4989C34.0114 43.8843 33.6259 44.2716 33.2405 44.2716H29.9661C29.5806 44.2716 29.1932 43.8843 29.1932 43.4989V40.2233C29.1932 39.8398 29.5806 39.4544 29.9661 39.4544H33.2405ZM36.7115 42.5355H38.2533V40.994H36.7115V42.5355ZM39.0223 39.4544C39.4077 39.4544 39.7932 39.8398 39.7932 40.2233V43.4989C39.7932 43.8843 39.4077 44.2716 39.0223 44.2716H35.7479C35.3624 44.2716 34.975 43.8843 34.975 43.4989V40.2233C34.975 39.8398 35.3624 39.4544 35.7479 39.4544H39.0223ZM25.0978 3.16006H38.0105V1.92686H25.0978V3.16006ZM7.98752 19.6771H20.9002V18.4439H7.98752V19.6771ZM42.8306 3.16006C43.5205 3.16006 44.0833 3.72077 44.0833 4.41252V45.0366C44.0833 45.5684 43.6516 46 43.1197 46C42.5877 46 42.156 45.5684 42.156 45.0366V5.08692H20.9542V16.5171H21.5747C22.2666 16.5171 22.8275 17.0797 22.8275 17.7695V19.6771H25.7184C26.4083 19.6771 26.9711 20.2378 26.9711 20.9296V45.0366C26.9711 45.5684 26.5394 46 26.0075 46C25.4755 46 25.0438 45.5684 25.0438 45.0366V21.604H3.84389V45.0366C3.84389 45.5684 3.41218 46 2.88026 46C2.34833 46 1.91663 45.5684 1.91663 45.0366V20.9296C1.91663 20.2378 2.47939 19.6771 3.16935 19.6771H6.06025V17.7695C6.06025 17.0797 6.62108 16.5171 7.31297 16.5171H19.0269V4.41252C19.0269 3.72077 19.5897 3.16006 20.2796 3.16006H23.1705V1.25246C23.1705 0.560717 23.7333 0 24.4232 0H38.685C39.3769 0 39.9397 0.560717 39.9397 1.25246V3.16006H42.8306Z" fill="white"/>
</mask>
<g mask="url(#mask0_1940_38077)">
</g>
</svg>
