<svg width="146" height="26" viewBox="0 0 146 26" fill="none" xmlns="http://www.w3.org/2000/svg">
<path fill-rule="evenodd" clip-rule="evenodd" d="M81 7.72206V5H71V19H81V16.1607H75.0487V13.0579H79.9995V10.3398H75.0487V7.72206H81Z" fill="#4b286d"/>
<path fill-rule="evenodd" clip-rule="evenodd" d="M98 16.2383H91.9617V5H88V19H98V16.2383Z" fill="#4b286d"/>
<path fill-rule="evenodd" clip-rule="evenodd" d="M131.458 9.86207C128.732 9.24418 127.779 9.17489 127.779 8.08348C127.779 7.0721 129.129 6.75697 129.908 6.75697C131.165 6.75697 132.648 7.05148 134.161 7.83188L135.26 5.20195C133.709 4.35225 131.722 4 129.809 4C126.048 4 123.526 5.53193 123.42 8.51988C123.312 11.2439 125.517 12.2627 127.544 12.6859C129.498 13.0909 131.48 13.4382 131.52 14.6047C131.557 15.6804 130.594 16.1407 128.777 16.1407C127.095 16.1407 125.532 15.5963 123.933 14.9256L123 17.7816C124.837 18.5661 126.702 19 128.625 19C131.295 19 133.243 18.5809 134.68 17.228C135.674 16.2983 136 15.1755 136 14.1064C136 11.8477 134.599 10.574 131.458 9.86207Z" fill="#4b286d"/>
<path fill-rule="evenodd" clip-rule="evenodd" d="M65 7.7633V5H52V7.7633H56.3919V19H60.603V7.7633H65Z" fill="#4b286d"/>
<path fill-rule="evenodd" clip-rule="evenodd" d="M112.83 4V13.3613C112.83 14.0956 112.83 14.2981 112.788 14.5823C112.659 15.4765 111.824 15.993 110.491 16.0109C109.504 15.9947 108.783 15.6935 108.446 15.1592C108.276 14.8835 108.194 14.3917 108.194 13.6046V4H104V14.1551C104 15.5616 104.182 16.1964 104.795 17.0005C105.807 18.3116 107.781 19 110.5 19C110.529 19 110.556 19 110.588 19C110.603 19 110.627 19 110.647 19C114.286 19 116.164 17.5305 116.71 16.1555C116.98 15.4902 117 15.1728 117 13.8293V4H112.83Z" fill="#4b286d"/>
<mask id="mask0" mask-type="alpha" maskUnits="userSpaceOnUse" x="0" y="0" width="55" height="26">
<path fill-rule="evenodd" clip-rule="evenodd" d="M0 0H55V26H0V0Z" fill="white"/>
</mask>
<g mask="url(#mask0)">
<path fill-rule="evenodd" clip-rule="evenodd" d="M54.8242 0.456666L30.9287 5.19521V6.85457L31.0047 6.83544C46.7914 3.01267 54.8242 0.714512 54.8893 0.698708C54.9778 0.675419 55.0104 0.606383 54.997 0.547328C54.9845 0.485777 54.9202 0.436704 54.8242 0.456666Z" fill="#4b286d"/>
<path fill-rule="evenodd" clip-rule="evenodd" d="M35.3955 0.00261046C34.2341 0.0691513 32.0833 1.78258 30.9028 2.80065C26.2013 6.85299 22.7063 10.5776 20.164 14.4786C14.8656 17.3049 8.11023 20.2127 1.40164 22.4826L1.2405 22.5375L-0.050293 26.0001L0.686943 25.7157C4.95339 24.097 12.0744 21.0536 18.5309 17.6717C18.1677 18.6374 17.9848 19.5249 17.9848 20.3367C17.9848 20.9389 18.085 21.5003 18.2888 22.0118C18.6945 23.0307 19.4944 23.8018 20.604 24.2426C22.2563 24.898 24.5114 24.9113 27.083 24.1361C33.6538 22.1507 41.447 16.0597 43.1435 14.8495L43.2078 14.8038C43.2738 14.7547 43.2796 14.6824 43.2504 14.6341C43.2137 14.5775 43.136 14.5642 43.0717 14.6008H43.0709H43.0717L42.9882 14.6532C41.1656 15.7395 32.3179 20.973 26.5678 22.51C23.6381 23.2936 21.4047 22.866 20.5623 21.6908C20.2709 21.2907 20.1298 20.7841 20.1298 20.1928C20.1298 19.0383 20.675 17.5669 21.727 15.9325C22.693 15.3835 23.5964 14.847 24.4104 14.3388C30.0219 11.1964 36.4867 5.08883 36.7614 1.36088C36.7631 1.33509 36.7631 1.30598 36.7631 1.27853C36.7631 0.957471 36.6236 0.624767 36.379 0.38023C36.116 0.112403 35.7687 -0.0206788 35.3955 0.00261046ZM34.7701 1.78091C35.1383 1.54386 35.2443 1.69025 35.1366 1.95891C34.9613 2.38727 34.1514 4.96323 28.1358 9.88226C26.5662 11.164 25.4499 11.8835 23.1897 13.2151C26.8893 8.04823 32.2946 3.38205 34.7701 1.78091Z" fill="#76BA43"/>
</g>
<path fill-rule="evenodd" clip-rule="evenodd" d="M30.8825 5.02409L5.96088 10.3995L5 13L30.9603 6.66445L31 6.65449V5L30.8825 5.02409Z" fill="#4b286d"/>
<path fill-rule="evenodd" clip-rule="evenodd" d="M142.376 7.32178V6.42727H143.081C143.447 6.42727 143.831 6.49567 143.831 6.85287C143.831 7.29518 143.437 7.32178 142.996 7.32178H142.376ZM142.376 7.69342H142.973L143.875 8.94133H144.452L143.483 7.6729C143.983 7.61818 144.369 7.39626 144.369 6.87718C144.369 6.30795 143.967 6.05715 143.164 6.05715H141.863V8.94133H142.376V7.69342ZM143.006 10C144.618 10 146 8.94133 146 7.4943C146 6.05715 144.618 5 143.006 5C141.379 5 140 6.05715 140 7.4943C140 8.94133 141.379 10 143.006 10ZM140.592 7.4943C140.592 6.30795 141.651 5.41648 143.006 5.41648C144.345 5.41648 145.404 6.30795 145.404 7.4943C145.404 8.70041 144.345 9.58352 143.006 9.58352C141.651 9.58352 140.592 8.70041 140.592 7.4943Z" fill="#4b286d"/>
</svg>
