<svg width="46" height="45" viewBox="0 0 46 45" fill="none" xmlns="http://www.w3.org/2000/svg">
<path fill-rule="evenodd" clip-rule="evenodd" d="M34.1041 29.1554L39.2341 30.4136C42.8322 31.2929 45.3447 34.4504 45.3447 38.0936C45.3447 38.6354 44.9059 39.0761 44.3678 39.0761H36.9447C36.4066 39.0761 35.9697 38.6373 35.9697 38.0992C35.9697 37.5611 36.4066 37.1223 36.9447 37.1223H43.3103C42.9166 34.7711 41.1597 32.8979 38.7691 32.3111L33.0709 30.9161C32.7184 30.8298 32.4466 30.5579 32.3566 30.2092L31.7659 27.8936C31.6966 27.6236 31.7472 27.3348 31.9009 27.1061C32.0584 26.8736 32.3059 26.7198 32.5778 26.6842C34.6928 26.3936 36.2491 25.9211 37.2447 25.5423C36.3691 24.2486 35.0922 21.4923 35.0922 16.4129C35.0922 14.2604 34.8503 9.25795 32.6097 9.25795H31.9197C31.6591 9.25795 31.4153 9.15857 31.2334 8.9767L31.2297 8.97301C30.3796 8.14353 30.1497 7.91915 28.8841 7.88357C28.5597 7.95107 28.1828 7.79357 27.9672 7.46545C27.7666 7.16545 27.7441 6.7642 27.9184 6.44732C28.1172 6.07795 28.4584 5.8867 28.8072 5.92982C30.5791 5.95607 31.3141 6.35732 32.3116 7.3042H32.6097C35.5516 7.3042 37.0441 10.3698 37.0441 16.4129C37.0441 23.11 39.3937 25.0985 39.4197 25.1204L39.4197 25.1204C39.6784 25.3098 39.8266 25.6229 39.8097 25.9548C39.7928 26.2829 39.6109 26.5792 39.3241 26.7442L39.3234 26.7446C39.2388 26.7933 37.4464 27.8241 33.9222 28.4486L34.1041 29.1554ZM14.0106 27.5478L13.3337 30.2066C13.2437 30.5572 12.97 30.8272 12.6213 30.9135L6.9175 32.3085C4.52688 32.8991 2.77 34.7741 2.37813 37.1216H32.08C31.6862 34.7722 29.9312 32.8991 27.5387 32.3103L21.8387 30.9153C21.4881 30.8309 21.2162 30.5591 21.1262 30.2103L20.4756 27.6641C20.3838 27.306 20.4981 26.9328 20.7756 26.6872C22.1875 25.4478 23.1194 23.6047 23.2675 21.7578C23.3088 21.2441 23.7269 20.8578 24.2388 20.8578C24.4956 20.8578 24.685 20.7228 24.7113 20.5222L25.0581 17.8147C25.0712 17.7116 25.0413 17.6159 24.97 17.5353C24.8931 17.4453 24.7806 17.3947 24.655 17.3928C24.3944 17.3928 24.1394 17.2803 23.9575 17.0872C23.7756 16.8903 23.68 16.6297 23.6931 16.3672L23.8619 12.9753C23.8731 12.7316 23.9762 12.5028 24.1525 12.3284L24.8444 11.6497C25.2419 11.2334 25.5044 10.6803 24.715 9.50095C24.0081 8.4397 22.7125 7.90157 20.8675 7.90157C19.4931 7.90157 17.8862 8.0422 16.405 9.08095C16.2456 9.19157 16.0506 9.25532 15.8538 9.2572C10.9919 9.30407 10.5962 10.9916 10.5962 13.0241C10.5962 13.6353 10.81 15.4859 10.915 16.2866C10.9525 16.5659 10.8663 16.8472 10.6769 17.0572C10.4931 17.2691 10.2269 17.3891 9.94562 17.3891C9.65125 17.3891 9.54813 17.4584 9.48812 17.5278C9.44875 17.5747 9.38313 17.6722 9.4 17.8109L9.74312 20.5222C9.7675 20.7134 9.94188 20.8559 10.1481 20.8559H10.375C10.8831 20.8559 11.3088 21.2516 11.3481 21.7559C11.4963 23.5466 12.385 25.3541 13.7256 26.5878C13.9919 26.8316 14.1006 27.1991 14.0106 27.5478ZM22.8738 29.1566L28.0075 30.4128C31.6019 31.2959 34.1144 34.4553 34.1144 38.0947C34.1144 38.6366 33.6775 39.0753 33.1394 39.0753H1.32063C0.7825 39.0753 0.34375 38.6366 0.34375 38.0984C0.34375 34.4553 2.85625 31.2959 6.4525 30.4147L11.5881 29.1584L11.9819 27.6134C10.72 26.2859 9.82563 24.5197 9.50688 22.7253C8.605 22.4722 7.93 21.7053 7.81 20.7734L7.465 18.0603C7.38063 17.4041 7.585 16.7403 8.02563 16.2416C8.25625 15.9772 8.545 15.7672 8.87125 15.6284C8.72125 14.3459 8.64625 13.4703 8.64625 13.0259C8.64625 10.4422 9.43188 7.46095 15.5406 7.31282C17.6556 5.9497 19.9038 5.9497 20.8694 5.9497C23.4062 5.9497 25.2475 6.78032 26.3406 8.4172C27.8069 10.6072 27.0906 12.1316 26.2319 13.0241L25.7931 13.4553L25.6844 15.6753C25.9694 15.8103 26.23 16.0091 26.4419 16.2509C26.8788 16.7478 27.0813 17.4078 26.9969 18.0603L26.6519 20.7716C26.5394 21.6397 25.945 22.3691 25.1181 22.6691C24.7994 24.5441 23.8563 26.3778 22.51 27.7353L22.8738 29.1566Z" fill="#4B286D"/>
<mask id="mask0_6_17982" style="mask-type:alpha" maskUnits="userSpaceOnUse" x="0" y="5" width="46" height="35">
<path fill-rule="evenodd" clip-rule="evenodd" d="M34.1041 29.1554L39.2341 30.4136C42.8322 31.2929 45.3447 34.4504 45.3447 38.0936C45.3447 38.6354 44.9059 39.0761 44.3678 39.0761H36.9447C36.4066 39.0761 35.9697 38.6373 35.9697 38.0992C35.9697 37.5611 36.4066 37.1223 36.9447 37.1223H43.3103C42.9166 34.7711 41.1597 32.8979 38.7691 32.3111L33.0709 30.9161C32.7184 30.8298 32.4466 30.5579 32.3566 30.2092L31.7659 27.8936C31.6966 27.6236 31.7472 27.3348 31.9009 27.1061C32.0584 26.8736 32.3059 26.7198 32.5778 26.6842C34.6928 26.3936 36.2491 25.9211 37.2447 25.5423C36.3691 24.2486 35.0922 21.4923 35.0922 16.4129C35.0922 14.2604 34.8503 9.25795 32.6097 9.25795H31.9197C31.6591 9.25795 31.4153 9.15857 31.2334 8.9767L31.2297 8.97301C30.3796 8.14353 30.1497 7.91915 28.8841 7.88357C28.5597 7.95107 28.1828 7.79357 27.9672 7.46545C27.7666 7.16545 27.7441 6.7642 27.9184 6.44732C28.1172 6.07795 28.4584 5.8867 28.8072 5.92982C30.5791 5.95607 31.3141 6.35732 32.3116 7.3042H32.6097C35.5516 7.3042 37.0441 10.3698 37.0441 16.4129C37.0441 23.11 39.3937 25.0985 39.4197 25.1204L39.4197 25.1204C39.6784 25.3098 39.8266 25.6229 39.8097 25.9548C39.7928 26.2829 39.6109 26.5792 39.3241 26.7442L39.3234 26.7446C39.2388 26.7933 37.4464 27.8241 33.9222 28.4486L34.1041 29.1554ZM14.0106 27.5478L13.3337 30.2066C13.2437 30.5572 12.97 30.8272 12.6213 30.9135L6.9175 32.3085C4.52688 32.8991 2.77 34.7741 2.37813 37.1216H32.08C31.6862 34.7722 29.9312 32.8991 27.5387 32.3103L21.8387 30.9153C21.4881 30.8309 21.2162 30.5591 21.1262 30.2103L20.4756 27.6641C20.3838 27.306 20.4981 26.9328 20.7756 26.6872C22.1875 25.4478 23.1194 23.6047 23.2675 21.7578C23.3088 21.2441 23.7269 20.8578 24.2388 20.8578C24.4956 20.8578 24.685 20.7228 24.7113 20.5222L25.0581 17.8147C25.0712 17.7116 25.0413 17.6159 24.97 17.5353C24.8931 17.4453 24.7806 17.3947 24.655 17.3928C24.3944 17.3928 24.1394 17.2803 23.9575 17.0872C23.7756 16.8903 23.68 16.6297 23.6931 16.3672L23.8619 12.9753C23.8731 12.7316 23.9762 12.5028 24.1525 12.3284L24.8444 11.6497C25.2419 11.2334 25.5044 10.6803 24.715 9.50095C24.0081 8.4397 22.7125 7.90157 20.8675 7.90157C19.4931 7.90157 17.8862 8.0422 16.405 9.08095C16.2456 9.19157 16.0506 9.25532 15.8538 9.2572C10.9919 9.30407 10.5962 10.9916 10.5962 13.0241C10.5962 13.6353 10.81 15.4859 10.915 16.2866C10.9525 16.5659 10.8663 16.8472 10.6769 17.0572C10.4931 17.2691 10.2269 17.3891 9.94562 17.3891C9.65125 17.3891 9.54813 17.4584 9.48812 17.5278C9.44875 17.5747 9.38313 17.6722 9.4 17.8109L9.74312 20.5222C9.7675 20.7134 9.94188 20.8559 10.1481 20.8559H10.375C10.8831 20.8559 11.3088 21.2516 11.3481 21.7559C11.4963 23.5466 12.385 25.3541 13.7256 26.5878C13.9919 26.8316 14.1006 27.1991 14.0106 27.5478ZM22.8738 29.1566L28.0075 30.4128C31.6019 31.2959 34.1144 34.4553 34.1144 38.0947C34.1144 38.6366 33.6775 39.0753 33.1394 39.0753H1.32063C0.7825 39.0753 0.34375 38.6366 0.34375 38.0984C0.34375 34.4553 2.85625 31.2959 6.4525 30.4147L11.5881 29.1584L11.9819 27.6134C10.72 26.2859 9.82563 24.5197 9.50688 22.7253C8.605 22.4722 7.93 21.7053 7.81 20.7734L7.465 18.0603C7.38063 17.4041 7.585 16.7403 8.02563 16.2416C8.25625 15.9772 8.545 15.7672 8.87125 15.6284C8.72125 14.3459 8.64625 13.4703 8.64625 13.0259C8.64625 10.4422 9.43188 7.46095 15.5406 7.31282C17.6556 5.9497 19.9038 5.9497 20.8694 5.9497C23.4062 5.9497 25.2475 6.78032 26.3406 8.4172C27.8069 10.6072 27.0906 12.1316 26.2319 13.0241L25.7931 13.4553L25.6844 15.6753C25.9694 15.8103 26.23 16.0091 26.4419 16.2509C26.8788 16.7478 27.0813 17.4078 26.9969 18.0603L26.6519 20.7716C26.5394 21.6397 25.945 22.3691 25.1181 22.6691C24.7994 24.5441 23.8563 26.3778 22.51 27.7353L22.8738 29.1566Z" fill="white"/>
</mask>
<g mask="url(#mask0_6_17982)">
<rect x="0.34375" width="45" height="45" fill="#4B286D"/>
</g>
</svg>
