<svg xmlns="http://www.w3.org/2000/svg" width="15" height="19.354" viewBox="0 0 15 19.354">
  <g id="icon" transform="translate(-5 -2)">
    <path id="Fill_1" data-name="Fill 1" d="M11.094,19.354H2.359a.469.469,0,0,1-.464-.472v-1.26H.466A.47.47,0,0,1,0,17.149V.472A.469.469,0,0,1,.465,0H12.642a.472.472,0,0,1,.465.472v1.26h1.427A.472.472,0,0,1,15,2.2V15.382c0,.007,0,.011,0,.015s0,.008,0,.012a.409.409,0,0,1-.007.054.131.131,0,0,1,0,.014.222.222,0,0,1-.011.043.057.057,0,0,1,0,.013l0,.012a.371.371,0,0,1-.015.036.11.11,0,0,1-.008.019l0,.007a.471.471,0,0,1-.091.122l-3.43,3.488a.468.468,0,0,1-.275.136ZM2.824,2.678V18.409h7.8V15.383a.469.469,0,0,1,.464-.472H14.07V2.678H2.824Zm8.735,13.18V17.74l1.852-1.883ZM.932.947V16.676h.963V2.2a.47.47,0,0,1,.464-.472h9.818V.947ZM9.824,14.589h-5.4a.473.473,0,0,1,0-.947h5.4a.473.473,0,0,1,0,.947ZM11.7,12.255H4.427a.473.473,0,0,1,0-.945H11.7a.473.473,0,0,1,0,.945ZM9.824,9.923h-5.4a.473.473,0,0,1,0-.946h5.4a.473.473,0,0,1,0,.946Zm2.125-1.008a.453.453,0,0,1-.448-.457V8.316a2.108,2.108,0,0,1-.364-.076.459.459,0,0,1-.24-.2.559.559,0,0,1-.1-.3.257.257,0,0,1,.056-.165A.279.279,0,0,1,11,7.494a.516.516,0,0,1,.132-.016,1.048,1.048,0,0,1,.29.048l.049.011a1.66,1.66,0,0,0,.436.065.585.585,0,0,0,.342-.084.268.268,0,0,0,.11-.239.245.245,0,0,0-.048-.152.586.586,0,0,0-.156-.146,4.516,4.516,0,0,0-.446-.236,2.207,2.207,0,0,1-.5-.305,1.155,1.155,0,0,1-.268-.346,1,1,0,0,1-.1-.464.99.99,0,0,1,.334-.787,1.061,1.061,0,0,1,.324-.184V4.441a.45.45,0,1,1,.9,0v.143h.007c.07.012.143.024.214.043.051.014.1.03.158.047a.4.4,0,0,1,.241.216.461.461,0,0,1,.009.367.259.259,0,0,1-.224.14.664.664,0,0,1-.077,0,.935.935,0,0,1-.258-.039l-.032-.009-.026-.007a1.418,1.418,0,0,0-.347-.045.415.415,0,0,0-.288.086.269.269,0,0,0-.094.219.282.282,0,0,0,.037.147.545.545,0,0,0,.129.128c.068.044.246.138.464.244a1.908,1.908,0,0,1,.695.5.994.994,0,0,1,.181.579l.014.007v.037a.987.987,0,0,1-.364.805,1.215,1.215,0,0,1-.437.22v.188A.456.456,0,0,1,11.949,8.915ZM8.8,7.59H4.427a.473.473,0,0,1,0-.946H8.8a.473.473,0,0,1,0,.946Zm.178-2.332H4.427a.473.473,0,0,1,0-.947H8.977a.459.459,0,0,1,.327.136.476.476,0,0,1-.327.811Z" transform="translate(5 2)" fill="#4b286d"/>
  </g>
</svg>
