<svg width="16" height="16" viewBox="0 0 16 16" fill="none" xmlns="http://www.w3.org/2000/svg">
<path fill-rule="evenodd" clip-rule="evenodd" d="M0.710693 7.99973C0.710693 12.0197 3.98136 15.2891 8.00003 15.2891C12.0194 15.2891 15.2894 12.0197 15.2894 7.99973C15.2894 3.98106 12.0194 0.71106 8.00003 0.71106C3.98136 0.71106 0.710693 3.98106 0.710693 7.99973ZM0 7.99972C0 3.58906 3.58867 -0.000274658 8 -0.000274658C12.4107 -0.000274658 16 3.58906 16 7.99972C16 12.4111 12.4107 15.9997 8 15.9997C3.58867 15.9997 0 12.4111 0 7.99972ZM8.35528 7.64453H11.0033C11.2126 7.64453 11.3586 7.7912 11.3586 7.99986C11.3586 8.2092 11.2126 8.3552 11.0033 8.3552H7.99995C7.79128 8.3552 7.64461 8.2092 7.64461 7.99986V2.53986C7.64461 2.33053 7.79128 2.18453 7.99995 2.18453C8.20928 2.18453 8.35528 2.33053 8.35528 2.53986V7.64453Z" fill="#FACA69"/>
<mask id="mask0_1940_39279" style="mask-type:alpha" maskUnits="userSpaceOnUse" x="0" y="-1" width="16" height="17">
<path fill-rule="evenodd" clip-rule="evenodd" d="M0.710693 7.99973C0.710693 12.0197 3.98136 15.2891 8.00003 15.2891C12.0194 15.2891 15.2894 12.0197 15.2894 7.99973C15.2894 3.98106 12.0194 0.71106 8.00003 0.71106C3.98136 0.71106 0.710693 3.98106 0.710693 7.99973ZM0 7.99972C0 3.58906 3.58867 -0.000274658 8 -0.000274658C12.4107 -0.000274658 16 3.58906 16 7.99972C16 12.4111 12.4107 15.9997 8 15.9997C3.58867 15.9997 0 12.4111 0 7.99972ZM8.35528 7.64453H11.0033C11.2126 7.64453 11.3586 7.7912 11.3586 7.99986C11.3586 8.2092 11.2126 8.3552 11.0033 8.3552H7.99995C7.79128 8.3552 7.64461 8.2092 7.64461 7.99986V2.53986C7.64461 2.33053 7.79128 2.18453 7.99995 2.18453C8.20928 2.18453 8.35528 2.33053 8.35528 2.53986V7.64453Z" fill="white"/>
</mask>
<g mask="url(#mask0_1940_39279)">
<rect width="16" height="16" fill="#FACA69"/>
</g>
</svg>
