<svg width="16" height="16" viewBox="0 0 16 16" fill="none" xmlns="http://www.w3.org/2000/svg">
<path fill-rule="evenodd" clip-rule="evenodd" d="M13.7941 4.18323C13.4425 3.88251 13.0896 4.04504 12.8869 4.24528L7.99682 8.74055L3.11722 4.24528C2.93839 4.08145 2.49053 3.81997 2.16524 4.18323C1.83995 4.54649 2.06521 4.91611 2.24327 5.07993L7.63482 10.8766C7.81365 11.0411 8.10607 11.0411 8.2849 10.8766C8.2849 10.8759 13.7941 5.07993 13.7941 5.07993C13.9792 4.93504 14.1457 4.48395 13.7941 4.18323Z" fill="#2A2C2E"/>
<mask id="mask0_903_49582" style="mask-type:alpha" maskUnits="userSpaceOnUse" x="2" y="4" width="12" height="7">
<path fill-rule="evenodd" clip-rule="evenodd" d="M13.7941 4.18323C13.4425 3.88251 13.0896 4.04504 12.8869 4.24528L7.99682 8.74055L3.11722 4.24528C2.93839 4.08145 2.49053 3.81997 2.16524 4.18323C1.83995 4.54649 2.06521 4.91611 2.24327 5.07993L7.63482 10.8766C7.81365 11.0411 8.10607 11.0411 8.2849 10.8766C8.2849 10.8759 13.7941 5.07993 13.7941 5.07993C13.9792 4.93504 14.1457 4.48395 13.7941 4.18323Z" fill="white"/>
</mask>
<g mask="url(#mask0_903_49582)">
</g>
</svg>
