<svg width="7" height="12" viewBox="0 0 7 12" fill="none" xmlns="http://www.w3.org/2000/svg">
<path fill-rule="evenodd" clip-rule="evenodd" d="M0.18323 0.205919C-0.11749 0.557538 0.0450438 0.910381 0.245275 1.11311L4.74055 6.00318L0.245276 10.8828C0.081452 11.0616 -0.180033 11.5095 0.18323 11.8348C0.546493 12.1601 0.916105 11.9348 1.07993 11.7567L6.8766 6.36518C7.04113 6.18635 7.04113 5.89393 6.8766 5.7151C6.8759 5.7151 1.07993 0.205919 1.07993 0.205919C0.935042 0.0207643 0.483949 -0.1457 0.18323 0.205919Z" fill="#54595F"/>
<mask id="mask0_1940_37589" style="mask-type:alpha" maskUnits="userSpaceOnUse" x="0" y="0" width="7" height="12">
<path fill-rule="evenodd" clip-rule="evenodd" d="M0.18323 0.205919C-0.11749 0.557538 0.0450438 0.910381 0.245275 1.11311L4.74055 6.00318L0.245276 10.8828C0.081452 11.0616 -0.180033 11.5095 0.18323 11.8348C0.546493 12.1601 0.916105 11.9348 1.07993 11.7567L6.8766 6.36518C7.04113 6.18635 7.04113 5.89393 6.8766 5.7151C6.8759 5.7151 1.07993 0.205919 1.07993 0.205919C0.935042 0.0207643 0.483949 -0.1457 0.18323 0.205919Z" fill="white"/>
</mask>
<g mask="url(#mask0_1940_37589)">
<rect y="12" width="12" height="8" transform="rotate(-90 0 12)" fill="#54595F"/>
</g>
</svg>
