<svg xmlns="http://www.w3.org/2000/svg" width="37" height="58" viewBox="0 0 37 58">
  <g id="Group_7" data-name="Group 7" transform="translate(0 0)">
    <path id="Fill_134" data-name="Fill 134" d="M6.59,29a1.092,1.092,0,0,1-.639-.2,1.042,1.042,0,0,1-.428-1.037L7.129,18.57l-6.8-6.511a1.054,1.054,0,0,1-.271-1.094,1.071,1.071,0,0,1,.876-.724l9.4-1.339,4.2-8.354a1.135,1.135,0,0,1,1.943,0L20.677,8.9l9.4,1.339a1.081,1.081,0,0,1,.876.724,1.069,1.069,0,0,1-.271,1.094L23.866,18.57l1.609,9.189a1.057,1.057,0,0,1-.425,1.037,1.122,1.122,0,0,1-1.144.083L15.5,24.538,7.1,28.878A1.116,1.116,0,0,1,6.59,29ZM15.5,22.269a1.089,1.089,0,0,1,.508.127l6.962,3.592-1.335-7.616a1.063,1.063,0,0,1,.315-.94L27.58,12.04,19.8,10.929a1.08,1.08,0,0,1-.818-.583L15.5,3.42l-3.479,6.925a1.062,1.062,0,0,1-.81.583L3.415,12.04,9.05,17.432a1.07,1.07,0,0,1,.311.94L8.031,25.988,14.993,22.4A1.073,1.073,0,0,1,15.5,22.269Z" transform="translate(3 29)" fill="#4b286d"/>
    <path id="Fill_135" data-name="Fill 135" d="M18.5,31a1.027,1.027,0,0,1-.534-.145L.542,21.06A1.072,1.072,0,0,1,0,20.128V1.07A1.074,1.074,0,0,1,1.076,0H35.913A1.08,1.08,0,0,1,37,1.07V20.128a1.081,1.081,0,0,1-.549.932L19.038,30.855A1.035,1.035,0,0,1,18.5,31ZM2.163,2.151V19.5L18.5,28.689,34.834,19.5V2.151Z" fill="#4b286d"/>
    <path id="Fill_136" data-name="Fill 136" d="M6.995,31a.967.967,0,0,1-.515-.145L.536,27.405A1.074,1.074,0,0,1,0,26.473V1.074A1.062,1.062,0,0,1,1.047,0h11.9A1.063,1.063,0,0,1,14,1.074v25.4a1.076,1.076,0,0,1-.539.932L7.52,30.855A.975.975,0,0,1,6.995,31ZM2.1,2.151v23.7l4.9,2.841,4.9-2.841V2.151Z" transform="translate(11)" fill="#4b286d"/>
  </g>
</svg>
