<svg xmlns="http://www.w3.org/2000/svg" width="24" height="15.6" viewBox="0 0 24 15.6">
  <g id="icon" transform="translate(0 -4.2)">
    <path id="Users" d="M23.478,15.6a.521.521,0,0,1-.522-.519,3.656,3.656,0,0,0-5.07-3.356,6.74,6.74,0,0,1,.9,3.356.522.522,0,0,1-1.044,0,5.739,5.739,0,0,0-11.478,0,.522.522,0,0,1-1.044,0,6.731,6.731,0,0,1,.9-3.355,3.654,3.654,0,0,0-5.07,3.355A.522.522,0,0,1,0,15.08,4.693,4.693,0,0,1,4.7,10.4a4.74,4.74,0,0,1,2.016.452,6.788,6.788,0,0,1,10.579,0A4.7,4.7,0,0,1,24,15.08.521.521,0,0,1,23.478,15.6ZM19.3,9.36a2.6,2.6,0,1,1,2.609-2.6A2.607,2.607,0,0,1,19.3,9.36Zm0-4.16a1.56,1.56,0,1,0,1.565,1.56A1.564,1.564,0,0,0,19.3,5.2ZM4.77,9.36a2.6,2.6,0,1,1,2.608-2.6A2.608,2.608,0,0,1,4.77,9.36Zm0-4.16A1.56,1.56,0,1,0,6.335,6.76,1.564,1.564,0,0,0,4.77,5.2ZM12,7.28a3.64,3.64,0,1,1,3.652-3.64A3.65,3.65,0,0,1,12,7.28Zm0-6.24a2.6,2.6,0,1,0,2.609,2.6A2.607,2.607,0,0,0,12,1.04Z" transform="translate(0 4.2)" fill="#4b286d"/>
  </g>
</svg>
