<svg xmlns="http://www.w3.org/2000/svg" fill="none" viewBox="0 0 26 28" width="26" height="28"><g clip-path="url(#a-ico-yellow-pages)"><path fill="#FFCD00" d="M20.8 27.4c-6 2.9-17-5-19.8-11-2.9-6.2.7-12.1 6.7-15C9.7.7 11.8.2 14 0c4 0 7.7 1.9 9.5 5.9 2.8 6.1 3.3 18.7-2.7 21.5Z"/><path fill="#000" d="M7 6.3h4c1.3 0 3.4.2 4.6 2.6L21.4 21a1.5 1.5 0 0 1-2 0l-.2-.2-5-7c-.7-1-2.1-1.3-3-.6l-.3.2-1.4 1.3a1.5 1.5 0 0 1-2.1 0l-.2-.2 1.3-1.7a3.7 3.7 0 0 0 .2-4.2L7 6.3Z"/><path fill="#000" d="M9.3 19c-.2.3-.3.7-.2 1.1 0 .8 1 1.5 1 1.5l3.7-6.2a1.1 1.1 0 0 0 0-1c-.8-1.2-1.9-.8-1.9-.8L9.3 19Z"/></g><defs><clipPath id="a-ico-yellow-pages"><path fill="#fff" d="M0 0h25.5v28H0z"/></clipPath></defs></svg>