
<svg xmlns="http://www.w3.org/2000/svg" width="16" height="15.333" viewBox="0 0 16 15.333">
  <g id="Group_5" data-name="Group 5" transform="translate(0 -0.667)">
    <path id="ThumbsUp" d="M3.667,15.333h-2A1.669,1.669,0,0,1,0,13.667V8.333A1.669,1.669,0,0,1,1.667,6.666H5A.334.334,0,0,1,5.333,7v.127l.079-.041L7.333,2.928V.667A.331.331,0,0,1,7.458.406,2.091,2.091,0,0,1,8.667,0c.771,0,2,1.22,2,2.667a9.592,9.592,0,0,1-.531,2.667h4.118a1.724,1.724,0,0,1,1.739,1.511,1.667,1.667,0,0,1-.427,1.273,1.49,1.49,0,0,1-.389,2.383,1.5,1.5,0,0,1-.668,2,1.5,1.5,0,0,1,.121,1,1.534,1.534,0,0,1-1.511,1.164H7a4.367,4.367,0,0,1-1.765-.435A1.674,1.674,0,0,1,3.667,15.333Zm-2-8a1,1,0,0,0-1,1v5.333a1,1,0,0,0,1,1h2a1,1,0,0,0,1-1V7.333Zm7-6.666A1.4,1.4,0,0,0,8,.847V3a.341.341,0,0,1-.031.14l-2,4.334a.336.336,0,0,1-.154.157l-.482.241v5.641A3.426,3.426,0,0,0,7,14h6.119a.863.863,0,0,0,.859-.642.827.827,0,0,0-.241-.8.335.335,0,0,1-.088-.347.34.34,0,0,1,.279-.227.83.83,0,0,0,.738-.823.822.822,0,0,0-.263-.6.333.333,0,0,1,.191-.574.825.825,0,0,0,.283-1.559.335.335,0,0,1-.023-.581,1,1,0,0,0,.475-.943A1.053,1.053,0,0,0,14.254,6H9.667a.333.333,0,0,1-.274-.144.337.337,0,0,1-.037-.309l0-.008A10.141,10.141,0,0,0,10,2.667,2.2,2.2,0,0,0,8.667.667Z" transform="translate(0 0.667)" fill="#4b286d"/>
  </g>
</svg>
