<svg xmlns="http://www.w3.org/2000/svg" width="47" height="80" viewBox="0 0 47 80">
  <g id="Group" transform="translate(0 0)">
    <path id="Fill_47" data-name="Fill 47" d="M24.42,30a1.078,1.078,0,0,1-.5-.126L15.5,25.388,7.083,29.874a1.106,1.106,0,0,1-.5.125,1.061,1.061,0,0,1-.632-.206,1.1,1.1,0,0,1-.428-1.064l1.6-9.5L.325,12.5A1.1,1.1,0,0,1,.05,11.386a1.086,1.086,0,0,1,.867-.747l9.411-1.391,4.21-8.64A1.067,1.067,0,0,1,15.5,0a1.086,1.086,0,0,1,.966.607l4.2,8.64,9.415,1.391a1.074,1.074,0,0,1,.863.747,1.088,1.088,0,0,1-.268,1.111l-6.812,6.727,1.607,9.5a1.092,1.092,0,0,1-.425,1.064A1.054,1.054,0,0,1,24.42,30ZM15.5,23.069A1.066,1.066,0,0,1,16,23.2L23,26.918l-1.339-7.893a1.1,1.1,0,0,1,.3-.957l5.665-5.59L19.8,11.323a1.085,1.085,0,0,1-.813-.592L15.5,3.551l-3.495,7.179a1.064,1.064,0,0,1-.81.592L3.381,12.478l5.658,5.59a1.073,1.073,0,0,1,.305.957L8.008,26.918,15,23.2A1.016,1.016,0,0,1,15.5,23.069Z" transform="translate(8)" fill="#4b286d"/>
    <path id="Fill_48" data-name="Fill 48" d="M32.841,8H4.16A4.088,4.088,0,0,1,0,4,4.086,4.086,0,0,1,4.16,0H32.841A4.086,4.086,0,0,1,37,4,4.087,4.087,0,0,1,32.841,8ZM4.16,2.044A2,2,0,0,0,2.125,4,2,2,0,0,0,4.16,5.956H32.841A2,2,0,0,0,34.876,4a2,2,0,0,0-2.035-1.955Z" transform="translate(5 28)" fill="#4b286d"/>
    <path id="Fill_49" data-name="Fill 49" d="M42.772,8H4.228A4.124,4.124,0,0,1,0,4,4.123,4.123,0,0,1,4.228,0H42.772A4.122,4.122,0,0,1,47,4,4.124,4.124,0,0,1,42.772,8ZM4.228,2.044A2.015,2.015,0,0,0,2.162,4,2.016,2.016,0,0,0,4.228,5.956H42.772A2.018,2.018,0,0,0,44.843,4a2.017,2.017,0,0,0-2.07-1.955Z" transform="translate(0 72)" fill="#4b286d"/>
    <path id="Fill_50" data-name="Fill 50" d="M22.948,31H1.063A1.075,1.075,0,0,1,0,29.916V1.087A1.076,1.076,0,0,1,1.063,0H22.948A1.071,1.071,0,0,1,24,1.087V29.916A1.069,1.069,0,0,1,22.948,31ZM2.119,2.16V28.836H21.885V2.16Z" transform="translate(11 34)" fill="#4b286d"/>
    <path id="Fill_51" data-name="Fill 51" d="M36.92,12H1.081a1.058,1.058,0,0,1-.876-.464,1.1,1.1,0,0,1-.147-1L3.3.752A1.081,1.081,0,0,1,4.32,0H33.677A1.079,1.079,0,0,1,34.7.752l3.236,9.786a1.091,1.091,0,0,1-.142,1A1.049,1.049,0,0,1,36.92,12ZM5.1,2.215h0L2.586,9.786H35.411L32.9,2.215H5.1Z" transform="translate(4 62)" fill="#4b286d"/>
    <path id="Fill_52" data-name="Fill 52" d="M2,18A1.125,1.125,0,0,1,.82,16.927V1.073A1.13,1.13,0,0,1,2,0,1.133,1.133,0,0,1,3.18,1.073V16.927A1.128,1.128,0,0,1,2,18" transform="translate(16 47)" fill="#4b286d"/>
    <path id="Fill_53" data-name="Fill 53" d="M2,10A1.111,1.111,0,0,1,.818,8.962V1.031A1.11,1.11,0,0,1,2,0,1.117,1.117,0,0,1,3.182,1.031v7.93A1.117,1.117,0,0,1,2,10" transform="translate(27 54)" fill="#4b286d"/>
    <path id="Fill_54" data-name="Fill 54" d="M2,3.48A1.177,1.177,0,0,1,.82,2.3V1.7a1.18,1.18,0,1,1,2.36,0v.6A1.18,1.18,0,0,1,2,3.48" transform="translate(16 41)" fill="#4b286d"/>
  </g>
</svg>
