
<svg xmlns="http://www.w3.org/2000/svg" width="36" height="32" viewBox="0 0 36 32">
  <path id="Layers" d="M17.653,31.911.4,22.62a.785.785,0,0,1,0-1.372L2.911,19.9a.741.741,0,0,1,1.013.329.787.787,0,0,1-.318,1.045l-1.235.663L18,30.353l15.629-8.42L32.4,21.27a.787.787,0,0,1-.318-1.046A.743.743,0,0,1,33.09,19.9L35.6,21.246a.787.787,0,0,1,0,1.373l-17.25,9.292a.718.718,0,0,1-.693,0Zm0-6.095L.4,16.525a.786.786,0,0,1,0-1.373L2.911,13.8a.741.741,0,0,1,1.013.328.788.788,0,0,1-.318,1.046l-1.235.662L18,24.259l15.629-8.42L32.4,15.174a.786.786,0,0,1-.318-1.045A.743.743,0,0,1,33.09,13.8l2.507,1.35a.788.788,0,0,1,0,1.374l-17.25,9.292a.725.725,0,0,1-.693,0Zm0-6.094L.4,10.58a.767.767,0,0,1,0-1.35L17.653.087a.735.735,0,0,1,.695,0L35.6,9.229a.767.767,0,0,1,0,1.35l-17.25,9.143a.731.731,0,0,1-.693,0ZM2.372,9.9,18,18.19,33.629,9.9,18,1.62Z" fill="#2a2c2e"/>
</svg>
