<svg id="icon" xmlns="http://www.w3.org/2000/svg" width="24" height="24" viewBox="0 0 24 24">
  <path id="Clip_2" data-name="Clip 2" d="M0,0H24V24H0Z" fill="none"/>
  <path id="Fill_1" data-name="Fill 1" d="M9.145,24A6.055,6.055,0,0,1,7.5,23.773L4,22.787H.11a.11.11,0,0,1-.11-.11v-.791a.109.109,0,0,1,.11-.111H4.127a.109.109,0,0,1,.031,0L7.779,22.8a5.036,5.036,0,0,0,1.37.19,5.1,5.1,0,0,0,2.131-.47l9.145-4.252a1.023,1.023,0,0,0,.585-.92,1,1,0,0,0-.067-.357A1.019,1.019,0,0,0,20,16.34a1,1,0,0,0-.357.066L11,19.678a2.08,2.08,0,0,1-1.966-.256L7.1,18.035H4.865a.109.109,0,0,1-.111-.11v-.791a.11.11,0,0,1,.111-.11h5.35a.88.88,0,1,0,0-1.76H5.851a1.886,1.886,0,0,0-1.323.546l-.591.59a2.864,2.864,0,0,1-2.038.843H.11a.11.11,0,0,1-.11-.11v-.791a.109.109,0,0,1,.11-.11c.538,0,1.538-.005,1.872-.009v-7.8a1.3,1.3,0,0,1,1.3-1.3H7.034L13.324.843A2.868,2.868,0,0,1,15.363,0H23.89A.11.11,0,0,1,24,.11V.9a.111.111,0,0,1-.111.111H15.363a1.88,1.88,0,0,0-1.323.547L8.461,7.126H11.2a.11.11,0,0,1,.111.11v.792a.109.109,0,0,1-.111.11H3.275a.287.287,0,0,0-.286.287v7.456a1.757,1.757,0,0,0,.228-.2l.589-.589a2.892,2.892,0,0,1,.905-.611.631.631,0,0,0-.589-.409H3.676a.11.11,0,0,1-.11-.111V10.008a.11.11,0,0,1,.11-.11h.447a.633.633,0,0,0,.632-.633V8.821a.11.11,0,0,1,.111-.111H7.639a.11.11,0,0,1,.111.111v.791a.109.109,0,0,1-.111.11H5.7A1.643,1.643,0,0,1,4.58,10.846v2.283A1.672,1.672,0,0,1,5.7,14.253h.638v-.484a.109.109,0,0,1,.085-.106l1.346-.324.235-.565-.729-1.184a.111.111,0,0,1,.016-.135l1.4-1.4a.11.11,0,0,1,.136-.016l1.185.729.565-.234L10.9,9.19a.108.108,0,0,1,.106-.085h1.982a.111.111,0,0,1,.106.085l.324,1.347.566.234,1.185-.729a.107.107,0,0,1,.057-.016.113.113,0,0,1,.079.033l1.4,1.4a.111.111,0,0,1,.015.135l-.729,1.184.234.565,1.348.324a.109.109,0,0,1,.085.106v.484H18.3a1.675,1.675,0,0,1,1.125-1.124V10.846A1.675,1.675,0,0,1,18.3,9.722H16.359a.11.11,0,0,1-.11-.11V8.821a.11.11,0,0,1,.11-.111h2.774a.109.109,0,0,1,.11.111v.445a.634.634,0,0,0,.634.633h.446a.11.11,0,0,1,.11.11v3.958a.11.11,0,0,1-.11.111h-.446a.634.634,0,0,0-.634.633v.446a.11.11,0,0,1-.11.11H17.659v.484a.11.11,0,0,1-.085.106l-1.348.323-.215.52,3.262-1.236A2.038,2.038,0,0,1,21,15.6V8.425a.287.287,0,0,0-.285-.287H14.459a1.933,1.933,0,0,1-.879.214A1.905,1.905,0,0,1,12.238,5.1l2.973-2.97a.111.111,0,0,1,.157,0l.561.559a.115.115,0,0,1,0,.158L12.956,5.816a.894.894,0,0,0,1.264,1.264l2.692-2.687a.106.106,0,0,1,.077-.032h2.938a.109.109,0,0,1,.11.11v.792a.11.11,0,0,1-.11.11H17.361L15.6,7.132H20.5l.81-.81a1.3,1.3,0,0,1,.921-.378H23.89a.11.11,0,0,1,.111.11v.792a.11.11,0,0,1-.111.11H22.245a.286.286,0,0,0-.205.081l-.435.435a1.3,1.3,0,0,1,.418.954v8.923a2.056,2.056,0,0,1-1.172,1.837L11.7,23.435A6.123,6.123,0,0,1,9.145,24Zm-.306-5.965.778.558a1.049,1.049,0,0,0,.628.208,1.067,1.067,0,0,0,.382-.071L15,17.069l-.123-.2a.107.107,0,0,1-.007-.1l.584-1.41a.1.1,0,0,1,.076-.066l1.1-.261v-.554l-1.1-.261a.107.107,0,0,1-.076-.066l-.584-1.41a.1.1,0,0,1,.007-.1l.592-.971-.391-.392-.971.593a.1.1,0,0,1-.056.017.111.111,0,0,1-.044-.009L12.6,11.3a.1.1,0,0,1-.064-.076l-.264-1.1h-.554l-.261,1.1a.106.106,0,0,1-.066.076l-1.411.584a.107.107,0,0,1-.044.009.1.1,0,0,1-.056-.017L8.9,11.281l-.392.392.593.971a.1.1,0,0,1,.007.1l-.585,1.41a.106.106,0,0,1-.076.065l-.148.036H9.97A2.091,2.091,0,1,1,12,16.848h-.024a1.916,1.916,0,0,1-1.76,1.188ZM12,13.681a1.078,1.078,0,0,0-.557.156,1.061,1.061,0,0,0-.461.575,1.9,1.9,0,0,1,1.105,1.421,1.1,1.1,0,0,0,.963-.817,1.071,1.071,0,0,0-.79-1.3A1.094,1.094,0,0,0,12,13.681Z" fill="#2a2c2e"/>
</svg>
