<svg id="Group_26" data-name="Group 26" xmlns="http://www.w3.org/2000/svg" xmlns:xlink="http://www.w3.org/1999/xlink" width="64" height="64" viewBox="0 0 64 64">
  <defs>
    <clipPath id="clip-path">
      <path id="Clip_16" data-name="Clip 16" d="M0,0H61V33H0Z" fill="none"/>
    </clipPath>
  </defs>
  <path id="Fill_1" data-name="Fill 1" d="M31.547,33A31.667,31.667,0,0,1,0,1.286a1.279,1.279,0,1,1,2.558,0A29.1,29.1,0,0,0,31.547,30.428,28.842,28.842,0,0,0,58.53,11.958a1.28,1.28,0,1,1,2.38.944A31.385,31.385,0,0,1,31.547,33" transform="translate(0 31)"/>
  <path id="Fill_3" data-name="Fill 3" d="M8.752,9a1.263,1.263,0,0,1-1.181-.925L6.039,3.153,1.69,4.976A1.214,1.214,0,0,1,.083,4.183,1.408,1.408,0,0,1,.8,2.419L6.355.09a1.158,1.158,0,0,1,.976.038,1.347,1.347,0,0,1,.651.8L9.933,7.187a1.409,1.409,0,0,1-.777,1.74,1.2,1.2,0,0,1-.4.073" transform="translate(54 41)"/>
  <path id="Fill_5" data-name="Fill 5" d="M44.331,28H7.669a7.577,7.577,0,0,1-5.791-2.721,8.1,8.1,0,0,1-1.8-6.321,7.9,7.9,0,0,1,5.142-6.331A7.281,7.281,0,0,1,7.641,12.2l.157,0a9.023,9.023,0,0,1,.142-2.544,8.629,8.629,0,0,1,6.991-6.887,8.332,8.332,0,0,1,5.051.77A7.719,7.719,0,0,1,22.708.955,7.384,7.384,0,0,1,26.317,0a7.6,7.6,0,0,1,7.137,5.208,6.66,6.66,0,0,1,2.108-.776,7.466,7.466,0,0,1,5.879,1.328A6.936,6.936,0,0,1,44.205,10.5a7.549,7.549,0,0,1,.016,1.708l.051,0h.12a7.189,7.189,0,0,1,1.618.192,7.874,7.874,0,0,1,5.953,6.9,8.089,8.089,0,0,1-1.947,6.1A7.583,7.583,0,0,1,44.331,28ZM7.669,14.836a4.871,4.871,0,0,0-1.626.283,5.262,5.262,0,0,0-3.437,4.209,5.338,5.338,0,0,0,1.2,4.226,5.056,5.056,0,0,0,3.864,1.815H44.331a5.073,5.073,0,0,0,3.793-1.732,5.35,5.35,0,0,0,1.3-4.08,5.247,5.247,0,0,0-3.964-4.6,5.048,5.048,0,0,0-1.124-.129,4.953,4.953,0,0,0-1.469.225,1.246,1.246,0,0,1-.365.055,1.263,1.263,0,0,1-.96-.447,1.357,1.357,0,0,1-.211-1.4,4.6,4.6,0,0,0,.343-2.431,4.33,4.33,0,0,0-1.726-2.944A4.963,4.963,0,0,0,37,6.924a5.078,5.078,0,0,0-.962.092,3.428,3.428,0,0,0-2.37,1.5A1.265,1.265,0,0,1,32.6,9.1a1.237,1.237,0,0,1-.367-.056,1.3,1.3,0,0,1-.908-1.258,5.092,5.092,0,0,0-5.009-5.159A4.961,4.961,0,0,0,21.81,5.551a1.68,1.68,0,0,1-1.029.9,1.576,1.576,0,0,1-.448.065,1.6,1.6,0,0,1-.88-.265,5.715,5.715,0,0,0-3.17-.954,5.924,5.924,0,0,0-5.839,4.9,6.2,6.2,0,0,0,.184,3.17,1.337,1.337,0,0,1-.292,1.322,1.258,1.258,0,0,1-.92.408,1.222,1.222,0,0,1-.351-.052A4.951,4.951,0,0,0,7.669,14.836Z" transform="translate(5 13)"/>
  <path id="Fill_7" data-name="Fill 7" d="M2.33,4A4.823,4.823,0,0,1,.9,3.772,1.239,1.239,0,0,1,.062,2.2a1.294,1.294,0,0,1,1.619-.81C3,1.8,3.446.944,3.521.767A1.3,1.3,0,0,1,5.205.1a1.237,1.237,0,0,1,.7,1.635A3.914,3.914,0,0,1,2.33,4" transform="translate(27 23)"/>
  <path id="Fill_9" data-name="Fill 9" d="M3.657,5a4.63,4.63,0,0,1-3.1-1.415A2.713,2.713,0,0,1,.231.8,1.411,1.411,0,0,1,1.918.05a1.115,1.115,0,0,1,.9,1.418.971.971,0,0,0-.017.858,1.733,1.733,0,0,0,1,.413A1.206,1.206,0,0,1,4.992,3.987,1.28,1.28,0,0,1,3.657,5" transform="translate(37 28)"/>
  <path id="Fill_11" data-name="Fill 11" d="M1.253,8A1.2,1.2,0,0,1,.245,7.427,1.518,1.518,0,0,1,.511,5.461c1.281-1.061.945-3.81.942-3.839A1.4,1.4,0,0,1,2.5.016,1.281,1.281,0,0,1,3.925,1.18c.025.178.605,4.444-1.931,6.545A1.156,1.156,0,0,1,1.253,8" transform="translate(18 25)"/>
  <path id="Fill_13" data-name="Fill 13" d="M6.692,3.58H1.308A1.464,1.464,0,0,1,0,2,1.464,1.464,0,0,1,1.308.42H6.692A1.464,1.464,0,0,1,8,2,1.464,1.464,0,0,1,6.692,3.58" transform="translate(25 32)"/>
  <g id="Group_17" data-name="Group 17" transform="translate(3)">
    <path id="Clip_16-2" data-name="Clip 16" d="M0,0H61V33H0Z" fill="none"/>
    <g id="Group_17-2" data-name="Group 17" clip-path="url(#clip-path)">
      <path id="Fill_15" data-name="Fill 15" d="M59.721,33a1.283,1.283,0,0,1-1.279-1.286A28.972,28.972,0,0,0,2.47,21.039a1.272,1.272,0,0,1-1.658.726A1.287,1.287,0,0,1,.089,20.1,31.528,31.528,0,0,1,61,31.714,1.283,1.283,0,0,1,59.721,33" transform="translate(0 0)"/>
    </g>
  </g>
  <path id="Fill_18" data-name="Fill 18" d="M3.2,9a1.155,1.155,0,0,1-.53-.128,1.347,1.347,0,0,1-.65-.8L.067,1.812A1.411,1.411,0,0,1,.843.072,1.23,1.23,0,0,1,2.428.928L3.959,5.846l4.348-1.82a1.215,1.215,0,0,1,1.61.79A1.412,1.412,0,0,1,9.2,6.584L3.644,8.91A1.176,1.176,0,0,1,3.2,9" transform="translate(0 13)"/>
  <path id="Fill_20" data-name="Fill 20" d="M31.692,3.58H1.308A1.462,1.462,0,0,1,0,2,1.462,1.462,0,0,1,1.308.42H31.692A1.464,1.464,0,0,1,33,2a1.464,1.464,0,0,1-1.308,1.58" transform="translate(15 43)"/>
  <path id="Fill_22" data-name="Fill 22" d="M2.349,6a1.769,1.769,0,0,1-1.292-.51C-.807,3.48.537.865.6.755A1.779,1.779,0,0,1,2.653.087c.8.247,1.2.946.876,1.562,0,.015-.744,1.532.108,2.45a1.035,1.035,0,0,1-.376,1.678A1.893,1.893,0,0,1,2.349,6" transform="translate(23 17)"/>
  <path id="Fill_24" data-name="Fill 24" d="M1.4,5a1.369,1.369,0,0,1-.555-.114A1.345,1.345,0,0,1,.116,3.1,6.687,6.687,0,0,1,2.948.159,1.418,1.418,0,0,1,4.836.72a1.339,1.339,0,0,1-.573,1.835A4.053,4.053,0,0,0,2.679,4.18,1.4,1.4,0,0,1,1.4,5" transform="translate(45 26)"/>
</svg>
