<svg width="26" height="27" viewBox="0 0 26 27" fill="none" xmlns="http://www.w3.org/2000/svg">
<path fill-rule="evenodd" clip-rule="evenodd" d="M24.7365 25.7527C25.2096 25.2599 25.2096 24.461 24.7365 23.9682L15.0215 13.8484C18.2278 10.4416 22.953 5.11284 24.8014 3.01915C25.2408 2.52147 25.2214 1.75547 24.7624 1.27737C24.2886 0.783845 23.5204 0.783845 23.0467 1.27737L13 11.7427L2.95332 1.27737C2.47954 0.783845 1.71138 0.783845 1.23759 1.27737C0.778618 1.75547 0.759228 2.52147 1.19859 3.01915C3.04695 5.11284 7.77222 10.4416 10.9784 13.8484L1.26347 23.9682C0.790393 24.461 0.790393 25.2599 1.26347 25.7527C1.72277 26.2312 2.46107 26.2483 2.93816 25.7892C4.93101 23.8711 9.9546 19.0205 13 15.9424C16.0454 19.0205 21.069 23.8711 23.0618 25.7892C23.5389 26.2483 24.2772 26.2312 24.7365 25.7527Z" fill="#2A2C2E"/>
<mask id="mask0_127_47059" style="mask-type:alpha" maskUnits="userSpaceOnUse" x="0" y="0" width="26" height="27">
<path fill-rule="evenodd" clip-rule="evenodd" d="M24.7365 25.7527C25.2096 25.2599 25.2096 24.461 24.7365 23.9682L15.0215 13.8484C18.2278 10.4416 22.953 5.11284 24.8014 3.01915C25.2408 2.52147 25.2214 1.75547 24.7624 1.27737C24.2886 0.783845 23.5204 0.783845 23.0467 1.27737L13 11.7427L2.95332 1.27737C2.47954 0.783845 1.71138 0.783845 1.23759 1.27737C0.778618 1.75547 0.759228 2.52147 1.19859 3.01915C3.04695 5.11284 7.77222 10.4416 10.9784 13.8484L1.26347 23.9682C0.790393 24.461 0.790393 25.2599 1.26347 25.7527C1.72277 26.2312 2.46107 26.2483 2.93816 25.7892C4.93101 23.8711 9.9546 19.0205 13 15.9424C16.0454 19.0205 21.069 23.8711 23.0618 25.7892C23.5389 26.2483 24.2772 26.2312 24.7365 25.7527Z" fill="white"/>
</mask>
<g mask="url(#mask0_127_47059)">
<rect x="1" y="1" width="24" height="25" fill="#4B286D"/>
</g>
</svg>
