
<svg id="Group_5" data-name="Group 5" xmlns="http://www.w3.org/2000/svg" width="38" height="38" viewBox="0 0 38 38">
  <g id="Group">
    <g id="Oval" fill="none" stroke-miterlimit="10">
      <path d="M19,38A19,19,0,1,0,0,19,19,19,0,0,0,19,38Z" stroke="none"/>
      <path d="M 19 36 C 23.54085922241211 36 27.80994033813477 34.231689453125 31.02082061767578 31.02082061767578 C 34.231689453125 27.80994033813477 36 23.54085922241211 36 19 C 36 14.44657039642334 34.22327041625977 10.16909980773926 30.99711036682129 6.955540180206299 C 27.78897094726562 3.759910106658936 23.52831077575684 2 19 2 C 14.45913982391357 2 10.19005966186523 3.768310070037842 6.979179859161377 6.979179859161377 C 3.768310070037842 10.19005966186523 2 14.45913982391357 2 19 C 2 23.54085922241211 3.768310070037842 27.80994033813477 6.979179859161377 31.02082061767578 C 10.19005966186523 34.231689453125 14.45913982391357 36 19 36 M 19 38 C 8.506589889526367 38 0 29.49341011047363 0 19 C 0 8.506589889526367 8.506589889526367 0 19 0 C 24.2332592010498 0 28.97234916687012 2.115760087966919 32.40856170654297 5.538559913635254 C 35.8624382019043 8.978949546813965 38 13.73985004425049 38 19 C 38 29.49341011047363 29.49341011047363 38 19 38 Z" stroke="none" fill="#4b286d"/>
    </g>
    <text id="_" data-name="?" transform="translate(12 5)" fill="#4b286d" font-size="24" font-family="HelveticaNeue, Helvetica Neue"><tspan x="0" y="23">?</tspan></text>
  </g>
</svg>
