
<svg id="_1._Elements_Icons_Chevron_-_down" data-name="1. Elements/Icons/Chevron - down" xmlns="http://www.w3.org/2000/svg" width="24" height="24" viewBox="0 0 24 24">
  <g id="Group" transform="translate(0 3)">
    <path id="Shape" d="M3.146,17.853a.5.5,0,0,1,0-.707l17-17a.5.5,0,1,1,.707.707L17.929,3.777a24.641,24.641,0,0,1,5.951,4.9.5.5,0,0,1,0,.646C23.651,9.595,18.161,16,12,16a12.405,12.405,0,0,1-5.139-1.154L3.853,17.853a.5.5,0,0,1-.707,0ZM12,15c4.945,0,9.636-4.709,10.828-6a23.836,23.836,0,0,0-5.634-4.487L15.16,6.546A3.965,3.965,0,0,1,16,9a4,4,0,0,1-6.453,3.16L7.62,14.086A11.3,11.3,0,0,0,12,15Zm0-3a3,3,0,0,0,2.446-4.739l-4.184,4.184A2.973,2.973,0,0,0,12,12ZM4.677,13.634A18.554,18.554,0,0,1,.09,9.285a.5.5,0,0,1,.028-.609C.349,8.4,5.839,2,12,2a10.342,10.342,0,0,1,3.281.576.5.5,0,0,1,.314.634.494.494,0,0,1-.634.314A9.343,9.343,0,0,0,12,3C7.019,3,2.3,7.776,1.146,9.026A18.3,18.3,0,0,0,5.229,12.8a.5.5,0,0,1-.276.916A.485.485,0,0,1,4.677,13.634ZM8.07,9.7A3.883,3.883,0,0,1,8,9a4,4,0,0,1,4-4,4.045,4.045,0,0,1,.7.068.5.5,0,0,1-.175.985A2.926,2.926,0,0,0,12,6,3,3,0,0,0,9,9a2.934,2.934,0,0,0,.054.523.5.5,0,0,1-.4.58.493.493,0,0,1-.088.007A.5.5,0,0,1,8.07,9.7Z" fill="#2a2c2e"/>
  </g>
</svg>
