<svg xmlns="http://www.w3.org/2000/svg" fill="none" viewBox="0 0 48 48" width="48" height="48">
  <path stroke="#4B286D" stroke-linecap="round" stroke-linejoin="round" stroke-width="1.75" d="M30.4 26.4H16.2l-9 8v-8H4v0a3.2 3.2 0 0 1-3.2-3.2V4v0A3.2 3.2 0 0 1 4 .8h27.2v0A3.2 3.2 0 0 1 34.4 4v18.4a4 4 0 0 1-4 4v0Z"/>
  <path stroke="#4B286D" stroke-linecap="round" stroke-linejoin="round" stroke-width="1.75" d="M37.6 13.6H44a3.2 3.2 0 0 1 3.2 3.2v18.4c0 2.2-1.8 4-4 4h-2.4v8l-8-8H15.2c-1.65 0-3.1-.87-3.8-2.15"/>
</svg>
