<svg xmlns="http://www.w3.org/2000/svg" fill="none" viewBox="0 0 34 32" width="33" height="32"><path fill="currentColor" fill-rule="evenodd" d="M18.6 30.7c.4 0 .7.3.7.6 0 .4-.3.7-.7.7h-4.1a.7.7 0 0 1-.7-.7c0-.3.3-.6.7-.6h4ZM20 28c.3 0 .6.3.6.7 0 .3-.3.6-.6.6h-7a.7.7 0 0 1-.6-.6c0-.4.3-.7.7-.7H20Zm0-2.7c.3 0 .6.3.6.7 0 .4-.3.7-.6.7h-7a.7.7 0 0 1-.6-.7c0-.4.3-.7.7-.7H20ZM16.5 0c6 0 11 4.8 11 10.7 0 2.5-1.5 4.7-3 6.7l-.4.6-.8 1a6 6 0 0 0-1 2.4 3.4 3.4 0 0 1-3.4 2.6h-4.8c-1.5 0-2.8-1-3.2-2.4v-.2A6 6 0 0 0 9.7 19l-.4-.6-1-1.1c-1.4-2-2.9-4.2-2.9-6.7 0-6 5-10.7 11-10.7Zm0 1.3A9.5 9.5 0 0 0 7 10.7c0 2 1.1 3.8 2.4 5.5l.8 1 .8 1c.6.9 1 1.8 1.3 2.9a2 2 0 0 0 1.9 1.6h4.8a2 2 0 0 0 2-1.6c.2-1 .6-2 1.3-2.8l.4-.6 1.1-1.5c1.3-1.7 2.5-3.5 2.5-5.5 0-5.2-4.4-9.4-9.7-9.4Z" clip-rule="evenodd"/></svg>