<svg xmlns="http://www.w3.org/2000/svg" fill="none" viewBox="0 0 28 28" width="28" height="28"><g fill-rule="evenodd" clip-path="url(#a-ico-google)" clip-rule="evenodd"><path fill="#4285F4" d="M27.2 11.5H14v5.4h7.5a6.4 6.4 0 0 1-2.8 4.2l4.6 3.5a13.6 13.6 0 0 0 4.1-10.3c0-1 0-1.9-.2-2.8Z"/><path fill="#34A853" d="M18.7 21.1a8.4 8.4 0 0 1-12.5-4.4l-4.7 3.6A14 14 0 0 0 14 28c3.4.1 6.7-1 9.3-3.4l-4.6-3.5Z"/><path fill="#FBBC05" d="M1.5 7.7a14 14 0 0 0 0 12.6l4.7-3.6a8.2 8.2 0 0 1 0-5.4L1.5 7.7Z"/><path fill="#EA4335" d="M14 5.6c2 0 4 .7 5.4 2l4-4a14 14 0 0 0-21.9 4l4.7 3.8A8.3 8.3 0 0 1 14 5.6Z"/></g><defs><clipPath id="a-ico-google"><path fill="#fff" d="M0 0h28v28H0z"/></clipPath></defs></svg>