<svg width="48" height="48" viewBox="0 0 48 48" fill="none" xmlns="http://www.w3.org/2000/svg">
<path fill-rule="evenodd" clip-rule="evenodd" d="M29.706 42.7063L47.706 24.7063C47.798 24.6143 47.872 24.5023 47.922 24.3803C47.952 24.3103 47.954 24.2383 47.966 24.1643C47.976 24.1083 48 24.0583 48 23.9983C48 23.9223 47.972 23.8563 47.956 23.7843C47.944 23.7303 47.946 23.6743 47.924 23.6223C47.872 23.4963 47.796 23.3823 47.702 23.2883L29.706 5.29225C29.316 4.90425 28.682 4.90425 28.292 5.29225C27.902 5.68225 27.902 6.31825 28.292 6.70625L44.586 22.9983L0.999999 22.9982C0.448001 22.9982 -8.06344e-07 23.4482 -8.30385e-07 23.9982C-8.54514e-07 24.5502 0.448001 24.9982 0.999999 24.9982L44.586 24.9983L28.292 41.2923C28.098 41.4882 28 41.7443 28 41.9983C28 42.2543 28.098 42.5103 28.292 42.7063C28.682 43.0963 29.316 43.0963 29.706 42.7063Z" fill="#4B286D"/>
</svg>
