<svg width="38" height="38" viewBox="0 0 38 38" fill="none" xmlns="http://www.w3.org/2000/svg">
<path fill-rule="evenodd" clip-rule="evenodd" d="M36.986 21.951C35.9077 10.5501 27.4504 2.09236 16.0499 1.01396C14.6105 0.877393 13.259 1.75487 12.785 3.12054L1 37L34.8796 25.216C36.2452 24.742 37.1226 23.3904 36.986 21.951Z" stroke="#4B286D" stroke-width="1.5" stroke-linecap="round" stroke-linejoin="round"/>
<path d="M15.1758 5.6748C24.3128 6.45182 31.5913 13.7526 32.3322 22.901" stroke="#4B286D" stroke-width="1.5" stroke-linecap="round" stroke-linejoin="round"/>
<path d="M27.6701 27.7239C27.6717 27.6752 27.6842 27.6313 27.6842 27.5826C27.6842 24.1151 24.873 21.3037 21.4056 21.3037C17.9382 21.3037 15.127 24.1151 15.127 27.5826C15.127 29.1084 15.6936 30.4866 16.5977 31.576" stroke="#4B286D" stroke-width="1.5" stroke-linecap="round" stroke-linejoin="round"/>
<path d="M8.84961 33.8613C8.84961 31.2602 6.74155 29.1521 4.14062 29.1521" stroke="#4B286D" stroke-width="1.5" stroke-linecap="round" stroke-linejoin="round"/>
<path d="M6.75 20.4678C7.58977 20.989 8.57238 21.3029 9.6319 21.3029C12.6661 21.3029 15.1257 18.8431 15.1257 15.8088C15.1257 12.9896 12.9941 10.6931 10.2598 10.3792" stroke="#4B286D" stroke-width="1.5" stroke-linecap="round" stroke-linejoin="round"/>
</svg>
