<svg width="36" height="36" viewBox="0 0 36 36" fill="none" xmlns="http://www.w3.org/2000/svg">
<path fill-rule="evenodd" clip-rule="evenodd" d="M15.4965 1.5H20.5045H25.2407C25.3682 1.5 25.4922 1.544 25.5923 1.62274L34.2821 8.57011C34.5143 8.75537 34.5689 9.09 34.4073 9.34126L18.4773 34.236C18.3715 34.4004 18.1917 34.5 17.9994 34.5C17.8071 34.5 17.6274 34.4004 17.5227 34.236L1.59269 9.34126C1.43112 9.09 1.48574 8.75537 1.71786 8.57011L10.4077 1.62274C10.5078 1.544 10.6307 1.5 10.7593 1.5H15.4965ZM3.81688 8.62466H10.6468C10.6602 8.59212 10.6766 8.56068 10.6961 8.53077L14.31 2.875H10.977L3.81688 8.62466ZM11.9863 8.62466L15.6603 2.875H20.3399L24.0136 8.62466H11.9863ZM21.6903 2.875L25.3045 8.53052C25.3238 8.56046 25.3401 8.592 25.3533 8.62466H32.1831L25.023 2.875H21.6903ZM25.0723 10.1247H32.6513L19.517 30.7435L25.0723 10.1247ZM16.4808 30.74L10.927 10.1247H3.34871L16.4808 30.74ZM18 32.0184L12.1023 10.1247H23.8984L18 32.0184Z" fill="#4B286D"/>
<mask id="mask0_901_27015" style="mask-type:alpha" maskUnits="userSpaceOnUse" x="1" y="1" width="34" height="34">
<path fill-rule="evenodd" clip-rule="evenodd" d="M15.4965 1.5H20.5045H25.2407C25.3682 1.5 25.4922 1.544 25.5923 1.62274L34.2821 8.57011C34.5143 8.75537 34.5689 9.09 34.4073 9.34126L18.4773 34.236C18.3715 34.4004 18.1917 34.5 17.9994 34.5C17.8071 34.5 17.6274 34.4004 17.5227 34.236L1.59269 9.34126C1.43112 9.09 1.48574 8.75537 1.71786 8.57011L10.4077 1.62274C10.5078 1.544 10.6307 1.5 10.7593 1.5H15.4965ZM3.81688 8.62466H10.6468C10.6602 8.59212 10.6766 8.56068 10.6961 8.53077L14.31 2.875H10.977L3.81688 8.62466ZM11.9863 8.62466L15.6603 2.875H20.3399L24.0136 8.62466H11.9863ZM21.6903 2.875L25.3045 8.53052C25.3238 8.56046 25.3401 8.592 25.3533 8.62466H32.1831L25.023 2.875H21.6903ZM25.0723 10.1247H32.6513L19.517 30.7435L25.0723 10.1247ZM16.4808 30.74L10.927 10.1247H3.34871L16.4808 30.74ZM18 32.0184L12.1023 10.1247H23.8984L18 32.0184Z" fill="white"/>
</mask>
<g mask="url(#mask0_901_27015)">
</g>
</svg>
