
<svg xmlns="http://www.w3.org/2000/svg" width="70.001" height="62.222" viewBox="0 0 70.001 62.222">
  <path id="Combined_Shape_Copy" data-name="Combined Shape Copy" d="M42.193,62.222l-2.1-1.2L55.875,33.872,43.257,26.64l-5.505,9.468-2.1-1.205L41.761,24.39a1.218,1.218,0,0,1,1.659-.441l1.052.6.962-1.656-2.26-8.375A3.788,3.788,0,0,1,50.5,12.573l.3,1.106,2.785-4.788a4.882,4.882,0,0,1,6.634-1.765l7.361,4.22a4.807,4.807,0,0,1,1.778,6.586l-3.5,6.011a13.486,13.486,0,0,1-7.8,6.174l-.969,1.667,1.051.6a1.2,1.2,0,0,1,.445,1.647L42.195,62.222h0Zm3.674-49.638a1.344,1.344,0,0,0-.347,1.313l2.39,8.858a1.189,1.189,0,0,1-.122.914l-1.214,2.088,8.412,4.822L56.2,28.491a1.205,1.205,0,0,1,.737-.562,11.213,11.213,0,0,0,6.815-5.191l3.495-6.011a2.4,2.4,0,0,0-.888-3.294L59,9.214a2.439,2.439,0,0,0-3.317.882l-4.25,7.309a1.219,1.219,0,0,1-1.051.6,1.352,1.352,0,0,1-.159-.01,1.208,1.208,0,0,1-1.014-.883L48.15,13.2a1.364,1.364,0,0,0-2.283-.614ZM28.089,62.056A4.869,4.869,0,0,1,25.131,59.8l-3.506-6.028a13.37,13.37,0,0,1-1.492-9.82l-.972-1.672-1.055.6a1.222,1.222,0,0,1-.609.162,1.2,1.2,0,0,1-.315-.041,1.223,1.223,0,0,1-.74-.563L0,14.171l2.11-1.209L17.942,40.188,30.6,32.934,25.009,23.32l2.11-1.209,6.2,10.661a1.2,1.2,0,0,1-.445,1.652l-1.055.6.966,1.66,8.462,2.251a3.776,3.776,0,1,1-1.968,7.291l-1.117-.3,2.793,4.8A4.824,4.824,0,0,1,39.17,57.34l-7.384,4.232a4.861,4.861,0,0,1-2.428.65A4.956,4.956,0,0,1,28.089,62.056ZM21.27,41.073l1.219,2.094a1.211,1.211,0,0,1,.122.917,11.1,11.1,0,0,0,1.125,8.48l3.506,6.028a2.444,2.444,0,0,0,3.327.886l7.384-4.232a2.411,2.411,0,0,0,.89-3.3l-4.262-7.33a1.2,1.2,0,0,1,.088-1.34,1.223,1.223,0,0,1,1.282-.432l3.958,1.053a1.357,1.357,0,1,0,.707-2.619l-8.949-2.381a1.209,1.209,0,0,1-.74-.563l-1.218-2.094ZM49.254,35.58l1.208-2.092L52.555,34.7l-1.208,2.093Zm-31.779-.887,2.093-1.209,1.208,2.093-2.093,1.208Zm-.468-9.544a3.761,3.761,0,0,1-1.679-6.286l.806-.808h-5.5a4.821,4.821,0,0,1-4.8-4.815V4.815A4.819,4.819,0,0,1,10.632,0h6.944a13.331,13.331,0,0,1,9.138,3.611h1.915v-1.2a1.2,1.2,0,0,1,1.2-1.2H62.222V3.611H31.028V18.056h10.8v2.407h-12a1.2,1.2,0,0,1-1.2-1.2v-1.2h-1.9l-6.1,6.122a3.738,3.738,0,0,1-3.617.972ZM8.232,4.815v8.426a2.411,2.411,0,0,0,2.4,2.408h8.4a1.2,1.2,0,0,1,.848,2.055l-2.854,2.863a1.356,1.356,0,0,0,0,1.909,1.341,1.341,0,0,0,1.9,0L25.381,16a1.208,1.208,0,0,1,.848-.353h2.4V6.018h-2.4a1.211,1.211,0,0,1-.848-.352A11.071,11.071,0,0,0,17.57,2.408H10.632A2.411,2.411,0,0,0,8.232,4.815ZM33.7,8.426V5.834H36.3V8.426Z" fill="#2b8000"/>
</svg>
