<svg width="16" height="16" viewBox="0 0 16 16" fill="none" xmlns="http://www.w3.org/2000/svg">
<path fill-rule="evenodd" clip-rule="evenodd" d="M0 8C0 3.584 3.584 0 8 0C12.416 0 16 3.584 16 8C16 12.416 12.416 16 8 16C3.584 16 0 12.416 0 8ZM6.50149 11.7387C6.52927 11.7132 6.55387 11.685 6.57501 11.6545L12.7622 4.7968C12.9487 4.59004 12.9454 4.26102 12.7552 4.05708C12.5602 3.84803 12.2437 3.84771 12.0497 4.05571L6.03855 10.5001L3.94845 8.25936C3.75677 8.05386 3.43815 8.05303 3.24552 8.25955C3.05608 8.46264 3.05119 8.79173 3.23326 9.00209L5.66424 11.8108C5.76394 11.926 5.90587 11.9885 6.05281 11.9853C6.18587 11.992 6.3222 11.9347 6.42115 11.825L6.49046 11.7482L6.50149 11.7387Z" fill="#2B8000"/>
</svg>
