<svg xmlns="http://www.w3.org/2000/svg" fill="none" viewBox="0 0 34 32" width="33" height="32"><path fill="currentColor" fill-rule="evenodd" d="M20.8 4.2c1.3 0 1.8.3 2.5.8l.2.2h.2c2 0 3.2 2 3.2 6v.5c0 4.7 1.8 6.1 1.8 6.2a.7.7 0 0 1 0 1v.1c-.1 0-1.3.7-3.7 1.2h-.4l.2.5 3.7 1c2.7.6 4.5 2.8 4.5 5.4 0 .3-.2.6-.6.7h-5.5a.7.7 0 0 1-.7-.7c0-.3.2-.6.5-.7h4.8a4.3 4.3 0 0 0-3-3.3l-.3-.1-4.2-1a.7.7 0 0 1-.5-.4v-.1l-.4-1.7v-.5l.6-.3a16 16 0 0 0 3.4-.8c-.6-1-1.5-2.8-1.6-6.1v-.8c0-1.6-.3-4.5-1.7-4.7h-.6c-.2 0-.4 0-.5-.2l-.3-.3c-.4-.4-.7-.5-1.4-.5-.3 0-.6 0-.7-.3a.7.7 0 0 1 0-.7c0-.2.3-.4.5-.4Zm-5.7 0c1.8 0 3.2.6 4 1.8 1 1.5.6 2.5 0 3.2H19l-.3.4-.1 1.5.6.5c.2.3.4.7.4 1v.2l-.3 2c0 .6-.5 1.1-1.1 1.3a6.8 6.8 0 0 1-1.7 3.4l-.2.2.2 1 3.8 1c2.6.6 4.5 2.8 4.5 5.4 0 .3-.3.6-.6.7H.7A.7.7 0 0 1 0 27c0-2.5 1.7-4.7 4.2-5.4h.3l3.8-1 .2-1c-.9-1-1.5-2.3-1.8-3.5-.6-.2-1-.7-1.2-1.3v-.1l-.3-2c0-.4.1-.9.4-1.3l.7-.4-.2-1v-.8c0-1.9.6-4 5-4.1 1.6-1 3.3-1 4-1Zm0 1.4c-1 0-2.2.1-3.3.9h-.4c-3.6.1-3.9 1.3-3.9 2.8l.3 2.3c0 .2 0 .4-.2.5-.1.2-.3.3-.6.3h-.3v.2l.2 2 .2.2H7.4c.3 0 .6.3.7.7 0 1.2.7 2.5 1.7 3.4l.3.6-.6 2c0 .2-.2.4-.4.4l-4.3 1c-1.6.5-2.9 1.7-3.3 3.2v.3h21.8a4.3 4.3 0 0 0-3-3.4H20l-4.2-1a.7.7 0 0 1-.5-.4v-.1l-.5-1.8c0-.3 0-.5.2-.7 1-.9 1.7-2.2 1.8-3.5 0-.4.3-.6.6-.7h.1l.4-.1v-.1l.2-2v-.1l-.3-.1-.5-.2a.7.7 0 0 1-.2-.4v-.2l.2-2.4V9l.2-.1.5-.5c.3-.3.5-.7-.1-1.5-.5-.8-1.5-1.2-2.8-1.2Z" clip-rule="evenodd"/></svg>