<svg xmlns="http://www.w3.org/2000/svg" fill="none" viewBox="0 0 36 48" width="36" height="48">
  <mask id="a" fill="#fff">
    <path d="M6 36.8a2.4 2.4 0 1 0 0 4.8 2.4 2.4 0 0 0 0-4.8ZM6 40a.8.8 0 1 1 0-1.6.8.8 0 0 1 0 1.6Zm0-11.2a2.4 2.4 0 1 0 0 4.8 2.4 2.4 0 0 0 0-4.8ZM6 32a.8.8 0 1 1 0-1.6.8.8 0 0 1 0 1.6ZM32.82 4.8h-5.3a4.01 4.01 0 0 0-3.92-3.2h-2.84a3.2 3.2 0 0 0-5.52 0H12.4a4.01 4.01 0 0 0-3.92 3.2h-5.3A2.78 2.78 0 0 0 .4 7.58v37.64A2.78 2.78 0 0 0 3.17 48h29.65a2.78 2.78 0 0 0 2.78-2.78V7.58a2.78 2.78 0 0 0-2.78-2.78ZM10 5.6a2.4 2.4 0 0 1 2.4-2.4h3.34a.8.8 0 0 0 .76-.53A1.6 1.6 0 0 1 18 1.6c.67 0 1.27.43 1.5 1.07a.8.8 0 0 0 .75.53h3.35A2.4 2.4 0 0 1 26 5.6v.8H10v-.8Zm24 39.62c0 .65-.53 1.18-1.18 1.18H3.17c-.64 0-1.17-.53-1.17-1.18V7.58c0-.65.53-1.18 1.17-1.18H8.4v.8c0 .44.36.8.8.8h17.6a.8.8 0 0 0 .8-.8v-.8h5.22c.65 0 1.18.53 1.18 1.18v37.64ZM6 20.8a2.4 2.4 0 1 0 0 4.8 2.4 2.4 0 0 0 0-4.8ZM6 24a.8.8 0 1 1 0-1.6.8.8 0 0 1 0 1.6Zm25.6-9.6H12.4a.8.8 0 0 0 0 1.6h19.2a.8.8 0 0 0 0-1.6Zm-9.6 24h-9.6a.8.8 0 0 0 0 1.6H22a.8.8 0 0 0 0-1.6ZM6 12.8a2.4 2.4 0 1 0 0 4.8 2.4 2.4 0 0 0 0-4.8ZM6 16a.8.8 0 1 1 0-1.6.8.8 0 0 1 0 1.6Zm25.6 6.4H12.4a.8.8 0 0 0 0 1.6h19.2a.8.8 0 0 0 0-1.6Zm0 8H12.4a.8.8 0 0 0 0 1.6h19.2a.8.8 0 0 0 0-1.6Z"/>
  </mask>
  <path fill="#4B286D" d="M6 36.8a2.4 2.4 0 1 0 0 4.8 2.4 2.4 0 0 0 0-4.8ZM6 40a.8.8 0 1 1 0-1.6.8.8 0 0 1 0 1.6Zm0-11.2a2.4 2.4 0 1 0 0 4.8 2.4 2.4 0 0 0 0-4.8ZM6 32a.8.8 0 1 1 0-1.6.8.8 0 0 1 0 1.6ZM32.82 4.8h-5.3a4.01 4.01 0 0 0-3.92-3.2h-2.84a3.2 3.2 0 0 0-5.52 0H12.4a4.01 4.01 0 0 0-3.92 3.2h-5.3A2.78 2.78 0 0 0 .4 7.58v37.64A2.78 2.78 0 0 0 3.17 48h29.65a2.78 2.78 0 0 0 2.78-2.78V7.58a2.78 2.78 0 0 0-2.78-2.78ZM10 5.6a2.4 2.4 0 0 1 2.4-2.4h3.34a.8.8 0 0 0 .76-.53A1.6 1.6 0 0 1 18 1.6c.67 0 1.27.43 1.5 1.07a.8.8 0 0 0 .75.53h3.35A2.4 2.4 0 0 1 26 5.6v.8H10v-.8Zm24 39.62c0 .65-.53 1.18-1.18 1.18H3.17c-.64 0-1.17-.53-1.17-1.18V7.58c0-.65.53-1.18 1.17-1.18H8.4v.8c0 .44.36.8.8.8h17.6a.8.8 0 0 0 .8-.8v-.8h5.22c.65 0 1.18.53 1.18 1.18v37.64ZM6 20.8a2.4 2.4 0 1 0 0 4.8 2.4 2.4 0 0 0 0-4.8ZM6 24a.8.8 0 1 1 0-1.6.8.8 0 0 1 0 1.6Zm25.6-9.6H12.4a.8.8 0 0 0 0 1.6h19.2a.8.8 0 0 0 0-1.6Zm-9.6 24h-9.6a.8.8 0 0 0 0 1.6H22a.8.8 0 0 0 0-1.6ZM6 12.8a2.4 2.4 0 1 0 0 4.8 2.4 2.4 0 0 0 0-4.8ZM6 16a.8.8 0 1 1 0-1.6.8.8 0 0 1 0 1.6Zm25.6 6.4H12.4a.8.8 0 0 0 0 1.6h19.2a.8.8 0 0 0 0-1.6Zm0 8H12.4a.8.8 0 0 0 0 1.6h19.2a.8.8 0 0 0 0-1.6Z"/>
  <path fill="#4B286D" d="m27.52 4.8-1.72.35.29 1.4h1.43V4.8Zm-6.76-3.2-1.52.88.51.87h1V1.6Zm-5.52 0v1.75h1l.51-.87-1.51-.88ZM8.48 4.8v1.75H9.9l.28-1.4-1.71-.35ZM.4 45.22h-1.75H.4ZM16.5 2.67l1.65.59-1.65-.6Zm3 0 1.65-.59-1.65.59ZM26 6.4v1.75h1.75V6.4H26Zm-16 0H8.25v1.75H10V6.4Zm-1.6 0h1.75V4.65H8.4V6.4Zm19.2 0V4.65h-1.75V6.4h1.75ZM6 35.05a4.15 4.15 0 0 0-4.15 4.15h3.5c0-.36.29-.65.65-.65v-3.5ZM1.85 39.2A4.15 4.15 0 0 0 6 43.35v-3.5a.65.65 0 0 1-.65-.65h-3.5ZM6 43.35a4.15 4.15 0 0 0 4.15-4.15h-3.5c0 .36-.3.65-.65.65v3.5Zm4.15-4.15A4.15 4.15 0 0 0 6 35.05v3.5c.35 0 .65.3.65.65h3.5ZM6 38.25c.52 0 .95.43.95.95h-3.5c0 1.4 1.14 2.55 2.55 2.55v-3.5Zm.95.95c0 .52-.43.95-.95.95v-3.5a2.55 2.55 0 0 0-2.55 2.55h3.5Zm-.95.95a.95.95 0 0 1-.95-.95h3.5c0-1.4-1.15-2.55-2.55-2.55v3.5Zm-.95-.95c0-.52.42-.95.95-.95v3.5c1.4 0 2.55-1.14 2.55-2.55h-3.5ZM6 27.05a4.15 4.15 0 0 0-4.15 4.15h3.5c0-.36.29-.65.65-.65v-3.5ZM1.85 31.2A4.15 4.15 0 0 0 6 35.35v-3.5a.65.65 0 0 1-.65-.65h-3.5ZM6 35.35a4.15 4.15 0 0 0 4.15-4.15h-3.5c0 .36-.3.65-.65.65v3.5Zm4.15-4.15A4.15 4.15 0 0 0 6 27.05v3.5c.35 0 .65.3.65.65h3.5ZM6 30.25c.52 0 .95.43.95.95h-3.5c0 1.4 1.14 2.55 2.55 2.55v-3.5Zm.95.95c0 .52-.43.95-.95.95v-3.5a2.55 2.55 0 0 0-2.55 2.55h3.5Zm-.95.95a.95.95 0 0 1-.95-.95h3.5c0-1.4-1.15-2.55-2.55-2.55v3.5Zm-.95-.95c0-.52.42-.95.95-.95v3.5c1.4 0 2.55-1.14 2.55-2.55h-3.5ZM32.82 3.05h-5.3v3.5h5.3v-3.5Zm-3.59 1.4a5.76 5.76 0 0 0-5.63-4.6v3.5c1.08 0 2 .77 2.2 1.8l3.43-.7ZM23.6-.15h-2.84v3.5h2.84v-3.5Zm-1.33.87A4.95 4.95 0 0 0 18-1.75v3.5c.5 0 .98.28 1.24.73L22.27.72ZM18-1.75c-1.8 0-3.4.97-4.28 2.47l3.03 1.76c.26-.45.74-.73 1.25-.73v-3.5Zm-2.76 1.6H12.4v3.5h2.84v-3.5Zm-2.84 0a5.76 5.76 0 0 0-5.64 4.6l3.43.7a2.26 2.26 0 0 1 2.2-1.8v-3.5Zm-3.92 3.2h-5.3v3.5h5.3v-3.5Zm-5.3 0a4.53 4.53 0 0 0-4.53 4.53h3.5c0-.57.46-1.03 1.02-1.03v-3.5Zm-4.53 4.53v37.64h3.5V7.58h-3.5Zm0 37.64c0 2.5 2.02 4.53 4.52 4.53v-3.5c-.56 0-1.02-.46-1.02-1.03h-3.5Zm4.52 4.53h29.65v-3.5H3.17v3.5Zm29.65 0c2.5 0 4.53-2.03 4.53-4.53h-3.5c0 .57-.47 1.03-1.03 1.03v3.5Zm4.53-4.53V7.58h-3.5v37.64h3.5Zm0-37.64c0-2.5-2.03-4.53-4.53-4.53v3.5c.56 0 1.03.46 1.03 1.03h3.5ZM11.75 5.6c0-.36.29-.65.65-.65v-3.5A4.15 4.15 0 0 0 8.25 5.6h3.5Zm.65-.65h3.34v-3.5H12.4v3.5Zm3.34 0c1.09 0 2.05-.68 2.4-1.7l-3.3-1.17a.95.95 0 0 1 .9-.63v3.5Zm2.4-1.7c-.01.05-.06.1-.14.1v-3.5c-1.42 0-2.68.9-3.15 2.23l3.3 1.17Zm-.14.1c-.09 0-.14-.05-.15-.1l3.3-1.17A3.35 3.35 0 0 0 18-.15v3.5Zm-.15-.1a2.55 2.55 0 0 0 2.4 1.7v-3.5c.4 0 .76.25.9.63l-3.3 1.17Zm2.4 1.7h3.35v-3.5h-3.35v3.5Zm3.35 0c.35 0 .65.3.65.65h3.5a4.15 4.15 0 0 0-4.15-4.15v3.5Zm.65.65v.8h3.5v-.8h-3.5ZM26 4.65H10v3.5h16v-3.5ZM11.75 6.4v-.8h-3.5v.8h3.5Zm20.5 38.82c0-.31.25-.57.57-.57v3.5a2.93 2.93 0 0 0 2.93-2.93h-3.5Zm.57-.57H3.17v3.5h29.65v-3.5Zm-29.65 0c.33 0 .58.26.58.57H.25c0 1.61 1.3 2.93 2.92 2.93v-3.5Zm.58.57V7.58H.25v37.64h3.5Zm0-37.64c0 .31-.25.57-.58.57v-3.5A2.93 2.93 0 0 0 .25 7.58h3.5Zm-.58.57H8.4v-3.5H3.17v3.5ZM6.65 6.4v.8h3.5v-.8h-3.5Zm0 .8c0 1.4 1.14 2.55 2.55 2.55v-3.5c.52 0 .95.43.95.95h-3.5ZM9.2 9.75h17.6v-3.5H9.2v3.5Zm17.6 0c1.4 0 2.55-1.14 2.55-2.55h-3.5c0-.52.42-.95.95-.95v3.5Zm2.55-2.55v-.8h-3.5v.8h3.5Zm-1.75.95h5.22v-3.5H27.6v3.5Zm5.22 0a.57.57 0 0 1-.57-.57h3.5c0-1.61-1.31-2.93-2.93-2.93v3.5Zm-.57-.57v37.64h3.5V7.58h-3.5ZM6 19.05a4.15 4.15 0 0 0-4.15 4.15h3.5c0-.36.29-.65.65-.65v-3.5ZM1.85 23.2A4.15 4.15 0 0 0 6 27.35v-3.5a.65.65 0 0 1-.65-.65h-3.5ZM6 27.35a4.15 4.15 0 0 0 4.15-4.15h-3.5c0 .36-.3.65-.65.65v3.5Zm4.15-4.15A4.15 4.15 0 0 0 6 19.05v3.5c.35 0 .65.3.65.65h3.5ZM6 22.25c.52 0 .95.43.95.95h-3.5c0 1.4 1.14 2.55 2.55 2.55v-3.5Zm.95.95c0 .52-.43.95-.95.95v-3.5a2.55 2.55 0 0 0-2.55 2.55h3.5Zm-.95.95a.95.95 0 0 1-.95-.95h3.5c0-1.4-1.15-2.55-2.55-2.55v3.5Zm-.95-.95c0-.52.42-.95.95-.95v3.5c1.4 0 2.55-1.14 2.55-2.55h-3.5ZM31.6 12.65H12.4v3.5h19.2v-3.5Zm-19.2 0a2.55 2.55 0 0 0-2.55 2.55h3.5c0 .52-.43.95-.95.95v-3.5ZM9.85 15.2c0 1.4 1.14 2.55 2.55 2.55v-3.5c.52 0 .95.43.95.95h-3.5Zm2.55 2.55h19.2v-3.5H12.4v3.5Zm19.2 0c1.4 0 2.55-1.14 2.55-2.55h-3.5c0-.52.42-.95.95-.95v3.5Zm2.55-2.55c0-1.4-1.15-2.55-2.55-2.55v3.5a.95.95 0 0 1-.95-.95h3.5ZM22 36.65h-9.6v3.5H22v-3.5Zm-9.6 0a2.55 2.55 0 0 0-2.55 2.55h3.5c0 .52-.43.95-.95.95v-3.5ZM9.85 39.2c0 1.4 1.14 2.55 2.55 2.55v-3.5c.52 0 .95.43.95.95h-3.5Zm2.55 2.55H22v-3.5h-9.6v3.5Zm9.6 0c1.4 0 2.55-1.14 2.55-2.55h-3.5c0-.52.42-.95.95-.95v3.5Zm2.55-2.55c0-1.4-1.15-2.55-2.55-2.55v3.5a.95.95 0 0 1-.95-.95h3.5ZM6 11.05a4.15 4.15 0 0 0-4.15 4.15h3.5c0-.36.29-.65.65-.65v-3.5ZM1.85 15.2A4.15 4.15 0 0 0 6 19.35v-3.5a.65.65 0 0 1-.65-.65h-3.5ZM6 19.35a4.15 4.15 0 0 0 4.15-4.15h-3.5c0 .36-.3.65-.65.65v3.5Zm4.15-4.15A4.15 4.15 0 0 0 6 11.05v3.5c.35 0 .65.3.65.65h3.5ZM6 14.25c.52 0 .95.43.95.95h-3.5c0 1.4 1.14 2.55 2.55 2.55v-3.5Zm.95.95c0 .52-.43.95-.95.95v-3.5a2.55 2.55 0 0 0-2.55 2.55h3.5Zm-.95.95a.95.95 0 0 1-.95-.95h3.5c0-1.4-1.15-2.55-2.55-2.55v3.5Zm-.95-.95c0-.52.42-.95.95-.95v3.5c1.4 0 2.55-1.14 2.55-2.55h-3.5Zm26.55 5.45H12.4v3.5h19.2v-3.5Zm-19.2 0a2.55 2.55 0 0 0-2.55 2.55h3.5c0 .52-.43.95-.95.95v-3.5ZM9.85 23.2c0 1.4 1.14 2.55 2.55 2.55v-3.5c.52 0 .95.43.95.95h-3.5Zm2.55 2.55h19.2v-3.5H12.4v3.5Zm19.2 0c1.4 0 2.55-1.14 2.55-2.55h-3.5c0-.52.42-.95.95-.95v3.5Zm2.55-2.55c0-1.4-1.15-2.55-2.55-2.55v3.5a.95.95 0 0 1-.95-.95h3.5Zm-2.55 5.45H12.4v3.5h19.2v-3.5Zm-19.2 0a2.55 2.55 0 0 0-2.55 2.55h3.5c0 .52-.43.95-.95.95v-3.5ZM9.85 31.2c0 1.4 1.14 2.55 2.55 2.55v-3.5c.52 0 .95.43.95.95h-3.5Zm2.55 2.55h19.2v-3.5H12.4v3.5Zm19.2 0c1.4 0 2.55-1.14 2.55-2.55h-3.5c0-.52.42-.95.95-.95v3.5Zm2.55-2.55c0-1.4-1.15-2.55-2.55-2.55v3.5a.95.95 0 0 1-.95-.95h3.5Z" mask="url(#a)"/>
</svg>
