
<svg xmlns="http://www.w3.org/2000/svg" xmlns:xlink="http://www.w3.org/1999/xlink" width="32" height="55" viewBox="0 0 32 55">
  <defs>
    <clipPath id="clip-path">
      <rect width="32" height="55" fill="none"/>
    </clipPath>
  </defs>
  <g id="Group" clip-path="url(#clip-path)">
    <g id="Group-2" data-name="Group">
      <path id="Fill_47" data-name="Fill 47" d="M16.542,21a.709.709,0,0,1-.341-.089l-5.7-3.14-5.7,3.14A.731.731,0,0,1,4.461,21a.7.7,0,0,1-.427-.144.78.78,0,0,1-.291-.744L4.83,13.457.221,8.748A.79.79,0,0,1,.033,7.97a.746.746,0,0,1,.588-.523L7,6.474,9.849.425A.72.72,0,0,1,10.5,0a.733.733,0,0,1,.653.425L14,6.474l6.377.973a.737.737,0,0,1,.585.523.78.78,0,0,1-.182.779l-4.615,4.709,1.09,6.654a.778.778,0,0,1-.288.744A.7.7,0,0,1,16.542,21ZM10.5,16.148a.7.7,0,0,1,.342.091l4.736,2.6-.907-5.526a.784.784,0,0,1,.2-.67l3.838-3.912-5.3-.809a.738.738,0,0,1-.551-.415L10.5,2.486,8.132,7.511a.723.723,0,0,1-.548.415l-5.294.809,3.833,3.912a.764.764,0,0,1,.206.67l-.9,5.526,4.738-2.6A.67.67,0,0,1,10.5,16.148Z" transform="translate(6)" fill="#4b286d"/>
      <path id="Fill_48" data-name="Fill 48" d="M22.19,6H2.811A2.914,2.914,0,0,1,0,3,2.913,2.913,0,0,1,2.811,0H22.19A2.913,2.913,0,0,1,25,3,2.914,2.914,0,0,1,22.19,6ZM2.811,1.533A1.424,1.424,0,0,0,1.436,3,1.425,1.425,0,0,0,2.811,4.467H22.19A1.425,1.425,0,0,0,23.565,3,1.424,1.424,0,0,0,22.19,1.533Z" transform="translate(4 19)" fill="#4b286d"/>
      <path id="Fill_49" data-name="Fill 49" d="M29.121,6H2.878A2.945,2.945,0,0,1,0,3,2.944,2.944,0,0,1,2.878,0H29.121A2.944,2.944,0,0,1,32,3,2.946,2.946,0,0,1,29.121,6ZM2.878,1.533A1.439,1.439,0,0,0,1.472,3,1.44,1.44,0,0,0,2.878,4.467H29.121A1.441,1.441,0,0,0,30.531,3a1.44,1.44,0,0,0-1.409-1.466Z" transform="translate(0 49)" fill="#4b286d"/>
      <path id="Fill_50" data-name="Fill 50" d="M16.255,21H.752A.744.744,0,0,1,0,20.266V.736A.745.745,0,0,1,.752,0h15.5A.742.742,0,0,1,17,.736v19.53A.74.74,0,0,1,16.255,21ZM1.5,1.463V19.535h14V1.463Z" transform="translate(7 24)" fill="#4b286d"/>
      <path id="Fill_51" data-name="Fill 51" d="M25.261,8H.74a.728.728,0,0,1-.6-.31.718.718,0,0,1-.1-.666L2.259.5a.738.738,0,0,1,.7-.5H23.043a.737.737,0,0,1,.7.5l2.213,6.523a.712.712,0,0,1-.1.666A.723.723,0,0,1,25.261,8ZM3.488,1.476,1.769,6.524h22.46L22.513,1.476Z" transform="translate(3 43)" fill="#4b286d"/>
      <path id="Fill_52" data-name="Fill 52" d="M1.5,12a.81.81,0,0,1-.885-.715V.715A.814.814,0,0,1,1.5,0a.815.815,0,0,1,.885.715V11.285A.812.812,0,0,1,1.5,12" transform="translate(11 32)" fill="#4b286d"/>
      <path id="Fill_53" data-name="Fill 53" d="M1.5,7a.814.814,0,0,1-.885-.727V.722A.814.814,0,0,1,1.5,0a.819.819,0,0,1,.888.722V6.273A.819.819,0,0,1,1.5,7" transform="translate(18 37)" fill="#4b286d"/>
      <path id="Fill_54" data-name="Fill 54" d="M1.5,2.61a.883.883,0,0,1-.885-.885V1.278a.885.885,0,1,1,1.77,0v.447A.885.885,0,0,1,1.5,2.61" transform="translate(11 28)" fill="#4b286d"/>
    </g>
  </g>
</svg>
