<svg width="39" height="38" viewBox="0 0 39 38" fill="none" xmlns="http://www.w3.org/2000/svg">
<g clip-path="url(#clip0)">
<circle cx="19.9575" cy="19" r="18" stroke="#4B286D" stroke-width="2"/>
<path d="M17.9495 26H21.1655V29H17.9495V26ZM14.1335 17.312C14.1335 16.432 14.2615 15.632 14.5175 14.912C14.7895 14.192 15.1735 13.576 15.6695 13.064C16.1815 12.552 16.7895 12.16 17.4935 11.888C18.2135 11.6 19.0135 11.456 19.8935 11.456C20.6295 11.456 21.3095 11.568 21.9335 11.792C22.5735 12 23.1255 12.312 23.5895 12.728C24.0695 13.128 24.4455 13.632 24.7175 14.24C24.9895 14.848 25.1255 15.536 25.1255 16.304C25.1255 16.864 25.0615 17.352 24.9335 17.768C24.8215 18.168 24.6615 18.52 24.4535 18.824C24.2615 19.112 24.0375 19.376 23.7815 19.616C23.5255 19.84 23.2695 20.064 23.0135 20.288C22.7095 20.544 22.4295 20.792 22.1735 21.032C21.9175 21.272 21.6935 21.544 21.5015 21.848C21.3095 22.136 21.1575 22.48 21.0455 22.88C20.9495 23.28 20.9015 23.768 20.9015 24.344H18.3095C18.3095 23.64 18.3415 23.048 18.4055 22.568C18.4855 22.072 18.6055 21.64 18.7655 21.272C18.9255 20.904 19.1175 20.584 19.3415 20.312C19.5815 20.024 19.8615 19.744 20.1815 19.472C20.4375 19.248 20.6775 19.04 20.9015 18.848C21.1415 18.656 21.3495 18.448 21.5255 18.224C21.7175 17.984 21.8615 17.72 21.9575 17.432C22.0695 17.144 22.1255 16.8 22.1255 16.4C22.1255 15.92 22.0375 15.512 21.8615 15.176C21.7015 14.824 21.5015 14.544 21.2615 14.336C21.0215 14.128 20.7655 13.976 20.4935 13.88C20.2215 13.784 19.9815 13.736 19.7735 13.736C18.7815 13.736 18.0455 14.064 17.5655 14.72C17.1015 15.36 16.8695 16.224 16.8695 17.312H14.1335Z" fill="#4B286D"/>
</g>
<defs>
<clipPath id="clip0">
<rect width="38" height="38" fill="white" transform="translate(0.95752)"/>
</clipPath>
</defs>
</svg>
