
<svg width="16" height="16" viewBox="0 0 16 16" fill="none" xmlns="http://www.w3.org/2000/svg">
<path fill-rule="evenodd" clip-rule="evenodd" d="M1.83031 1.83059C4.27125 -0.610195 8.24407 -0.610195 10.685 1.83059C12.8593 4.00523 13.0921 7.38994 11.3941 9.82966C11.6369 9.88098 11.8692 9.99897 12.0571 10.1863L15.6119 13.7419C16.1294 14.2578 16.1294 15.0948 15.6119 15.6123C15.0965 16.1292 14.2594 16.1292 13.7413 15.6123L10.1866 12.0577C9.99765 11.8688 9.88018 11.6371 9.82885 11.3942C7.3895 13.0911 4.00403 12.8583 1.83031 10.6852C-0.610103 8.24392 -0.610103 4.2719 1.83031 1.83059ZM2.95263 9.56299C4.77447 11.3852 7.74032 11.3852 9.5627 9.56299C11.3851 7.74074 11.3851 4.77561 9.5627 2.95336C7.74032 1.13163 4.77447 1.13163 2.95263 2.95336C1.13131 4.77561 1.13131 7.74074 2.95263 9.56299Z" fill="#737373"/>
</svg>
