<svg xmlns="http://www.w3.org/2000/svg" viewBox="0 0 33.6 33.6" width="34" height="34"><g data-name="Group 702" transform="translate(.8 .8)"><path fill="#fff" stroke="#1d1d1d" stroke-linecap="round" stroke-miterlimit="10" stroke-width="1.6" d="M0 22v5.4C0 29.938 6.36 32 16 32s16-2.058 16-4.6V22" data-name="Path 375"/><path fill="#fff" stroke="#1d1d1d" stroke-linecap="round" stroke-miterlimit="10" stroke-width="1.6" d="M0 14v5.4C0 21.938 6.36 24 16 24s16-2.058 16-4.6V14" data-name="Path 376"/><path fill="#fff" stroke="#1d1d1d" stroke-miterlimit="10" stroke-width="1.6" d="M0 4c0-2.209 6.36-4 16-4s16 1.791 16 4" data-name="Path 377"/><path fill="#fff" stroke="#1d1d1d" stroke-miterlimit="10" stroke-width="1.6" d="M32 3.744c0 2.62-6.36 4.744-16 4.744S0 6.364 0 3.744v7.512C0 13.876 6.36 16 16 16s16-2.124 16-4.744Z" data-name="Path 378"/><path fill="#1d1d1d" d="M27.95 8.985a26.024 26.024 0 0 1-9.543 1.5V16a26 26 0 0 0 9.543-1.5Z" data-name="Path 379"/><path fill="#1d1d1d" d="M27.95 16.492a26 26 0 0 1-9.543 1.5v5.512a26.022 26.022 0 0 0 9.543-1.5Z" data-name="Path 380"/><path fill="#1d1d1d" d="M27.95 24.543a26.022 26.022 0 0 1-9.543 1.5v5.511a26.025 26.025 0 0 0 9.543-1.5Z" data-name="Path 381"/><ellipse cx="3.682" cy="1.043" fill="#1d1d1d" data-name="Ellipse 20" rx="3.682" ry="1.043" transform="translate(12.318 2.957)"/></g></svg>