<svg xmlns="http://www.w3.org/2000/svg" fill="none" viewBox="0 0 34 32" width="33" height="32"><path fill="currentColor" fill-rule="evenodd" d="M16.5 0c4.8 0 8.7 3.7 8.9 8.3V13.7h.4c1.5 0 2.8 1.2 2.9 2.6V29.2c0 1.5-1.2 2.7-2.7 2.8H7.3a2.9 2.9 0 0 1-3-2.6V16.5c0-1.5 1.2-2.7 2.7-2.8h.6v-5c0-4.8 4-8.7 9-8.7Zm9.3 15.1H7.3c-.8 0-1.4.6-1.5 1.3V29.2c0 .7.6 1.3 1.3 1.4h18.7c.7 0 1.4-.5 1.4-1.3V16.5c0-.7-.5-1.3-1.3-1.4h-.1Zm-9.3 3.3a2.5 2.5 0 0 1 1.9 4.4l-1 .5-.2.1v3.2c0 .4-.3.7-.7.7a.7.7 0 0 1-.7-.6V23.4l-1.2-.6a2.5 2.5 0 0 1 0-3.7c.5-.5 1.2-.7 2-.7Zm0 1.3c-.3 0-.6.2-.9.4-.4.4-.4 1.2 0 1.7.4.4 1.2.4 1.7 0 .6-.5.6-1.3 0-1.7-.1-.2-.5-.4-.8-.4Zm0-18.3c-4 0-7.3 3-7.4 7v5.3H24v-5c0-4-3.4-7.3-7.5-7.3Z" clip-rule="evenodd"/></svg>