
<svg id="Group_7" data-name="Group 7" xmlns="http://www.w3.org/2000/svg" xmlns:xlink="http://www.w3.org/1999/xlink" width="45.2" height="48.321" viewBox="0 0 45.2 48.321">
  <defs>
    <clipPath id="clip-path">
      <path id="Clip_2" data-name="Clip 2" d="M0,0H45V20H0Z" fill="none"/>
    </clipPath>
    <clipPath id="clip-path-2">
      <path id="Clip_5" data-name="Clip 5" d="M0,0H45.2V26.9H0Z" transform="translate(0 0)" fill="none"/>
    </clipPath>
  </defs>
  <g id="Group_3" data-name="Group 3" transform="translate(0.2)">
    <path id="Clip_2-2" data-name="Clip 2" d="M0,0H45V20H0Z" fill="none"/>
    <g id="Group_3-2" data-name="Group 3" clip-path="url(#clip-path)">
      <path id="Fill_1" data-name="Fill 1" d="M39.3,20a5.663,5.663,0,0,1-4.2-1.8A5.782,5.782,0,0,1,30.9,20a5.661,5.661,0,0,1-4.2-1.8A5.785,5.785,0,0,1,22.5,20a5.663,5.663,0,0,1-4.2-1.8A5.781,5.781,0,0,1,14.1,20a5.663,5.663,0,0,1-4.2-1.8A5.782,5.782,0,0,1,5.7,20,5.706,5.706,0,0,1,0,14.3V9.7L2.2,1.1A1.633,1.633,0,0,1,3.7,0H41.3a1.5,1.5,0,0,1,1.5,1.1L45,9.7v4.6A5.706,5.706,0,0,1,39.3,20Zm-4.4-7.2a1.539,1.539,0,0,1,1.5,1.5,2.7,2.7,0,1,0,5.4,0v-4L39.9,3H4.9L3,10.3v4a2.7,2.7,0,0,0,5.4,0,1.467,1.467,0,0,1,1.5-1.5,1.54,1.54,0,0,1,1.5,1.5A2.52,2.52,0,0,0,13.9,17a2.7,2.7,0,0,0,2.7-2.7,1.5,1.5,0,1,1,3,0,2.7,2.7,0,0,0,5.4,0,1.5,1.5,0,1,1,3,0,2.7,2.7,0,0,0,5.4,0A1.467,1.467,0,0,1,34.9,12.8Z"/>
    </g>
  </g>
  <g id="Group_6" data-name="Group 6" transform="translate(0 21.421)">
    <path id="Clip_5-2" data-name="Clip 5" d="M0,0H45.2V26.9H0Z" transform="translate(0 0)" fill="none"/>
    <g id="Group_6-2" data-name="Group 6" clip-path="url(#clip-path-2)">
      <path id="Fill_4" data-name="Fill 4" d="M43.7,26.9H1.5a1.5,1.5,0,1,1,0-3H3.2V1.5A1.539,1.539,0,0,1,4.7,0,1.54,1.54,0,0,1,6.2,1.5V23.9h10V7.8a1.54,1.54,0,0,1,1.5-1.5h9.8A1.539,1.539,0,0,1,29,7.8V23.9H39V1.5a1.5,1.5,0,1,1,3,0V23.8h1.7a1.558,1.558,0,0,1,1.5,1.6A1.539,1.539,0,0,1,43.7,26.9ZM19.2,9.3V23.9H26V9.3Z" transform="translate(0 0)"/>
    </g>
  </g>
</svg>
