
<svg id="Icons_Interactive_SVG_IconButton_PlayVideo" data-name="Icons/Interactive/SVG/IconButton/PlayVideo" xmlns="http://www.w3.org/2000/svg" width="84" height="84" viewBox="0 0 84 84">
  <path id="IconButton_PlayVideo" data-name="IconButton/PlayVideo" d="M42,84A42,42,0,1,1,84,42,42.047,42.047,0,0,1,42,84ZM33.377,24.5a2.839,2.839,0,0,0-.454.054,3.461,3.461,0,0,1-.584.066c-.577,0-.84.56-.84,1.081V58.148c0,.521.263,1.082.84,1.082a.233.233,0,0,0,.062.171.754.754,0,0,0,.5.1,1.057,1.057,0,0,0,.84-.27l25.2-16.223a1.325,1.325,0,0,0,0-2.162L33.74,24.62A.491.491,0,0,0,33.377,24.5Z" fill="#fff" opacity="0.8"/>
</svg>
