<svg xmlns="http://www.w3.org/2000/svg" viewBox="0 0 31.825 40.652 " width="32" height="41"><g data-name="Group 6604"><path fill="#fff" stroke="#2a2c2e" stroke-linecap="round" stroke-miterlimit="10" stroke-width="1.5" d="M15.912 39.855S.75 34.424.75 26.215V7.905h8.906l6.259-6.8 6.259 6.8h8.9v18.31c.001 8.209-15.162 13.64-15.162 13.64Z" data-name="Path 16134"/><path fill="#fff" stroke="#2a2c2e" stroke-linecap="round" stroke-linejoin="round" d="m23.494 28.054-7.581 3.378-7.582-3.378v-10.1h15.163Z" data-name="Path 16135"/><path fill="none" stroke="#2a2c2e" stroke-linecap="round" stroke-linejoin="round" stroke-width=".913" d="M11.701 16.48a4.321 4.321 0 0 1 4.212-4.422 4.321 4.321 0 0 1 4.212 4.422v1.474h-8.424Z" data-name="Path 16136"/><path fill="#2a2c2e" d="M16.755 24.068v3.153H15.07v-3.153a1.448 1.448 0 0 1-.842-1.269 1.59 1.59 0 0 1 1.685-1.474 1.589 1.589 0 0 1 1.685 1.474 1.448 1.448 0 0 1-.842 1.269" data-name="Path 16137"/></g></svg>