<svg xmlns="http://www.w3.org/2000/svg" viewBox="0 0 35 35" width="35" height="35"><g data-name="Group 6570"><g fill="#fff" stroke="#1d1d1d" stroke-miterlimit="10" stroke-width="1.5" data-name="Rectangle 400"><path stroke="none" d="M4.066 1.5h26.868A2.566 2.566 0 0 1 33.5 4.066V11.1h-32V4.066A2.566 2.566 0 0 1 4.066 1.5Z"/><path fill="none" d="M4.066.75h26.868a3.316 3.316 0 0 1 3.316 3.316v7.784H.75V4.066A3.316 3.316 0 0 1 4.066.75Z"/></g><g fill="#1d1d1d" data-name="Group 698" transform="translate(6.3 4.5)"><path d="M0 .6h2.194V3H0z" data-name="Rectangle 401"/><path d="M4.389.6h2.194V3H4.389z" data-name="Rectangle 402"/><path d="M8.777.6h2.194V3H8.777z" data-name="Rectangle 403"/><rect width="3.6" height="3.6" data-name="Rectangle 404" rx="1.125" transform="translate(19.4)"/></g><g fill="#fff" stroke="#1d1d1d" stroke-miterlimit="10" stroke-width="1.5" data-name="Rectangle 405"><path stroke="none" d="M1.5 12.7h32v9.6h-32z"/><path fill="none" d="M.75 11.95h33.5v11.1H.75z"/></g><g fill="#1d1d1d" data-name="Group 699" transform="translate(6.3 15.7)"><path d="M0 .6h2.194V3H0z" data-name="Rectangle 406"/><path d="M4.389.6h2.194V3H4.389z" data-name="Rectangle 407"/><path d="M8.777.6h2.194V3H8.777z" data-name="Rectangle 408"/><rect width="3.6" height="3.6" data-name="Rectangle 409" rx="1.125" transform="translate(19.4)"/></g><g fill="#fff" stroke="#1d1d1d" stroke-miterlimit="10" stroke-width="1.5" data-name="Rectangle 410"><path stroke="none" d="M1.5 23.9h32v7.034a2.566 2.566 0 0 1-2.566 2.566H4.066A2.566 2.566 0 0 1 1.5 30.934V23.9Z"/><path fill="none" d="M.75 23.15h33.5v7.784a3.316 3.316 0 0 1-3.316 3.316H4.066A3.316 3.316 0 0 1 .75 30.934V23.15Z"/></g><g fill="#1d1d1d" data-name="Group 700" transform="translate(6.3 26.9)"><path d="M0 .6h2.194V3H0z" data-name="Rectangle 411"/><path d="M4.389.6h2.194V3H4.389z" data-name="Rectangle 412"/><path d="M8.777.6h2.194V3H8.777z" data-name="Rectangle 413"/><rect width="3.6" height="3.6" data-name="Rectangle 414" rx="1.125" transform="translate(19.4)"/></g></g></svg>