<svg width="24" height="24" viewBox="0 0 24 24" fill="none" xmlns="http://www.w3.org/2000/svg">
<path fill-rule="evenodd" clip-rule="evenodd" d="M2.103 4.206H21.896C22.483 4.206 22.961 4.684 22.961 5.27V6.554L12.778 12.46C12.299 12.737 11.702 12.737 11.223 12.461L1.039 6.554V5.27C1.039 4.684 1.517 4.206 2.103 4.206ZM13.298 13.36L22.961 7.756V18.729C22.961 19.316 22.483 19.794 21.896 19.794H2.103C1.517 19.794 1.039 19.316 1.039 18.729V7.756L10.703 13.361C11.492 13.815 12.51 13.813 13.298 13.36ZM21.896 3.167H2.103C0.943 3.167 0 4.11 0 5.27V18.729C0 19.89 0.943 20.833 2.103 20.833H21.896C23.057 20.833 24 19.89 24 18.729V5.27C24 4.11 23.057 3.167 21.896 3.167Z" fill="#4B286D"/>
<mask id="mask0_1940_38055" style="mask-type:alpha" maskUnits="userSpaceOnUse" x="0" y="3" width="24" height="18">
<path fill-rule="evenodd" clip-rule="evenodd" d="M2.103 4.206H21.896C22.483 4.206 22.961 4.684 22.961 5.27V6.554L12.778 12.46C12.299 12.737 11.702 12.737 11.223 12.461L1.039 6.554V5.27C1.039 4.684 1.517 4.206 2.103 4.206ZM13.298 13.36L22.961 7.756V18.729C22.961 19.316 22.483 19.794 21.896 19.794H2.103C1.517 19.794 1.039 19.316 1.039 18.729V7.756L10.703 13.361C11.492 13.815 12.51 13.813 13.298 13.36ZM21.896 3.167H2.103C0.943 3.167 0 4.11 0 5.27V18.729C0 19.89 0.943 20.833 2.103 20.833H21.896C23.057 20.833 24 19.89 24 18.729V5.27C24 4.11 23.057 3.167 21.896 3.167Z" fill="white"/>
</mask>
<g mask="url(#mask0_1940_38055)">
<rect width="24" height="24" fill="#4B286D"/>
</g>
</svg>
