
<svg id="Group_16_Copy" data-name="Group 16 Copy" xmlns="http://www.w3.org/2000/svg" width="70" height="70" viewBox="0 0 70 70">
  <rect id="Rectangle" width="70" height="70" fill="none"/>
  <path id="Combined_Shape_Copy_5" data-name="Combined Shape Copy 5" d="M31.331,57.227a10.162,10.162,0,0,1-9.015,5c-5.477,0-9.934-3.87-9.934-8.626,0-.082,0-.163.005-.248A9.944,9.944,0,0,1,6,49.484a.887.887,0,0,1-.157-.672.9.9,0,0,1,.374-.588.929.929,0,0,1,1.281.214,8.258,8.258,0,0,0,5.19,3.126,6.3,6.3,0,0,1,1.6-2.656.931.931,0,0,1,1.3.022.892.892,0,0,1-.023,1.277,4.771,4.771,0,0,0-1.272,2.5,5.762,5.762,0,0,0-.077.885c0,3.76,3.633,6.819,8.1,6.819a8.246,8.246,0,0,0,7.455-4.155,1.648,1.648,0,0,1,.643-.679V16.211a.919.919,0,0,1,1.837,0v3.913l.2.006h.017c.422.014.86.03,1.307.03,1.317,0,2.957-.122,3.954-1.068a4.226,4.226,0,0,0,1.115-2.821,2.76,2.76,0,1,1,1.84.018,6.006,6.006,0,0,1-1.679,4.1c-1.472,1.4-3.572,1.576-5.238,1.576-.44,0-.859-.014-1.264-.028l-.11,0-.145-.005v5.5c8.983-.018,14.086-.275,14.505-5.359a2.759,2.759,0,1,1,1.84.019c-.227,3.2-1.924,5.243-5.188,6.233-2.777.841-6.534.912-11.156.915v5.642c4.624,0,8.382.074,11.156.915,3.265.99,4.962,3.028,5.188,6.233a2.756,2.756,0,1,1-1.84.019c-.419-5.084-5.521-5.341-14.505-5.359v5.677l.075,0,.07,0c.44-.015.895-.032,1.374-.032,1.666,0,3.766.179,5.237,1.575A6,6,0,0,1,40.685,48a2.757,2.757,0,1,1-1.84.019A4.227,4.227,0,0,0,37.73,45.2c-1-.948-2.637-1.069-3.954-1.069-.447,0-.884.015-1.306.03h-.031l-.189.006V55.582a1.635,1.635,0,0,1,.642.679,8.248,8.248,0,0,0,7.456,4.155c4.465,0,8.1-3.059,8.1-6.819a5.651,5.651,0,0,0-.077-.885.9.9,0,0,1,.183-.689.928.928,0,0,1,.634-.345,9.037,9.037,0,0,0,3.268-.951.93.93,0,0,1,.427-.1.915.915,0,0,1,.813.484.882.882,0,0,1,.066.683.905.905,0,0,1-.453.536,10.8,10.8,0,0,1-3.028,1.021c0,.1,0,.175,0,.248,0,4.756-4.456,8.626-9.933,8.626A10.166,10.166,0,0,1,31.331,57.227Zm7.541-6.66a.921.921,0,1,0,.921-.9A.914.914,0,0,0,38.872,50.567Zm7.91-5.977a.921.921,0,1,0,.921-.9A.913.913,0,0,0,46.782,44.59Zm0-25.064a.921.921,0,1,0,.921-.9A.913.913,0,0,0,46.782,19.526Zm-7.91-5.8a.921.921,0,1,0,.921-.9A.913.913,0,0,0,38.872,13.728Zm-.631,43.634a.972.972,0,1,1,.972.972A.972.972,0,0,1,38.241,57.361ZM23.908,50.468a7.59,7.59,0,0,1-4.443-7.523.945.945,0,0,1,1.044-.812.917.917,0,0,1,.865.977,5.828,5.828,0,0,0,3.358,5.733.877.877,0,0,1,.454,1.2.967.967,0,0,1-.866.513A1,1,0,0,1,23.908,50.468Zm31.335-.707a.927.927,0,0,1-.274-1.271,6.227,6.227,0,0,0,.981-3.329,6.564,6.564,0,0,0-1.894-4.548.929.929,0,0,1-.229-.9.914.914,0,0,1,.667-.642c3.481-.819,5.912-3.569,5.912-6.689a6.727,6.727,0,0,0-1.962-4.668,5.464,5.464,0,0,1-2.693,1.041c-.024,0-.049,0-.073,0a.92.92,0,0,1-.071-1.837,4.028,4.028,0,0,0,2.246-1.091,4.6,4.6,0,0,0,1.438-3.281c0-2.7-2.458-4.885-5.6-4.97a.907.907,0,0,1-.782-.5.929.929,0,0,1,.051-.933,4.448,4.448,0,0,0,.755-2.448c0-2.745-2.591-4.979-5.777-4.979-.091,0-.194,0-.3.009a6.7,6.7,0,0,1-1.328,3.175.9.9,0,0,1-1.279.115.927.927,0,0,1-.114-1.3,5.7,5.7,0,0,0,1-3.027c-.055-3.127-3.163-5.814-6.789-5.859h-.1a7.031,7.031,0,0,0-6.278,3.5,1.66,1.66,0,0,1-.615.649v5.7a.908.908,0,1,1-1.816,0v-5.7a1.654,1.654,0,0,1-.615-.649,7.056,7.056,0,0,0-6.377-3.5c-3.625.045-6.735,2.732-6.79,5.868,0,.008,0,.024,0,.041l.006.062a.929.929,0,0,1-.281.74.9.9,0,0,1-.743.245,8.335,8.335,0,0,0-1.009-.075.92.92,0,0,1,0-1.84c.084,0,.174,0,.267.005a7.507,7.507,0,0,1,2.568-4.625A9.17,9.17,0,0,1,23.309,0h.121a8.885,8.885,0,0,1,7.8,4.326A8.884,8.884,0,0,1,39.033,0h.121a9.168,9.168,0,0,1,5.954,2.262,7.508,7.508,0,0,1,2.569,4.625c.094,0,.183-.005.266-.005,4.187,0,7.593,3.059,7.593,6.818a6.152,6.152,0,0,1-.4,2.189,6.993,6.993,0,0,1,5.976,6.66,6.334,6.334,0,0,1-1.354,3.887,8.548,8.548,0,0,1,2.469,5.944,8.814,8.814,0,0,1-5.951,8.061,8.365,8.365,0,0,1,1.494,4.72A8.078,8.078,0,0,1,56.5,49.484a.9.9,0,0,1-1.255.278Zm-50.819-5.3a8.269,8.269,0,0,1,1.483-4.675A8.733,8.733,0,0,1,0,31.8a8.456,8.456,0,0,1,2.451-5.888,6.259,6.259,0,0,1-1.345-3.85,6.931,6.931,0,0,1,5.931-6.6,6.093,6.093,0,0,1-.4-2.168A6.492,6.492,0,0,1,9.585,7.935a.9.9,0,0,1,1.252.241A.918.918,0,0,1,10.6,9.443,4.694,4.694,0,0,0,8.438,13.3a4.338,4.338,0,0,0,.533,2.059,5.685,5.685,0,0,1,3.039,1.3.919.919,0,0,1,.078,1.286.895.895,0,0,1-1.273.079,4.017,4.017,0,0,0-2.354-.887c-3.114.085-5.553,2.246-5.553,4.923a4.55,4.55,0,0,0,1.427,3.25A.918.918,0,0,1,4.3,26.657,6.8,6.8,0,0,0,1.8,31.8c0,3.09,2.413,5.814,5.868,6.626a.906.906,0,0,1,.662.635.92.92,0,0,1-.228.895,6.492,6.492,0,0,0-1.879,4.5.9.9,0,1,1-1.8,0Zm17.052-9.99a.947.947,0,0,1,.421-1.238,3.24,3.24,0,0,0,1.6-3.047.92.92,0,0,1,.8-1.012.9.9,0,0,1,.969.839c.013.141.276,3.468-2.606,4.9A.846.846,0,0,1,22.28,35,.887.887,0,0,1,21.476,34.469ZM49.26,32.083a.972.972,0,1,1,.972.972A.972.972,0,0,1,49.26,32.083Zm-6.482,0a.972.972,0,1,1,.972.972A.972.972,0,0,1,42.778,32.083Zm-32.154-.326a.932.932,0,0,1-.9-.968,8.618,8.618,0,0,1,.949-3.166A8.225,8.225,0,0,1,16.32,23.36a.957.957,0,0,1,1.153.675.917.917,0,0,1-.7,1.11,6.572,6.572,0,0,0-5.141,5.748.939.939,0,0,1-.952.867C10.66,31.759,10.642,31.759,10.624,31.757ZM19.5,16.252a.889.889,0,0,1,.56-1.139c.131-.046,3.117-1.122,3.388-3.931a.914.914,0,0,1,1-.807.9.9,0,0,1,.828.976c-.384,3.965-4.434,5.393-4.607,5.451a.936.936,0,0,1-.3.05A.916.916,0,0,1,19.5,16.252ZM38.241,6.806a.972.972,0,1,1,.972.972A.972.972,0,0,1,38.241,6.806Z" transform="translate(3.889 3.889)" fill="#2b8000" stroke="#2b8000" stroke-miterlimit="10" stroke-width="0.6"/>
</svg>
