<svg xmlns="http://www.w3.org/2000/svg" fill="none" viewBox="0 0 34 32" width="33" height="32"><path fill="currentColor" fill-rule="evenodd" d="M29.6 1.6c1.9 0 3.3 1.3 3.4 3v21.1c0 2.5-2 4.6-4.5 4.7H5c-2.8 0-5-2-5-4.5l-.1-.3V16c0-.3.2-.6.6-.7h8.1V5c0-1.8 1.4-3.2 3.2-3.3h17.7Zm0 1.3H12.2c-1.1 0-2 .8-2 1.8v20.8c0 1.3-.6 2.5-1.4 3.4l-.2.2h19.6c1.8 0 3.3-1.4 3.4-3.2V5a2 2 0 0 0-2-2ZM8.7 16.7H1.4v9C1.4 27.5 3 29 5 29c2.2 0 3.5-1.7 3.6-3.4v-9Zm13.6 7c.4 0 .7.4.7.8 0 .3-.3.6-.6.6h-8.6a.7.7 0 0 1-.7-.6c0-.4.2-.6.6-.7h8.6Zm5.7 0c.4 0 .7.4.7.8 0 .3-.3.6-.6.6h-3.5a.7.7 0 0 1-.7-.6c0-.4.2-.6.6-.7H28Zm-5.7-4.1c.4 0 .7.3.7.6 0 .4-.3.6-.6.7h-8.6a.7.7 0 0 1-.7-.7c0-.3.2-.6.6-.6h8.6Zm5.7 0c.4 0 .7.3.7.6 0 .4-.3.6-.6.7h-3.5a.7.7 0 0 1-.7-.7c0-.3.2-.6.6-.6H28Zm-5.7-4.3c.4 0 .7.3.7.7 0 .3-.3.6-.6.7h-8.6a.7.7 0 0 1-.7-.7c0-.3.2-.6.6-.7h8.6Zm5.7 0c.4 0 .7.3.7.7 0 .3-.3.6-.6.7h-3.5a.7.7 0 0 1-.7-.7c0-.3.2-.6.6-.7H28Zm0-9.5c.3 0 .6.3.7.6v5.4c0 .3-.3.6-.6.6H13.8a.7.7 0 0 1-.7-.5V6.5c0-.3.2-.6.6-.7H28Zm-.7 1.3H14.5v4h12.8v-4Z" clip-rule="evenodd"/></svg>