<svg width="7" height="12" viewBox="0 0 7 12" fill="none" xmlns="http://www.w3.org/2000/svg">
<path fill-rule="evenodd" clip-rule="evenodd" d="M6.81677 11.7941C7.11749 11.4425 6.95496 11.0896 6.75472 10.8869L2.25945 5.99682L6.75472 1.11722C6.91855 0.938392 7.18003 0.490533 6.81677 0.16524C6.45351 -0.160052 6.08389 0.0652096 5.92007 0.243272L0.123397 5.63482C-0.0411327 5.81365 -0.0411327 6.10607 0.123397 6.2849C0.124103 6.2849 5.92007 11.7941 5.92007 11.7941C6.06496 11.9792 6.51605 12.1457 6.81677 11.7941Z" fill="#D8D8D8"/>
<mask id="mask0_1940_37593" style="mask-type:alpha" maskUnits="userSpaceOnUse" x="0" y="0" width="7" height="12">
<path fill-rule="evenodd" clip-rule="evenodd" d="M6.81677 11.7941C7.11749 11.4425 6.95496 11.0896 6.75472 10.8869L2.25945 5.99682L6.75472 1.11722C6.91855 0.938392 7.18003 0.490533 6.81677 0.16524C6.45351 -0.160052 6.08389 0.0652096 5.92007 0.243272L0.123397 5.63482C-0.0411327 5.81365 -0.0411327 6.10607 0.123397 6.2849C0.124103 6.2849 5.92007 11.7941 5.92007 11.7941C6.06496 11.9792 6.51605 12.1457 6.81677 11.7941Z" fill="white"/>
</mask>
<g mask="url(#mask0_1940_37593)">
<rect x="7" width="12" height="8" transform="rotate(90 7 0)" fill="#D8D8D8"/>
</g>
</svg>
