<svg width="26" height="25" viewBox="0 0 26 25" fill="none" xmlns="http://www.w3.org/2000/svg">
<path fill-rule="evenodd" clip-rule="evenodd" d="M21.0962 20.6133C19.8945 20.6133 18.917 21.5973 18.917 22.8067C18.917 24.016 19.8945 25 21.0962 25C22.3059 25 23.2902 24.016 23.2902 22.8067C23.2902 21.5973 22.3059 20.6133 21.0962 20.6133ZM9.34037 12.1477H19.4382L23.7236 4.38668H5.65985L9.34037 12.1477ZM8.78141 13.8349L6.73728 17.5467H23.2902V19.2339H7.59462C6.81558 19.2339 6.11215 18.8344 5.71386 18.1635C5.31286 17.4873 5.29801 16.668 5.6747 15.9756L7.62298 12.4541L2.51399 1.68718H0V0H3.58736L4.85786 2.69949H25.1615C25.4612 2.69949 25.7313 2.85471 25.8838 3.11386C26.035 3.37437 26.0391 3.68346 25.8933 3.94531L21.0584 12.7065C20.6763 13.4016 19.9418 13.8349 19.1398 13.8349H8.78141ZM9.78863 22.8067C9.78863 24.016 8.80436 25 7.59462 25C6.39299 25 5.41547 24.016 5.41547 22.8067C5.41547 21.5973 6.39299 20.6133 7.59462 20.6133C8.80436 20.6133 9.78863 21.5973 9.78863 22.8067Z" fill="#4B286D"/>
</svg>
