<svg xmlns="http://www.w3.org/2000/svg" fill="none" viewBox="0 0 34 32" width="33" height="32"><path fill="currentColor" fill-rule="evenodd" d="M19.7 32h-6.3c-.8 0-1.4-.5-1.5-1.2l-.6-3.7-2.1-1.2-3.6 1.4c-.7.2-1.5 0-1.8-.7L.6 21.3c-.3-.6-.2-1.4.4-1.8l3-2.3a12 12 0 0 1 0-2.4l-3-2.3c-.6-.4-.7-1.2-.4-1.9l3.2-5.3c.3-.6 1.1-.8 1.8-.6l3.6 1.4L11.3 5l.6-3.7c0-.7.7-1.2 1.5-1.2h6.3c.7 0 1.4.5 1.4 1.2l.6 3.7c.7.3 1.5.7 2.1 1.2l3.6-1.4c.7-.2 1.5 0 1.8.7l3.2 5.3c.4.6.2 1.4-.4 1.8l-3 2.3a11.2 11.2 0 0 1 0 2.4l3 2.3c.6.4.8 1.2.4 1.8l-3.2 5.4c-.3.6-1 .8-1.8.6l-3.6-1.4-2.1 1.2-.6 3.7c0 .7-.7 1.2-1.4 1.2ZM9.3 24.5l.4.1c.8.6 1.7 1 2.5 1.4.3.1.4.3.5.5l.6 4.1h6.4l.7-4c0-.3.2-.5.4-.6.8-.3 1.7-.8 2.5-1.4.2-.1.5-.2.7 0l4 1.4 3.2-5.3v-.1L27.9 18a.7.7 0 0 1-.3-.6 11 11 0 0 0 0-2.8c0-.3 0-.5.3-.6l3.3-2.6L28 6l-4 1.5h-.7A11 11 0 0 0 20.8 6a.7.7 0 0 1-.4-.5l-.6-4-6.4-.2-.7 4.2c0 .2-.2.4-.5.5-.8.3-1.6.8-2.5 1.4-.2.2-.4.2-.7.1L5.1 6l-3.3 5.3L5.2 14c.2.1.3.3.2.6a11.2 11.2 0 0 0 0 2.8c0 .3 0 .5-.2.6l-3.4 2.6L5 26l4-1.5h.3Zm7.2-1.8c-3.8 0-6.9-3-6.9-6.7s3.1-6.7 7-6.7c3.7 0 6.8 3 6.8 6.7s-3 6.7-6.9 6.7Zm0-12c-3 0-5.5 2.4-5.5 5.3 0 3 2.5 5.3 5.5 5.3S22 19 22 16c0-3-2.4-5.3-5.5-5.3Z" clip-rule="evenodd"/><mask id="a-ico-settings" width="33" height="32" x="0" y="0" maskUnits="userSpaceOnUse" style="mask-type:alpha"><path fill="#fff" fill-rule="evenodd" d="M19.7 32h-6.3c-.8 0-1.4-.5-1.5-1.2l-.6-3.7-2.1-1.2-3.6 1.4c-.7.2-1.5 0-1.8-.7L.6 21.3c-.3-.6-.2-1.4.4-1.8l3-2.3a12 12 0 0 1 0-2.4l-3-2.3c-.6-.4-.7-1.2-.4-1.9l3.2-5.3c.3-.6 1.1-.8 1.8-.6l3.6 1.4L11.3 5l.6-3.7c0-.7.7-1.2 1.5-1.2h6.3c.7 0 1.4.5 1.4 1.2l.6 3.7c.7.3 1.5.7 2.1 1.2l3.6-1.4c.7-.2 1.5 0 1.8.7l3.2 5.3c.4.6.2 1.4-.4 1.8l-3 2.3a11.2 11.2 0 0 1 0 2.4l3 2.3c.6.4.8 1.2.4 1.8l-3.2 5.4c-.3.6-1 .8-1.8.6l-3.6-1.4-2.1 1.2-.6 3.7c0 .7-.7 1.2-1.4 1.2ZM9.3 24.5l.4.1c.8.6 1.7 1 2.5 1.4.3.1.4.3.5.5l.6 4.1h6.4l.7-4c0-.3.2-.5.4-.6.8-.3 1.7-.8 2.5-1.4.2-.1.5-.2.7 0l4 1.4 3.2-5.3v-.1L27.9 18a.7.7 0 0 1-.3-.6 11 11 0 0 0 0-2.8c0-.3 0-.5.3-.6l3.3-2.6L28 6l-4 1.5h-.7A11 11 0 0 0 20.8 6a.7.7 0 0 1-.4-.5l-.6-4-6.4-.2-.7 4.2c0 .2-.2.4-.5.5-.8.3-1.6.8-2.5 1.4-.2.2-.4.2-.7.1L5.1 6l-3.3 5.3L5.2 14c.2.1.3.3.2.6a11.2 11.2 0 0 0 0 2.8c0 .3 0 .5-.2.6l-3.4 2.6L5 26l4-1.5h.3Zm7.2-1.8c-3.8 0-6.9-3-6.9-6.7s3.1-6.7 7-6.7c3.7 0 6.8 3 6.8 6.7s-3 6.7-6.9 6.7Zm0-12c-3 0-5.5 2.4-5.5 5.3 0 3 2.5 5.3 5.5 5.3S22 19 22 16c0-3-2.4-5.3-5.5-5.3Z" clip-rule="evenodd"/></mask></svg>