<svg width="24" height="24" viewBox="0 0 24 24" fill="none" xmlns="http://www.w3.org/2000/svg">
<path fill-rule="evenodd" clip-rule="evenodd" d="M22.5 18C22.7453 18 22.9496 18.177 22.9919 18.4102L23 18.5V23H1V18.5C1 18.224 1.223 18 1.5 18C1.74533 18 1.94958 18.177 1.99194 18.4102L2 18.5V22H22V18.5C22 18.224 22.224 18 22.5 18ZM12.0012 2C12.2539 2 12.4643 2.1854 12.5079 2.42701L12.5162 2.52V18.2378L18.1203 12.6338C18.3222 12.4329 18.6477 12.4329 18.8486 12.6338C19.028 12.8123 19.048 13.0902 18.9084 13.2908L18.8486 13.3621L12.3648 19.8459C12.2649 19.9468 12.133 19.9963 11.9991 19.9963C11.8936 19.9963 11.7881 19.9646 11.6985 19.9003L11.6344 19.8459L5.15066 13.3621C4.94978 13.1612 4.94978 12.8347 5.15066 12.6338C5.32922 12.4552 5.60708 12.4354 5.80771 12.5743L5.87898 12.6338L11.4861 18.2409V2.52C11.4861 2.23465 11.7168 2 12.0012 2Z" fill="#2B8000"/>
</svg>
