<svg xmlns="http://www.w3.org/2000/svg" xmlns:xlink="http://www.w3.org/1999/xlink" width="64" height="64" viewBox="0 0 64 64">
  <defs>
    <clipPath id="clip-path">
      <path id="Clip_4" data-name="Clip 4" d="M0,0H20.819V20.819H0Z" fill="none"/>
    </clipPath>
  </defs>
  <g id="Group_24" data-name="Group 24" transform="translate(0 0)">
    <path id="Fill_1" data-name="Fill 1" d="M12.5,63.229h0c-.381,0-.769-.018-1.154-.055A12.345,12.345,0,0,1,.283,53.429,12.063,12.063,0,0,1,2.731,43.235a12.193,12.193,0,0,1,9.52-4.654c.3,0,.611.012.914.035.444.033.889.089,1.36.149.233.029.474.06.727.089v-3.46c0-2.727,0-5.546,0-8.322a4.881,4.881,0,0,1,5.273-5.247H35.21c-.154-.355-.316-.708-.472-1.049a23.106,23.106,0,0,1-.93-2.223,13.915,13.915,0,0,1-.04-8.6A14.114,14.114,0,0,1,38.733,2.9a1.292,1.292,0,0,1,.759-.319.861.861,0,0,1,.544.211.892.892,0,0,1,.377.711,1.125,1.125,0,0,1-.5.855,12.5,12.5,0,0,0-3.745,4.6,12.316,12.316,0,0,0,10.086,17.5c.366.032.736.048,1.1.048A12.314,12.314,0,0,0,49.376,2.029a11.778,11.778,0,0,0-1.969-.166,12.971,12.971,0,0,0-3.18.41,1.5,1.5,0,0,1-.366.05.833.833,0,0,1-.731-.4.939.939,0,0,1-.12-.862A.932.932,0,0,1,43.671.5C44.208.362,44.762.253,45.3.148c.244-.048.495-.1.741-.148h2.631c.042.012.084.025.127.038a1.656,1.656,0,0,0,.291.072,14.145,14.145,0,0,1,11.993,10.2,19.914,19.914,0,0,1,.438,2.165c.053.325.108.661.17.988v1.5c-.045.268-.086.539-.126.8-.085.563-.172,1.145-.308,1.706a14.2,14.2,0,0,1-9.195,10.125,14.461,14.461,0,0,1-4.726.789,14.986,14.986,0,0,1-1.945-.128l-.158-.016-.209-.02V32.9q0,3.65,0,7.3a5.33,5.33,0,0,1-1.377,3.806,5.052,5.052,0,0,1-3.737,1.428l-.158,0h-.139a4.082,4.082,0,0,0-3,1.122c-.842.769-1.753,1.492-2.634,2.191-.467.371-.951.754-1.418,1.141a1.4,1.4,0,0,1-.858.4A.934.934,0,0,1,31.3,50.2c-.464-.214-.554-.618-.547-1.159.013-.817.01-1.62.008-2.47,0-.349,0-.7,0-1.055H23.59c.073.191.142.368.222.572a12.982,12.982,0,0,1,.868,6.621,12.818,12.818,0,0,1-2.762,6.081,1.087,1.087,0,0,1-.826.492.923.923,0,0,1-.528-.185.9.9,0,0,1-.425-.611,1.176,1.176,0,0,1,.338-.887,10.293,10.293,0,0,0,2.211-4.55,10.423,10.423,0,0,0-1.034-7.123.832.832,0,0,0-.775-.472c-.164-.016-.332-.031-.5-.045a7.986,7.986,0,0,1-2.189-.393,4.394,4.394,0,0,1-2.84-3.591.79.79,0,0,0-.72-.75A10.478,10.478,0,0,0,2.027,49.244,9.993,9.993,0,0,0,3.852,56.96a10.583,10.583,0,0,0,7.093,4.283,10.812,10.812,0,0,0,6.092-.936,1.739,1.739,0,0,1,.68-.139,1.021,1.021,0,0,1,.468.1.8.8,0,0,1,.45.721,1.064,1.064,0,0,1-.63.9A12.164,12.164,0,0,1,12.5,63.229Zm9.214-39.535h-1.2a3.031,3.031,0,0,0-3.374,3.347q0,6.512,0,13.028c0,2.372,1.15,3.526,3.515,3.527h4.894q2.936,0,5.873,0c.926,0,1.225.3,1.228,1.237,0,.523,0,1.053,0,1.613v.007c0,.3,0,.612,0,.941.309-.25.613-.483.907-.709A16.56,16.56,0,0,0,35.316,45.2a4.973,4.973,0,0,1,3.655-1.675,5.523,5.523,0,0,1,.88.073.415.415,0,0,0,.066,0l.067,0,.057,0a2.992,2.992,0,0,0,3.1-3.192c0-1.682,0-3.389,0-5.039v-.008c0-2.309,0-4.7.01-7.045a.666.666,0,0,0-.534-.755,13.592,13.592,0,0,1-5.429-3.449,1.3,1.3,0,0,0-1.029-.423h-.01c-4.011.01-8.091.01-12.036.01H21.709Z" transform="translate(2.313)" fill="#4b286d"/>
    <g id="Group_5" data-name="Group 5" transform="translate(0 3.855)">
      <path id="Clip_4-2" data-name="Clip 4" d="M0,0H20.819V20.819H0Z" fill="none"/>
      <g id="Group_5-2" data-name="Group 5" clip-path="url(#clip-path)">
        <path id="Fill_3" data-name="Fill 3" d="M10.43,20.819h0A10.423,10.423,0,0,1,.244,12.393c-.059-.311-.113-.628-.166-.935q-.039-.226-.078-.45V9.714c.035-.188.068-.381.1-.567.064-.377.13-.765.22-1.139A10.342,10.342,0,0,1,10.58,0c.2,0,.41.005.614.016a10.438,10.438,0,0,1,9.528,9,10.285,10.285,0,0,1-1.953,7.57,10.387,10.387,0,0,1-6.692,4.094A10.2,10.2,0,0,1,10.43,20.819Zm.033-18.88a8.469,8.469,0,0,0-.073,16.937h.051a8.469,8.469,0,0,0,.083-16.937Z" transform="translate(0)" fill="#4b286d"/>
      </g>
    </g>
    <path id="Fill_6" data-name="Fill 6" d="M8.658,15.422H6.8A8.936,8.936,0,0,1,3.129,13.9,7.7,7.7,0,0,1,3.389,1.33,7.828,7.828,0,0,1,7.79,0c.265,0,.534.013.8.039a7.481,7.481,0,0,1,4.4,2.062,7.836,7.836,0,0,1,2.332,4.348,7.651,7.651,0,0,1-1.324,5.7A7.637,7.637,0,0,1,9.063,15.3a1.72,1.72,0,0,0-.264.075c-.046.016-.094.032-.141.046ZM7.714,1.87h0a5.861,5.861,0,0,0-5.855,5.8,5.841,5.841,0,0,0,10,4.145,5.764,5.764,0,0,0,1.7-4.131A5.869,5.869,0,0,0,7.717,1.871Z" transform="translate(41.639 48.578)" fill="#4b286d"/>
    <path id="Fill_8" data-name="Fill 8" d="M11.431,16.193q-1.151,0-2.3,0H9.1l-1.332,0c-.15,0-.3-.012-.447-.024l-.162-.013a5.67,5.67,0,0,1-1.012-.189,4.969,4.969,0,0,0-1.211-.2,2.468,2.468,0,0,0-.635.081,4.375,4.375,0,0,1-1.123.123c-.307,0-.625-.019-.932-.037s-.615-.036-.918-.037C.289,15.891,0,15.617,0,14.618c0-2.574,0-5.19,0-7.439,0-1,.272-1.291,1.213-1.291h.1c.652.011,1.316.035,1.957.058.592.021,1.2.043,1.8.055h.005c.133,0,.288-.148.369-.237.521-.568,1.03-1.147,1.415-1.588a4.1,4.1,0,0,0,.965-2.3,2.659,2.659,0,0,1,.562-1.4A1.4,1.4,0,0,1,9.426,0a1.71,1.71,0,0,1,1.432.875,5.3,5.3,0,0,1,.511,4.313c-.033.122-.071.243-.122.41l-.045.146h1.64c.43,0,.782,0,1.107,0A2.018,2.018,0,0,1,16.19,7.953c0,2.083,0,4.119,0,6.051a2,2,0,0,1-2.144,2.178C13.262,16.189,12.431,16.193,11.431,16.193Zm-.337-1.823c.781,0,1.707,0,2.646.011h.021a.654.654,0,0,0,.488-.13.639.639,0,0,0,.124-.477c-.03-1.771-.031-3.644,0-5.567a.7.7,0,0,0-.132-.525.617.617,0,0,0-.461-.132h-.05c-.568.015-1.166.023-1.827.023-.587,0-1.209-.006-2.017-.018a1,1,0,0,1-.844-.385,1,1,0,0,1-.06-.931c.064-.179.14-.359.213-.532a5.783,5.783,0,0,0,.336-.941,11.309,11.309,0,0,0,.2-1.333c.021-.191.042-.389.067-.582l-.111-.018-.15-.024A6.658,6.658,0,0,1,7.556,6.15C7,6.741,6.413,7.376,5.869,8.062a1.661,1.661,0,0,0-.342.907c-.028.84-.024,1.7-.019,2.522V11.5c0,.306,0,.611,0,.917,0,1.252.43,1.732,1.7,1.9a5.357,5.357,0,0,0,.729.048h3.15ZM2.477,7.689H2.371a.59.59,0,0,0-.434.121.584.584,0,0,0-.113.437c.015,1.095.012,2.208.01,3.284v.013q0,.615,0,1.229v1.277H3.68V8.994c0-.646,0-.97-.15-1.135S3.1,7.689,2.477,7.689Z" transform="translate(40.867 3.855)" fill="#4b286d"/>
    <path id="Fill_10" data-name="Fill 10" d="M7.1,12.337a1.072,1.072,0,0,1-.176-.015c-.6-.1-.865-.538-.749-1.232.077-.468.154-.937.232-1.415l0-.013V9.656l.132-.81H4.917c-.045.26-.089.522-.131.776-.109.65-.221,1.321-.355,1.975a.837.837,0,0,1-.819.74,1.061,1.061,0,0,1-.372-.071.837.837,0,0,1-.584-1.007c.078-.5.159-1,.244-1.523l0-.011c.047-.292.1-.592.146-.9H1.1a1.186,1.186,0,0,1-.871-.278.873.873,0,0,1-.216-.646c.006-.613.36-.9,1.111-.906h2.23l.081-.522c.058-.37.115-.739.179-1.153h-.21l-.644,0-.8,0c-.394,0-.717,0-1.018-.011a.966.966,0,0,1-.79-.369.914.914,0,0,1-.1-.82c.127-.429.443-.63.994-.632H3.922q.1-.551.189-1.092t.183-1.06c.011-.06.021-.12.031-.179.023-.138.047-.281.08-.419A.835.835,0,0,1,5.244,0a1.3,1.3,0,0,1,.234.023.851.851,0,0,1,.71,1.03c-.08.56-.171,1.11-.268,1.692v.006q-.057.341-.114.693H7.438L7.462,3.3c.132-.816.257-1.586.39-2.377.068-.4.21-.823.754-.9A1.305,1.305,0,0,1,8.792,0a.9.9,0,0,1,.679.275.9.9,0,0,1,.2.714c-.057.547-.146,1.089-.24,1.664-.044.269-.089.547-.133.835H9.94l.58,0c.284,0,.517,0,.734.006a1.19,1.19,0,0,1,.867.3.862.862,0,0,1,.215.645c-.016.58-.369.867-1.079.877-.37,0-.672.007-.952.007-.316,0-.6,0-.876-.009H9.384c-.273,0-.447.071-.472.422a8.011,8.011,0,0,1-.124.851c-.024.13-.048.264-.071.4h1.7l.831,0a1.186,1.186,0,0,1,.868.3.861.861,0,0,1,.225.641c-.012.57-.391.887-1.067.893-.424,0-.848,0-1.277,0H8.418l-.124.718c-.111.643-.215,1.25-.326,1.871C7.861,12.007,7.551,12.337,7.1,12.337ZM6.369,5.311c-.228,0-.4.007-.567.023a.5.5,0,0,0-.357.3,9.158,9.158,0,0,0-.152.923c-.017.133-.035.267-.055.4h1.62c.051-.312.1-.614.149-.927.037-.229.074-.463.114-.71-.137,0-.269,0-.4,0S6.485,5.311,6.369,5.311Z" transform="translate(9.253 43.952)" fill="#4b286d"/>
    <path id="Fill_12" data-name="Fill 12" d="M10.8.782c0-.5-.4-.777-1.182-.779Q5.4,0,1.2,0C.406,0,0,.276,0,.773s.4.764,1.184.766c1.391.005,2.783,0,4.176,0,1.412,0,2.827,0,4.241,0,.8,0,1.191-.26,1.194-.757" transform="translate(23.904 29.301)" fill="#4b286d"/>
    <path id="Fill_14" data-name="Fill 14" d="M9.678,0Q5.4-.006,1.124,0C.394.006,0,.287,0,.772s.386.764,1.115.766c1.415.005,2.828,0,4.243,0,1.438,0,2.874,0,4.311,0,.736,0,1.122-.27,1.125-.76S10.406.006,9.678,0" transform="translate(30.843 36.241)" fill="#4b286d"/>
    <path id="Fill_16" data-name="Fill 16" d="M3.141.03C2.346-.012,1.546-.006.749.024A.72.72,0,0,0,0,.78a.745.745,0,0,0,.808.753c.378.018.76,0,1.139,0s.761.016,1.139,0A.711.711,0,0,0,3.855.8.692.692,0,0,0,3.141.03" transform="translate(23.904 36.241)" fill="#4b286d"/>
    <path id="Fill_18" data-name="Fill 18" d="M.819,1.535c.378.014.757,0,1.135,0s.757.008,1.135,0A.7.7,0,0,0,3.851.852.678.678,0,0,0,3.193.036,20.958,20.958,0,0,0,.7.038.7.7,0,0,0,0,.832a.747.747,0,0,0,.816.7" transform="translate(37.012 29.301)" fill="#4b286d"/>
    <path id="Fill_20" data-name="Fill 20" d="M5.363,10.024a.848.848,0,0,1-.431-.1A25.913,25.913,0,0,1,1.75,7.718,4.811,4.811,0,0,1,0,3.839,3.919,3.919,0,0,1,1.082,1,3.268,3.268,0,0,1,3.381,0,2.993,2.993,0,0,1,5.093.549a.537.537,0,0,0,.285.074.39.39,0,0,0,.2-.046A3.461,3.461,0,0,1,7.4,0,3.178,3.178,0,0,1,9.526.894a4.021,4.021,0,0,1,1.055,4.361,5.367,5.367,0,0,1-2.02,2.884A22.961,22.961,0,0,1,5.978,9.877,1.308,1.308,0,0,1,5.363,10.024Zm-2-8.014a1.321,1.321,0,0,0-.385.061A1.643,1.643,0,0,0,1.892,3.549,2.759,2.759,0,0,0,2.768,6,21.381,21.381,0,0,0,4.747,7.5l.414.291a.431.431,0,0,0,.242.061.467.467,0,0,0,.26-.067l.348-.256c.695-.51,1.412-1.037,2.064-1.623A2.568,2.568,0,0,0,8.9,4.1c0-1.058-.346-1.7-1.066-1.977a1.491,1.491,0,0,0-.519-.111c-.4,0-.717.238-1.145.849a.959.959,0,0,1-.772.476,1.123,1.123,0,0,1-.877-.565A1.444,1.444,0,0,0,3.365,2.01Z" transform="translate(4.627 10.795)" fill="#4b286d"/>
    <path id="Fill_22" data-name="Fill 22" d="M7.365,3.193C6.684,3.162,6,3.188,5.277,3.188c0-.787.02-1.46-.006-2.131A1,1,0,0,0,4.225,0,.981.981,0,0,0,3.2,1.061c-.017.671,0,1.342,0,2.127-.763,0-1.431-.021-2.1.006A1,1,0,0,0,0,4.269c.011.658.384,1,1.143,1.008.662.013,1.327,0,2.048,0,0,.72,0,1.342,0,1.967.007.843.358,1.247,1.058,1.234.666-.013,1.013-.416,1.026-1.212.009-.643,0-1.286,0-1.991a15.388,15.388,0,0,0,2.089-.026,1.477,1.477,0,0,0,.974-.589c.4-.7-.111-1.432-.978-1.471" transform="translate(44.723 51.663)" fill="#4b286d"/>
  </g>
</svg>
