<svg width="20" height="8" viewBox="0 0 20 8" fill="none" xmlns="http://www.w3.org/2000/svg">
<path fill-rule="evenodd" clip-rule="evenodd" d="M0.76869 0.18323C1.32123 -0.11749 1.8757 0.0450437 2.19428 0.245275L9.87868 4.74055L17.5466 0.245276C17.8276 0.081452 18.5314 -0.180033 19.0426 0.18323C19.5538 0.546493 19.1998 0.916105 18.92 1.07993L10.4475 6.8766C10.1665 7.04113 9.70699 7.04113 9.42597 6.8766C9.42597 6.8759 0.76869 1.07993 0.76869 1.07993C0.477734 0.935042 0.216148 0.483949 0.76869 0.18323Z" fill="#2A2C2E"/>
<mask id="mask0_1940_38120" style="mask-type:alpha" maskUnits="userSpaceOnUse" x="0" y="0" width="20" height="7">
<path fill-rule="evenodd" clip-rule="evenodd" d="M0.76869 0.18323C1.32123 -0.11749 1.8757 0.0450437 2.19428 0.245275L9.87868 4.74055L17.5466 0.245276C17.8276 0.081452 18.5314 -0.180033 19.0426 0.18323C19.5538 0.546493 19.1998 0.916105 18.92 1.07993L10.4475 6.8766C10.1665 7.04113 9.70699 7.04113 9.42597 6.8766C9.42597 6.8759 0.76869 1.07993 0.76869 1.07993C0.477734 0.935042 0.216148 0.483949 0.76869 0.18323Z" fill="white"/>
</mask>
<g mask="url(#mask0_1940_38120)">
<rect x="19.3022" width="8" height="16" transform="rotate(90 19.3022 0)" fill="#2B8000"/>
</g>
</svg>
