<svg xmlns="http://www.w3.org/2000/svg" fill="none" viewBox="0 0 34 32" width="33" height="32"><path fill="currentColor" fill-rule="evenodd" d="m21.2 15.9-7.8 5V11l7.8 5Zm4.6-13.3c3.9 0 7 3 7.2 6.8v12.9c0 3.8-3 6.9-7 7H7.4c-4 0-7.1-3-7.3-6.7V9.7c0-3.8 3-6.9 7-7h18.8Zm0 1.4H7.3C4.2 4 1.6 6.5 1.5 9.4v12.9c0 3 2.4 5.5 5.5 5.7h18.8c3 0 5.6-2.5 5.8-5.4V9.7c0-3-2.5-5.5-5.5-5.7h-.3ZM12.6 9h.5v.1l9.8 6.3c.2.2.3.3.3.6 0 .2 0 .4-.2.5L13 23l-.3.1h-.4c-.2-.1-.4-.3-.4-.6V9.6c0-.3.1-.6.4-.6h.2Z" clip-rule="evenodd"/></svg>