<svg id="icon" xmlns="http://www.w3.org/2000/svg" width="24" height="24" viewBox="0 0 24 24">
  <path id="Clip_2" data-name="Clip 2" d="M0,0H24V24H0Z" fill="none"/>
  <path id="Fill_1" data-name="Fill 1" d="M13.757,24H2.925a.582.582,0,0,1-.576-.586V21.853H.578A.583.583,0,0,1,0,21.265V.585A.581.581,0,0,1,.576,0h15.1a.584.584,0,0,1,.577.585V2.148h1.77a.584.584,0,0,1,.577.586V19.074c0,.008,0,.013,0,.018s0,.01,0,.015l0,.021a.447.447,0,0,1-.007.046v.021a.52.52,0,0,1-.013.05.052.052,0,0,1,0,.01.667.667,0,0,1-.025.066l-.008.017-.008.015a.6.6,0,0,1-.113.151l-4.252,4.324a.574.574,0,0,1-.342.168A.534.534,0,0,1,13.757,24ZM3.5,3.32V22.827H13.18V19.075a.581.581,0,0,1,.575-.584h3.692V3.32H3.5ZM14.334,19.663V22l2.3-2.335ZM1.155,1.175v19.5H2.349V2.734a.583.583,0,0,1,.576-.586H15.1V1.175ZM12.182,18.091H5.489a.587.587,0,0,1,0-1.174h6.693a.587.587,0,0,1,0,1.174ZM14.5,15.2H5.489a.586.586,0,0,1,0-1.173H14.5a.586.586,0,0,1,0,1.173ZM12.182,12.3H5.489a.586.586,0,0,1,0-1.173h6.693a.586.586,0,0,1,0,1.173Zm2.635-1.25a.562.562,0,0,1-.556-.566v-.176a2.728,2.728,0,0,1-.451-.1.569.569,0,0,1-.3-.242.692.692,0,0,1-.118-.369.324.324,0,0,1,.068-.205.352.352,0,0,1,.179-.107.625.625,0,0,1,.163-.02,1.323,1.323,0,0,1,.36.06l.04.009.02.005a2.128,2.128,0,0,0,.541.08.723.723,0,0,0,.425-.1.332.332,0,0,0,.136-.3.3.3,0,0,0-.059-.189.709.709,0,0,0-.193-.181,5.544,5.544,0,0,0-.554-.293,2.749,2.749,0,0,1-.616-.379,1.428,1.428,0,0,1-.332-.428,1.25,1.25,0,0,1-.128-.576,1.227,1.227,0,0,1,.413-.977,1.347,1.347,0,0,1,.4-.229v-.27a.557.557,0,1,1,1.114,0v.176a2.758,2.758,0,0,1,.274.054c.064.018.129.037.194.058a.5.5,0,0,1,.3.27.568.568,0,0,1,.01.453.326.326,0,0,1-.278.174.823.823,0,0,1-.1.005,1.167,1.167,0,0,1-.32-.049l-.04-.01-.033-.008a1.729,1.729,0,0,0-.43-.057.513.513,0,0,0-.357.108.333.333,0,0,0-.116.271.353.353,0,0,0,.046.182.652.652,0,0,0,.159.158c.08.053.3.166.576.3a2.379,2.379,0,0,1,.861.615,1.246,1.246,0,0,1,.225.719l.016.008v.045a1.222,1.222,0,0,1-.451,1,1.508,1.508,0,0,1-.542.274v.234A.564.564,0,0,1,14.818,11.055ZM10.91,9.411H5.489a.586.586,0,0,1,0-1.173H10.91a.586.586,0,0,1,0,1.173Zm.221-2.893H5.489a.586.586,0,0,1,0-1.173h5.642a.569.569,0,0,1,.405.169.589.589,0,0,1-.405,1Z" transform="translate(2.4)" fill="#2a2c2e"/>
</svg>
