<svg xmlns="http://www.w3.org/2000/svg" fill="none" viewBox="0 0 22 22" width="22" height="22"><path fill="#2A2C2E" fill-rule="evenodd" d="M11 .92a10.1 10.1 0 0 1 0 20.16A10.1 10.1 0 0 1 11 .92Zm0 11.68a6.06 6.06 0 0 0-5.97 5.33 9.1 9.1 0 0 0 11.94 0A6.06 6.06 0 0 0 11 12.6Zm0-10.76a9.17 9.17 0 0 0-6.78 15.3A7 7 0 0 1 11 11.67a7 7 0 0 1 6.78 5.47A9.17 9.17 0 0 0 11 1.84Zm0 2.12a3.24 3.24 0 1 1 0 6.5 3.24 3.24 0 0 1 0-6.5Zm0 .93a2.32 2.32 0 1 0 0 4.63 2.32 2.32 0 0 0 0-4.63Z" clip-rule="evenodd"/></svg>