<svg width="39" height="35" viewBox="0 0 39 35" fill="none" xmlns="http://www.w3.org/2000/svg">
<path d="M19.9575 3.9735C18.1918 2.35783 15.8821 1.28243 13.2843 1.04753C7.07743 0.487435 1.58008 4.94246 1.00604 10.9985C0.701341 14.2085 1.85092 17.2167 3.91459 19.4255L1.87123 25L10.8083 22.9233" stroke="#4B286D" stroke-width="2" stroke-linecap="round" stroke-linejoin="round"/>
<path fill-rule="evenodd" clip-rule="evenodd" d="M26.4579 7C32.8088 7 37.9575 12.3512 37.9575 18.952C37.9575 22.4521 36.5014 25.5899 34.196 27.7758L35.7318 34L26.8639 30.8838C26.7283 30.8883 26.5949 30.9047 26.4579 30.9047C20.107 30.9047 14.9575 25.5534 14.9575 18.952C14.9575 12.3512 20.107 7 26.4579 7Z" stroke="#4B286D" stroke-width="2" stroke-linecap="round" stroke-linejoin="round"/>
</svg>
