<svg width="24" height="24" viewBox="0 0 24 24" fill="none" xmlns="http://www.w3.org/2000/svg">
<path fill-rule="evenodd" clip-rule="evenodd" d="M22.9355 13.8363C22.9355 15.2293 21.7585 16.4063 20.3665 16.4063H11.9595C11.8685 16.4063 11.7445 16.4063 11.6375 16.5153L4.97251 21.8613L6.76951 17.1473L6.77751 17.1023C6.77751 16.9163 6.77751 16.7243 6.65851 16.6043C6.56951 16.5163 6.45851 16.4063 6.24551 16.4063H3.63351C2.24051 16.4063 1.06351 15.2293 1.06351 13.8363V3.6333C1.06351 2.2403 2.24051 1.0643 3.63351 1.0643L20.3665 0.982301C21.7585 0.982301 22.9355 2.1593 22.9355 3.5523V13.8363ZM20.3665 0.000301361H3.63351C1.66451 0.000301361 -0.000488281 1.6643 -0.000488281 3.6333V13.7553C-0.000488281 15.7583 1.62951 17.3883 3.63351 17.3883H5.41451L3.27751 23.1683C3.22451 23.2753 3.21851 23.4103 3.26051 23.5383C3.30151 23.6583 3.37951 23.7583 3.47851 23.8153C3.59151 23.9183 3.70951 23.9183 3.79651 23.9183H4.08551L12.1655 17.4703H20.3665C22.3695 17.4703 23.9995 15.8403 23.9995 13.8363V3.6333C23.9995 1.6293 22.3695 0.000301361 20.3665 0.000301361Z" fill="#4B286D"/>
<mask id="mask0_1940_38056" style="mask-type:alpha" maskUnits="userSpaceOnUse" x="-1" y="0" width="25" height="24">
<path fill-rule="evenodd" clip-rule="evenodd" d="M22.9355 13.8363C22.9355 15.2293 21.7585 16.4063 20.3665 16.4063H11.9595C11.8685 16.4063 11.7445 16.4063 11.6375 16.5153L4.97251 21.8613L6.76951 17.1473L6.77751 17.1023C6.77751 16.9163 6.77751 16.7243 6.65851 16.6043C6.56951 16.5163 6.45851 16.4063 6.24551 16.4063H3.63351C2.24051 16.4063 1.06351 15.2293 1.06351 13.8363V3.6333C1.06351 2.2403 2.24051 1.0643 3.63351 1.0643L20.3665 0.982301C21.7585 0.982301 22.9355 2.1593 22.9355 3.5523V13.8363ZM20.3665 0.000301361H3.63351C1.66451 0.000301361 -0.000488281 1.6643 -0.000488281 3.6333V13.7553C-0.000488281 15.7583 1.62951 17.3883 3.63351 17.3883H5.41451L3.27751 23.1683C3.22451 23.2753 3.21851 23.4103 3.26051 23.5383C3.30151 23.6583 3.37951 23.7583 3.47851 23.8153C3.59151 23.9183 3.70951 23.9183 3.79651 23.9183H4.08551L12.1655 17.4703H20.3665C22.3695 17.4703 23.9995 15.8403 23.9995 13.8363V3.6333C23.9995 1.6293 22.3695 0.000301361 20.3665 0.000301361Z" fill="white"/>
</mask>
<g mask="url(#mask0_1940_38056)">
<rect width="24" height="24" fill="#4B286D"/>
</g>
</svg>
