<svg xmlns="http://www.w3.org/2000/svg" fill="none" viewBox="0 0 34 32" width="33" height="32"><path fill="currentColor" fill-rule="evenodd" d="M16.5 0C25.6 0 33 7.2 33 16s-7.4 16-16.5 16C7.5 32 0 24.8 0 16S7.4 0 16.5 0Zm0 1.4C8.2 1.4 1.5 8 1.5 16s6.7 14.6 15 14.6 15-6.6 15-14.6-6.7-14.6-15-14.6Zm0 22.2c.8 0 1.5.7 1.5 1.4 0 .8-.7 1.4-1.5 1.4s-1.4-.6-1.4-1.4c0-.7.6-1.4 1.4-1.4Zm0-16.7a5 5 0 0 1 5 4.7v1.2c0 1.3-.4 2.4-1.2 3.3l-.2.2-1.8 1.8c-.6.5-1 1.3-1 2.1v1.3c0 .5-.4.8-.8.8a.7.7 0 0 1-.7-.6v-1.1c0-1.3.4-2.4 1.2-3.3l.3-.2 1.7-1.8c.6-.6 1-1.3 1-2.1v-1.3c0-2-1.5-3.5-3.5-3.5a3.5 3.5 0 0 0-3.5 3.2V13.2c0 .4-.4.7-.8.7a.7.7 0 0 1-.7-.6v-1.5a5 5 0 0 1 5-4.9Z" clip-rule="evenodd"/></svg>