
<svg id="Group_18" data-name="Group 18" xmlns="http://www.w3.org/2000/svg" width="17" height="17" viewBox="0 0 17 17">
  <path id="Shape" d="M8.5,17A8.5,8.5,0,1,1,17,8.5,8.51,8.51,0,0,1,8.5,17Zm0-16A7.5,7.5,0,1,0,16,8.5,7.508,7.508,0,0,0,8.5,1Z" fill="#eee"/>
  <path id="Path" d="M15.567,13.222A8.5,8.5,0,0,0,17,8.5H16A7.5,7.5,0,1,1,8.5,1V0a8.5,8.5,0,1,0,7.067,13.222Z" transform="translate(0)" fill="#4b286d"/>
  <rect id="Rectangle" width="1" height="7" transform="translate(6 5)" fill="#4b286d"/>
  <rect id="Rectangle-2" data-name="Rectangle" width="1" height="7" transform="translate(10 5)" fill="#4b286d"/>
</svg>
