
<svg xmlns="http://www.w3.org/2000/svg" xmlns:xlink="http://www.w3.org/1999/xlink" width="10.111" height="14" viewBox="0 0 10.111 14">
  <defs>
    <linearGradient id="linear-gradient" x1="0.161" x2="0.865" y2="1" gradientUnits="objectBoundingBox">
      <stop offset="0" stop-color="#c69a63"/>
      <stop offset="1" stop-color="#4c2b02"/>
    </linearGradient>
  </defs>
  <g id="Path_Copy_7" data-name="Path Copy 7" transform="translate(7678 566.5)">
    <path id="Path_Copy_7-2" data-name="Path Copy 7" d="M10.111,8.6c0,3.554-4.445,5.19-5.056,5.4C4.445,13.792,0,12.156,0,8.6V2.3a.641.641,0,0,1,.445-.65L4.85.028a.755.755,0,0,1,.4,0l4.41,1.62a.7.7,0,0,1,.454.654Z" transform="translate(-7678 -566.5)" fill="none"/>
    <path id="Path_Copy_7-3" data-name="Path Copy 7" d="M10.111,8.6c0,3.554-4.445,5.19-5.056,5.4C4.445,13.792,0,12.156,0,8.6V2.3a.641.641,0,0,1,.445-.65L4.85.028a.755.755,0,0,1,.4,0l4.41,1.62a.7.7,0,0,1,.454.654Z" transform="translate(-7678 -566.5)" fill="url(#linear-gradient)"/>
  </g>
</svg>
