<svg xmlns="http://www.w3.org/2000/svg" fill="none" viewBox="0 0 24 24" width="24" height="24"><path fill="#54595F" fill-rule="evenodd" d="M11.97 24c6.61 0 11.97-5.37 11.97-12S18.58 0 11.97 0A11.99 11.99 0 0 0 0 12c0 6.63 5.36 12 11.97 12Zm6.02-13.9c0 3.82-2.9 8.23-8.21 8.23a8.15 8.15 0 0 1-4.42-1.3 5.86 5.86 0 0 0 4.27-1.2 2.89 2.89 0 0 1-2.7-2 2.87 2.87 0 0 0 1.3-.06 2.9 2.9 0 0 1-2.3-2.83v-.04c.38.22.83.35 1.3.36a2.9 2.9 0 0 1-.9-3.86 8.19 8.19 0 0 0 5.95 3.02 2.9 2.9 0 0 1 4.92-2.64 5.77 5.77 0 0 0 1.83-.7 2.9 2.9 0 0 1-1.27 1.6 5.75 5.75 0 0 0 1.66-.45 5.88 5.88 0 0 1-1.44 1.5 8 8 0 0 1 .01.37Z" clip-rule="evenodd"/></svg>