<svg width="30" height="30" viewBox="0 0 30 30" fill="none" xmlns="http://www.w3.org/2000/svg">
<path d="M23.195 21H17.5C17.224 21 17 20.776 17 20.5C17 20.224 17.224 20 17.5 20H23.195C26.396 20 29 17.421 29 14.25C29 11.079 26.396 8.5 23.195 8.5C22.972 8.505 22.637 8.333 22.601 8.081C22.023 4.044 18.483 1 14.369 1C9.778 1 6.044 4.701 6.044 9.25C6.044 9.613 6.074 9.99 6.141 10.438C6.162 10.582 6.12 10.727 6.024 10.837C5.929 10.946 5.792 11.01 5.646 11.01C5.622 11.01 5.546 11.003 5.522 11C3.038 11 1 13.019 1 15.5C1 17.981 3.038 20 5.544 20H11.5C11.776 20 12 20.224 12 20.5C12 20.776 11.776 21 11.5 21H5.544C2.487 21 0 18.532 0 15.5C0 12.621 2.24 10.252 5.082 10.019C5.057 9.749 5.044 9.494 5.044 9.25C5.044 4.149 9.228 0 14.369 0C18.83 0 22.688 3.198 23.519 7.508C27.121 7.676 30 10.636 30 14.25C30 17.972 26.947 21 23.195 21Z" fill="#4B286D"/>
<path d="M14.5002 29.9992C14.3723 29.9992 14.2442 29.9503 14.1462 29.8533L9.14625 24.8533C8.95125 24.6583 8.95125 24.3413 9.14625 24.1462C9.34125 23.9513 9.65825 23.9513 9.85325 24.1462L14.4992 28.7923L19.1453 24.1462C19.3403 23.9513 19.6573 23.9513 19.8523 24.1462C20.0472 24.3413 20.0472 24.6583 19.8523 24.8533L14.8523 29.8533C14.7562 29.9503 14.6282 29.9992 14.5002 29.9992Z" fill="#4B286D"/>
<path d="M14.5 30C14.224 30 14 29.776 14 29.5V10.5C14 10.224 14.224 10 14.5 10C14.776 10 15 10.224 15 10.5V29.5C15 29.776 14.776 30 14.5 30Z" fill="#4B286D"/>
</svg>
