<svg id="icons_Document" data-name="icons/Document" xmlns="http://www.w3.org/2000/svg" xmlns:xlink="http://www.w3.org/1999/xlink" width="64" height="64.001" viewBox="0 0 64 64.001">
  <defs>
    <clipPath id="clip-path">
      <path id="Document" d="M1.334,64A1.335,1.335,0,0,1,0,62.666V17.333a1.335,1.335,0,0,1,.389-.943l16-16A1.335,1.335,0,0,1,17.333,0H46.666A1.335,1.335,0,0,1,48,1.334V62.666A1.335,1.335,0,0,1,46.666,64Zm1.332-2.666H45.331l0-58.668H18.667V17.333a1.335,1.335,0,0,1-1.334,1.334H2.666ZM4.55,16H16L16,4.55ZM9.334,56a1.333,1.333,0,1,1,0-2.666H38.666a1.333,1.333,0,1,1,0,2.666Zm0-8a1.333,1.333,0,1,1,0-2.666H38.666a1.333,1.333,0,1,1,0,2.666Zm0-8a1.333,1.333,0,1,1,0-2.666H38.666a1.333,1.333,0,1,1,0,2.666Zm0-8a1.333,1.333,0,1,1,0-2.666H38.666a1.333,1.333,0,1,1,0,2.666Zm0-8a1.333,1.333,0,1,1,0-2.666H38.666a1.333,1.333,0,1,1,0,2.666Zm16-8a1.333,1.333,0,1,1,0-2.666H38.666a1.333,1.333,0,1,1,0,2.666Z" fill="#4b286d"/>
    </clipPath>
  </defs>
  <g id="Group_1" data-name="Group 1" transform="translate(8)">
    <path id="Document-2" data-name="Document" d="M1.334,64A1.335,1.335,0,0,1,0,62.666V17.333a1.335,1.335,0,0,1,.389-.943l16-16A1.335,1.335,0,0,1,17.333,0H46.666A1.335,1.335,0,0,1,48,1.334V62.666A1.335,1.335,0,0,1,46.666,64Zm1.332-2.666H45.331l0-58.668H18.667V17.333a1.335,1.335,0,0,1-1.334,1.334H2.666ZM4.55,16H16L16,4.55ZM9.334,56a1.333,1.333,0,1,1,0-2.666H38.666a1.333,1.333,0,1,1,0,2.666Zm0-8a1.333,1.333,0,1,1,0-2.666H38.666a1.333,1.333,0,1,1,0,2.666Zm0-8a1.333,1.333,0,1,1,0-2.666H38.666a1.333,1.333,0,1,1,0,2.666Zm0-8a1.333,1.333,0,1,1,0-2.666H38.666a1.333,1.333,0,1,1,0,2.666Zm0-8a1.333,1.333,0,1,1,0-2.666H38.666a1.333,1.333,0,1,1,0,2.666Zm16-8a1.333,1.333,0,1,1,0-2.666H38.666a1.333,1.333,0,1,1,0,2.666Z" fill="#4b286d"/>
    <g id="Mask_Group_1" data-name="Mask Group 1" clip-path="url(#clip-path)">
      <g id="colour">
        <rect id="bg_icon_default" data-name="bg/icon/default" width="48" height="64.001" fill="#4b286d"/>
      </g>
    </g>
  </g>
</svg>
