<svg xmlns="http://www.w3.org/2000/svg" fill="none" viewBox="0 0 20 21"><g clip-path="url(#a-ico-support-footer)"><path fill="#2A2C2E" fill-rule="evenodd" d="M18.3 5.8c1 0 1.7.8 1.7 1.7v7.6c0 1.2-1 2.1-2 2.1h-.6V20a.4.4 0 0 1-.8.3l-3.1-3.2H6.4c-.9 0-1.6-.4-2-1.1a.4.4 0 1 1 .8-.4c.2.4.7.7 1.2.7h7.5l2.6 2.7v-2.3c0-.3.2-.4.4-.4h1c.7 0 1.3-.6 1.3-1.3V7.5c0-.5-.4-.9-1-.9h-2.6a.4.4 0 0 1 0-.8h2.7ZM13 .5c1 0 1.7.8 1.7 1.7v7.6c0 1.2-1 2.1-2 2.1H6.8l-3.6 3.2a.4.4 0 0 1-.4 0 .4.4 0 0 1-.3-.3v-2.9h-.9c-1 0-1.7-.8-1.7-1.7v-8C0 1.2.8.5 1.7.5H13Zm0 .8H1.7a1 1 0 0 0-.9 1v7.9c0 .5.4.9 1 .9H3c.2 0 .4.2.4.4v2.4l3-2.7.3-.1h5.8c.7 0 1.3-.6 1.3-1.3V2.2a1 1 0 0 0-1-.9Z" clip-rule="evenodd"/><mask id="b" width="6" height="8" x="4" y="2" fill="#000" maskUnits="userSpaceOnUse"><path fill="#fff" d="M4 2h6v8H4z"/><path fill-rule="evenodd" d="M7.3 7.6V7l.2-.3.4-.3.4-.3c.3-.1.5-.4.6-.6.2-.3.3-.5.3-.8 0-.4-.1-.7-.3-1l-.7-.5-1-.2c-.8 0-1.3.2-1.6.5A2 2 0 0 0 5 5h.7c0-.4.2-.7.4-1 .2-.2.6-.3 1-.3s.7.1 1 .3c.2.1.3.4.3.7l-.1.6-.7.6-.6.4-.3.5V7.6h.6Zm.1 1.2a.5.5 0 1 1-.9 0 .5.5 0 0 1 1 0Z" clip-rule="evenodd"/></mask><path fill="#2A2C2E" fill-rule="evenodd" d="M7.3 7.6V7l.2-.3.4-.3.4-.3c.3-.1.5-.4.6-.6.2-.3.3-.5.3-.8 0-.4-.1-.7-.3-1l-.7-.5-1-.2c-.8 0-1.3.2-1.6.5A2 2 0 0 0 5 5h.7c0-.4.2-.7.4-1 .2-.2.6-.3 1-.3s.7.1 1 .3c.2.1.3.4.3.7l-.1.6-.7.6-.6.4-.3.5V7.6h.6Zm.1 1.2a.5.5 0 1 1-.9 0 .5.5 0 0 1 1 0Z" clip-rule="evenodd"/><path fill="#2A2C2E" d="M7.3 7.6v.1h.1Zm0-.6Zm.6-.6Zm.4-.3Zm.6-2.3v-.1Zm-.7-.6V3Zm-2.6.3ZM5 5h-.1V5H5Zm.7 0V5h.1Zm.4-1Zm1.5 1.9v-.1Zm-.6.4h.1Zm-.4 1.4v.1Zm.6 0h.2-.2Zm0-.6v.6h.2V7h-.1Zm.3-.4-.2.4h.2l.1-.2-.1-.2Zm.3-.3-.3.3.1.2.3-.3v-.2Zm.4-.2-.4.2.1.2.4-.3v-.1Zm.7-.7-.7.7.1.1c.4-.2.6-.4.7-.7H9Zm.2-.7-.2.7.1.1c.2-.2.3-.5.3-.8H9Zm-.3-.9c.2.2.3.5.3.9h.2c0-.4-.1-.7-.3-1l-.2.1Zm-.7-.5c.3.1.6.3.7.5l.2-.1c-.2-.3-.5-.5-.8-.6v.2Zm-1-.2c.4 0 .7 0 1 .2l.1-.2-1-.2v.2Zm-1.5.5c.4-.3.9-.5 1.5-.5v-.2c-.7 0-1.2.2-1.6.5l.1.2Zm-.5 1.3c0-.5.2-1 .5-1.3v-.2c-.5.4-.7.9-.7 1.5h.2Zm.6 0H5V5h.7v-.2Zm.3-1c-.2.2-.3.6-.4 1h.2c0-.4.2-.7.4-.9L6 4Zm1.1-.4c-.5 0-.8.1-1 .4V4c.3-.2.6-.3 1-.3v-.2Zm1 .3c-.2-.2-.6-.3-1-.3v.2c.4 0 .7.1 1 .3v-.2Zm.4.8a1 1 0 0 0-.4-.8V4l.2.6h.2Zm-.2.7c.2-.2.2-.4.2-.7h-.2l-.1.6h.1Zm-.6.5c.3-.1.5-.3.6-.5l-.1-.1-.6.5.1.1Zm-.6.5.6-.5-.1-.1L7 6l.1.2Zm-.3.4.3-.4L7 6l-.4.6h.2Zm0 .7v-.7h-.2v.7h.1Zm0 .2v-.2h-.3v.2h.2Zm.5 0h-.7v.1h.7v-.2ZM7 9.3c.3 0 .5-.3.5-.6h-.2c0 .2-.1.4-.3.4v.2Zm-.6-.6c0 .3.3.6.6.6v-.2a.4.4 0 0 1-.4-.4h-.2Zm.6-.6c-.3 0-.6.3-.6.6h.2c0-.2.2-.4.4-.4v-.2Zm.5.6c0-.3-.2-.6-.5-.6v.2c.2 0 .3.2.3.4h.2Z" mask="url(#b)"/></g><defs><clipPath id="a-ico-support-footer"><path fill="#fff" d="M0 0h20v20H0z" transform="translate(0 .5)"/></clipPath></defs></svg>