<svg xmlns="http://www.w3.org/2000/svg" xmlns:xlink="http://www.w3.org/1999/xlink" width="24" height="15.6" viewBox="0 0 24 15.6">
  <defs>
    <clipPath id="clip-path">
      <rect width="24" height="15.6" fill="none"/>
    </clipPath>
  </defs>
  <g id="Group_20" data-name="Group 20" clip-path="url(#clip-path)">
    <g id="Group_20-2" data-name="Group 20" transform="translate(0 0)">
      <path id="Path" d="M12,0a6.782,6.782,0,0,1,5.29,2.534A4.7,4.7,0,0,1,24,6.76a.522.522,0,0,1-1.043,0A3.656,3.656,0,0,0,17.886,3.4a6.7,6.7,0,0,1,.9,3.356.522.522,0,0,1-1.043,0,5.739,5.739,0,0,0-11.478,0,.522.522,0,0,1-1.043,0,6.7,6.7,0,0,1,.9-3.355A3.654,3.654,0,0,0,1.043,6.76.522.522,0,0,1,0,6.76,4.7,4.7,0,0,1,6.711,2.532,6.783,6.783,0,0,1,12,0Z" transform="translate(0 8.32)" fill="#2a2c2e"/>
      <path id="Path-2" data-name="Path" d="M2.609,5.2A2.6,2.6,0,1,1,5.217,2.6,2.608,2.608,0,0,1,2.609,5.2Z" transform="translate(2.161 4.16)" fill="#2a2c2e"/>
      <path id="Path-3" data-name="Path" d="M1.565,0A1.56,1.56,0,1,0,3.13,1.56,1.565,1.565,0,0,0,1.565,0Z" transform="translate(3.205 5.2)" fill="#fff"/>
      <path id="Path-4" data-name="Path" d="M3.652,7.28A3.64,3.64,0,1,1,7.3,3.64,3.65,3.65,0,0,1,3.652,7.28Z" transform="translate(8.348)" fill="#2a2c2e"/>
      <path id="Path-5" data-name="Path" d="M2.609,0A2.6,2.6,0,1,0,5.217,2.6,2.608,2.608,0,0,0,2.609,0Z" transform="translate(9.391 1.04)" fill="#fff"/>
      <path id="Path-6" data-name="Path" d="M2.609,5.2A2.6,2.6,0,1,1,5.217,2.6,2.608,2.608,0,0,1,2.609,5.2Z" transform="translate(16.696 4.16)" fill="#2a2c2e"/>
      <path id="Path-7" data-name="Path" d="M1.565,0A1.56,1.56,0,1,0,3.13,1.56,1.565,1.565,0,0,0,1.565,0Z" transform="translate(17.739 5.2)" fill="#fff"/>
    </g>
  </g>
</svg>
