<svg xmlns="http://www.w3.org/2000/svg" viewBox="0 0 31.83 33.5" width="32" height="34"><g data-name="Group 5662"><path fill="none" stroke="#2a2c2e" stroke-miterlimit="10" stroke-width="1.5" d="M18.25 26.75h-4.17v-4l12.5-12 4.17 4Z" data-name="Path 506"/><g fill="none" stroke="#2a2c2e" stroke-miterlimit="10" stroke-width="1.5" data-name="Gruppe 7923"><path d="M12.26 26.72H4.43M12.23 23.55h-7.8M16.8 20.37H4.43M20.11 17.2H4.43M20.94 14.03H4.44" data-name="Rechteck 7493"/><path d="M24.92 12.05V6.41a2.38 2.38 0 0 0-2.43-2.32h-5.34V2.12A1.4 1.4 0 0 0 15.7.74H9.97a1.4 1.4 0 0 0-1.44 1.38V4.1H3.17A2.38 2.38 0 0 0 .75 6.4v24.01a2.38 2.38 0 0 0 2.42 2.33H22.5c1.34 0 2.43-.69 2.43-1.97V20.4M6.28 4.3v2.35A1.4 1.4 0 0 0 7.7 8h10.24a1.4 1.4 0 0 0 1.44-1.37V4.28" data-name="Pfad 32178"/></g><path fill="#2a2c2e" d="m14.08 26.75 2.5-2 1.67 1.6" data-name="Path 507"/></g></svg>