<svg xmlns="http://www.w3.org/2000/svg" width="77" height="55" viewBox="0 0 77 55">
  <g id="Group_11" data-name="Group 11" transform="translate(0 0)">
    <path id="Fill_137" data-name="Fill 137" d="M17.129,21a1.119,1.119,0,0,1-.509-.124L11,17.918,5.38,20.876A1.031,1.031,0,0,1,4.873,21,1.085,1.085,0,0,1,3.8,19.732l1.069-6.264L.328,9.028A1.067,1.067,0,0,1,.056,7.916,1.076,1.076,0,0,1,.927,7.17l6.29-.909L10.028.56a1.127,1.127,0,0,1,1.948,0l2.811,5.7,6.279.909a1.1,1.1,0,0,1,.882.746,1.077,1.077,0,0,1-.28,1.112l-4.545,4.44,1.069,6.264a1.082,1.082,0,0,1-.426,1.059A1.067,1.067,0,0,1,17.129,21ZM11,15.6a1.126,1.126,0,0,1,.511.124l4.174,2.2-.808-4.657a1.1,1.1,0,0,1,.316-.964l3.38-3.3-4.666-.684a1.09,1.09,0,0,1-.823-.592L11,3.5,8.911,7.733a1.069,1.069,0,0,1-.812.592l-4.674.684,3.38,3.3a1.083,1.083,0,0,1,.309.964l-.8,4.657,4.178-2.2A1.094,1.094,0,0,1,11,15.6Z" transform="translate(27 17)" fill="#4b286d"/>
    <path id="Fill_138" data-name="Fill 138" d="M20,55a1.114,1.114,0,0,1-.524-.134L6.655,47.672A13.061,13.061,0,0,1,0,36.3V11.082a1.048,1.048,0,0,1,.387-.818.953.953,0,0,1,.682-.278c2.061,0,12.614-.458,18.017-9.5a1.109,1.109,0,0,1,1.831,0c5.4,9.044,15.956,9.5,18.016,9.5a1.063,1.063,0,0,1,1.055.922C40,11.08,40,36.044,40,36.3a13.074,13.074,0,0,1-6.647,11.376L20.527,54.866A1.1,1.1,0,0,1,20,55ZM20,2.987a20.935,20.935,0,0,1-8.391,6.832,25.5,25.5,0,0,1-9.478,2.287V36.3A10.909,10.909,0,0,0,7.706,45.8L20,52.7l12.3-6.9a10.912,10.912,0,0,0,5.56-9.506V12.106a25.55,25.55,0,0,1-9.476-2.287A20.885,20.885,0,0,1,20,2.987Z" transform="translate(18)" fill="#4b286d"/>
    <path id="Fill_139" data-name="Fill 139" d="M20.174,43a1.077,1.077,0,0,1-.528-.14l-10.8-5.984a8.684,8.684,0,0,1-4.5-7.574V8.12a1.082,1.082,0,0,1,.922-1.057A26.049,26.049,0,0,0,19.417.308,1.089,1.089,0,0,1,20.174,0a1.07,1.07,0,0,1,.752.308,26.1,26.1,0,0,0,14.16,6.755A1.08,1.08,0,0,1,36,8.12V29.3a8.683,8.683,0,0,1-4.493,7.574l-10.8,5.984A1.1,1.1,0,0,1,20.174,43Zm0-40.464a26.554,26.554,0,0,1-6.248,4.1A29.974,29.974,0,0,1,6.507,9.021V29.3a6.559,6.559,0,0,0,3.385,5.714L20.174,40.7l10.283-5.688A6.552,6.552,0,0,0,33.839,29.3V9.021a29.972,29.972,0,0,1-7.416-2.386,26.572,26.572,0,0,1-6.249-4.1Zm-19.1,7A1.149,1.149,0,0,1,.6,9.425a1.065,1.065,0,0,1-.59-1.1,1.1,1.1,0,0,1,1.064-.93A1.084,1.084,0,0,1,2.1,8.048a1.048,1.048,0,0,1-.237,1.161A1.108,1.108,0,0,1,1.077,9.533Z" transform="translate(18 7)" fill="#4b286d"/>
    <path id="Fill_140" data-name="Fill 140" d="M2.044,3.188c-.1,0-.22,0-.348-.008A1.184,1.184,0,0,1,1.728.812h.548A1.185,1.185,0,0,1,2.348,3.18c-.076.008-.18.008-.3.008" transform="translate(55 9)" fill="#4b286d"/>
    <path id="Fill_141" data-name="Fill 141" d="M2.044,3.188c-.1,0-.22,0-.348-.008A1.184,1.184,0,0,1,1.728.812h.548A1.185,1.185,0,0,1,2.348,3.18c-.076.008-.18.008-.3.008" transform="translate(55 9)" fill="#4b286d"/>
    <path id="Fill_142" data-name="Fill 142" d="M19.908,17H1.089a1.086,1.086,0,0,1-.8-1.825L6.377,8.5.287,1.829A1.107,1.107,0,0,1,.088.653a1.1,1.1,0,0,1,1-.653H19.908A1.091,1.091,0,0,1,21,1.088V15.912A1.091,1.091,0,0,1,19.908,17ZM3.557,2.183,8.65,7.766a1.1,1.1,0,0,1,0,1.471L3.557,14.824H18.819V2.183H3.557Z" transform="translate(0 18)" fill="#4b286d"/>
    <path id="Fill_143" data-name="Fill 143" d="M19.911,17H1.089A1.09,1.09,0,0,1,0,15.912V1.088A1.09,1.09,0,0,1,1.089,0H19.911a1.093,1.093,0,0,1,1,.653,1.107,1.107,0,0,1-.2,1.176L14.628,8.5l6.085,6.675a1.086,1.086,0,0,1-.8,1.825ZM2.174,2.183v12.64H17.442L12.351,9.238a1.091,1.091,0,0,1,0-1.471l5.091-5.583Z" transform="translate(56 18)" fill="#4b286d"/>
  </g>
</svg>
