<svg xmlns="http://www.w3.org/2000/svg" width="22" height="22" viewBox="0 0 22 22">
  <g id="icon" transform="translate(-1 -1)">
    <path id="Fill_1" data-name="Fill 1" d="M8.383,22a5.592,5.592,0,0,1-1.508-.208l-3.2-.9H.1a.1.1,0,0,1-.1-.1v-.725a.1.1,0,0,1,.1-.1H3.783a.09.09,0,0,1,.028,0l3.32.939a4.6,4.6,0,0,0,1.255.174,4.67,4.67,0,0,0,1.953-.432l8.383-3.9a.942.942,0,0,0,.536-.844.922.922,0,0,0-.061-.327.934.934,0,0,0-.869-.6.921.921,0,0,0-.327.06l-7.92,3a1.913,1.913,0,0,1-.686.127A1.889,1.889,0,0,1,8.28,17.8L6.512,16.532H4.46a.1.1,0,0,1-.1-.1v-.725a.1.1,0,0,1,.1-.1H9.365a.806.806,0,1,0,0-1.613h-4a1.726,1.726,0,0,0-1.212.5l-.543.541a2.625,2.625,0,0,1-1.868.773H.1a.1.1,0,0,1-.1-.1v-.725a.1.1,0,0,1,.1-.1c.627,0,1.44-.005,1.715-.008V7.723A1.192,1.192,0,0,1,3.007,6.532H6.449L12.213.773A2.632,2.632,0,0,1,14.082,0H21.9a.1.1,0,0,1,.1.1V.827a.1.1,0,0,1-.1.1H14.082a1.723,1.723,0,0,0-1.212.5l-5.115,5.1h2.513a.1.1,0,0,1,.1.1v.725a.1.1,0,0,1-.1.1H3a.264.264,0,0,0-.263.264v6.835a1.606,1.606,0,0,0,.209-.179l.541-.54a2.626,2.626,0,0,1,.83-.56.58.58,0,0,0-.54-.375H3.37a.1.1,0,0,1-.1-.1V9.174a.1.1,0,0,1,.1-.1h.409a.58.58,0,0,0,.58-.58V8.086a.1.1,0,0,1,.1-.1H7a.1.1,0,0,1,.1.1v.725a.1.1,0,0,1-.1.1H5.228A1.51,1.51,0,0,1,4.2,9.942v2.093a1.53,1.53,0,0,1,1.03,1.03h.584v-.445a.1.1,0,0,1,.078-.1l1.235-.3.214-.517-.668-1.086a.1.1,0,0,1,.014-.124L7.968,9.22a.1.1,0,0,1,.071-.03.1.1,0,0,1,.053.015l1.086.668L9.7,9.659l.3-1.235a.1.1,0,0,1,.1-.077h1.816a.1.1,0,0,1,.1.077l.3,1.235.518.214,1.086-.668a.1.1,0,0,1,.052-.015.106.106,0,0,1,.073.03l1.281,1.28a.1.1,0,0,1,.014.124l-.668,1.086.215.517,1.236.3a.1.1,0,0,1,.077.1v.445h.583a1.533,1.533,0,0,1,1.031-1.03V9.942a1.54,1.54,0,0,1-1.031-1.031H15a.1.1,0,0,1-.1-.1V8.086a.1.1,0,0,1,.1-.1h2.543a.1.1,0,0,1,.1.1v.408a.581.581,0,0,0,.58.58h.409a.1.1,0,0,1,.1.1V12.8a.1.1,0,0,1-.1.1h-.409a.581.581,0,0,0-.58.581v.408a.1.1,0,0,1-.1.1H16.187v.445a.1.1,0,0,1-.077.1l-1.236.3-.2.477,2.991-1.133a1.867,1.867,0,0,1,1.587.127V7.723a.263.263,0,0,0-.261-.264H13.254a1.771,1.771,0,0,1-.806.2,1.746,1.746,0,0,1-1.23-2.98l2.724-2.723a.1.1,0,0,1,.144,0l.514.513a.1.1,0,0,1,0,.144L11.876,5.332a.818.818,0,0,0,.579,1.4.815.815,0,0,0,.58-.239L15.5,4.027A.1.1,0,0,1,15.573,4h2.693a.1.1,0,0,1,.1.1v.726a.1.1,0,0,1-.1.1H15.915L14.3,6.538h4.5l.742-.742a1.191,1.191,0,0,1,.844-.346H21.9a.1.1,0,0,1,.1.1v.725a.1.1,0,0,1-.1.1H20.391a.258.258,0,0,0-.187.075l-.4.4a1.187,1.187,0,0,1,.383.874V15.9a1.885,1.885,0,0,1-1.075,1.684l-8.384,3.9A5.533,5.533,0,0,1,8.383,22ZM8.1,16.532l.714.512a.964.964,0,0,0,.576.19.981.981,0,0,0,.35-.065l4.01-1.523-.113-.182a.1.1,0,0,1-.006-.092l.536-1.293a.1.1,0,0,1,.069-.059l1.008-.239v-.509l-1.008-.238a.1.1,0,0,1-.069-.061l-.536-1.292a.1.1,0,0,1,.006-.091l.544-.89-.359-.359-.89.545a.1.1,0,0,1-.052.015.094.094,0,0,1-.039-.009l-1.294-.535a.1.1,0,0,1-.059-.069l-.241-1.007h-.509L10.5,10.286a.1.1,0,0,1-.06.069l-1.294.535a.09.09,0,0,1-.039.009.1.1,0,0,1-.052-.015l-.891-.545L7.8,10.7l.545.89a.1.1,0,0,1,.006.091l-.536,1.292a.1.1,0,0,1-.07.06l-.135.033H9.14A1.917,1.917,0,1,1,11,15.444h-.023a1.734,1.734,0,0,1-1.613,1.089ZM11,12.54a.988.988,0,0,0-.933.671,1.745,1.745,0,0,1,1.013,1.3,1.006,1.006,0,0,0,.883-.749.981.981,0,0,0-.724-1.2A1,1,0,0,0,11,12.54Z" transform="translate(1 1)" fill="#545960"/>
  </g>
</svg>
