<svg width="31" height="29" viewBox="0 0 31 29" fill="none" xmlns="http://www.w3.org/2000/svg">
<path d="M16.5607 21.4413C17.1464 22.0271 17.1464 22.9768 16.5607 23.5626C15.9749 24.1484 15.0251 24.1484 14.4393 23.5626C13.8536 22.9768 13.8536 22.0271 14.4393 21.4413C15.0251 20.8555 15.9749 20.8555 16.5607 21.4413" stroke="#C12335" stroke-linecap="round" stroke-linejoin="round"/>
<path fill-rule="evenodd" clip-rule="evenodd" d="M29.6342 23.5628L18.1342 2.56275V2.56275C17.3401 1.10858 15.5176 0.573485 14.0634 1.36756C13.5587 1.64317 13.1438 2.05804 12.8682 2.56275L1.36821 23.5628H1.36821C0.573475 25.0166 1.10776 26.8394 2.56156 27.6341C3.00302 27.8754 3.49809 28.0019 4.00121 28.0018H27.0012V28.0018C28.6581 28.0021 30.0015 26.6593 30.0019 25.0024C30.002 24.4993 29.8755 24.0042 29.6342 23.5628L29.6342 23.5628Z" stroke="#C12335" stroke-linecap="round" stroke-linejoin="round"/>
<path fill-rule="evenodd" clip-rule="evenodd" d="M16.75 9.25195V9.33995L16.125 18.627V18.665C16.1 18.989 15.825 19.252 15.5 19.252C15.175 19.252 14.9 18.989 14.875 18.665V18.627L14.25 9.33995V9.25195C14.25 8.56495 14.813 8.00195 15.5 8.00195C16.187 8.00195 16.75 8.56495 16.75 9.25195Z" stroke="#C12335" stroke-linecap="round" stroke-linejoin="round"/>
</svg>
