<svg id="_1._Elements_Icons_BusinessInsights_Clients" data-name="1. Elements/Icons/BusinessInsights/Clients" xmlns="http://www.w3.org/2000/svg" width="64" height="64" viewBox="0 0 64 64">
  <g id="Group_20" data-name="Group 20" transform="translate(0 10.667)">
    <path id="Path" d="M32,0A18.085,18.085,0,0,1,46.107,6.757,12.522,12.522,0,0,1,64,18.027a1.391,1.391,0,0,1-2.783,0A9.75,9.75,0,0,0,47.7,9.079a17.871,17.871,0,0,1,2.39,8.948,1.391,1.391,0,0,1-2.783,0,15.3,15.3,0,0,0-30.609,0,1.391,1.391,0,0,1-2.783,0A17.87,17.87,0,0,1,16.3,9.081,9.744,9.744,0,0,0,2.783,18.027a1.391,1.391,0,0,1-2.783,0A12.533,12.533,0,0,1,17.9,6.752,18.087,18.087,0,0,1,32,0Z" transform="translate(0 22.187)" fill="#4b286d"/>
    <path id="Combined_Shape" data-name="Combined Shape" d="M6.958,13.867a6.934,6.934,0,1,1,6.955-6.934A6.954,6.954,0,0,1,6.958,13.867Zm0-11.093a4.159,4.159,0,1,0,4.174,4.159A4.172,4.172,0,0,0,6.958,2.774Z" transform="translate(5.763 11.093)" fill="#4b286d"/>
    <path id="Combined_Shape-2" data-name="Combined Shape" d="M9.739,19.414a9.707,9.707,0,1,1,9.739-9.708A9.735,9.735,0,0,1,9.739,19.414Zm0-16.639A6.932,6.932,0,1,0,16.7,9.706,6.952,6.952,0,0,0,9.739,2.774Z" transform="translate(22.261 0)" fill="#4b286d"/>
    <path id="Combined_Shape-3" data-name="Combined Shape" d="M6.958,13.867a6.934,6.934,0,1,1,6.955-6.934A6.954,6.954,0,0,1,6.958,13.867Zm0-11.093a4.159,4.159,0,1,0,4.174,4.159A4.172,4.172,0,0,0,6.958,2.774Z" transform="translate(44.522 11.093)" fill="#4b286d"/>
  </g>
</svg>
