<svg xmlns="http://www.w3.org/2000/svg" width="22.8" height="22.8" viewBox="0 0 22.8 22.8">
  <g id="Group_11" data-name="Group 11" transform="translate(-1 0)">
    <path id="ComputerNetwork" d="M17.575,22.8h-7.6a.475.475,0,0,1,0-.949H13.3V20.9H7.125A2.378,2.378,0,0,1,4.75,18.525V16.966A9.022,9.022,0,1,1,18.038,8.55h2.387A2.378,2.378,0,0,1,22.8,10.925v7.6A2.378,2.378,0,0,1,20.425,20.9H14.25v.95h3.325a.475.475,0,1,1,0,.949ZM5.7,18.05v.474A1.427,1.427,0,0,0,7.125,19.95h13.3a1.427,1.427,0,0,0,1.426-1.426V18.05ZM7.125,9.5A1.427,1.427,0,0,0,5.7,10.925v5.732a.265.265,0,0,1,0,.038V17.1H21.85V10.925A1.427,1.427,0,0,0,20.425,9.5ZM2.867,14.25A8.069,8.069,0,0,0,4.75,15.867V14.25ZM.964,9.5a8.051,8.051,0,0,0,1.229,3.836.469.469,0,0,1,.182-.036H4.417a14.287,14.287,0,0,1-.61-3.8Zm3.794,0c.01.3.029.6.055.884A2.334,2.334,0,0,1,5.226,9.5Zm.663-4.75a13.357,13.357,0,0,0-.663,3.8H6.175a.47.47,0,0,1,.284.094,2.4,2.4,0,0,1,.666-.094H8.55V4.75Zm8.226,0a14.459,14.459,0,0,1,.6,3.8h2.843a8.06,8.06,0,0,0-1.235-3.834.482.482,0,0,1-.176.034ZM9.5,4.75v3.8h3.792a13.359,13.359,0,0,0-.662-3.8ZM2.2,4.716A8.059,8.059,0,0,0,.964,8.55H3.807a14.463,14.463,0,0,1,.6-3.8H2.375A.473.473,0,0,1,2.2,4.716ZM11.944,1.5h0a8.085,8.085,0,0,1,1.369,2.3h1.865A8.121,8.121,0,0,0,11.944,1.5ZM9.5,1V3.8h2.754A4.5,4.5,0,0,0,9.5,1ZM8.55,1h0A4.5,4.5,0,0,0,5.8,3.8H8.55V1ZM6.106,1.5A8.13,8.13,0,0,0,2.873,3.8H4.739A8.11,8.11,0,0,1,6.106,1.5Z" transform="translate(1 0)" fill="#54595f"/>
  </g>
</svg>
