<svg xmlns="http://www.w3.org/2000/svg" width="24" height="21" viewBox="0 0 24 21">
  <path id="Layers" d="M11.769,20.942l-11.5-6.1a.512.512,0,0,1,0-.9l1.672-.887a.5.5,0,0,1,.675.216.513.513,0,0,1-.212.686l-.823.435L12,19.92l10.419-5.526-.822-.436a.512.512,0,0,1-.212-.686.5.5,0,0,1,.675-.216l1.672.887a.513.513,0,0,1,0,.9l-11.5,6.1a.491.491,0,0,1-.462,0Zm0-4-11.5-6.1a.511.511,0,0,1,0-.9l1.672-.887a.5.5,0,0,1,.675.215.514.514,0,0,1-.212.687l-.823.435L12,15.92l10.419-5.526L21.6,9.958a.512.512,0,0,1-.212-.686.5.5,0,0,1,.675-.215l1.672.887a.512.512,0,0,1,0,.9l-11.5,6.1a.491.491,0,0,1-.462,0Zm0-4-11.5-6a.5.5,0,0,1,0-.886l11.5-6a.5.5,0,0,1,.463,0l11.5,6a.5.5,0,0,1,0,.886l-11.5,6a.5.5,0,0,1-.462,0ZM1.581,6.5,12,11.937,22.419,6.5,12,1.063Z" fill="#4b286d"/>
</svg>
