
<svg id="Group_4" data-name="Group 4" xmlns="http://www.w3.org/2000/svg" width="16" height="15.945" viewBox="0 0 16 15.945">
  <path id="Chat1" d="M2.724,15.945H2.532a.313.313,0,0,1-.167-.035l-.045-.033a.339.339,0,0,1-.145-.184.346.346,0,0,1-.01-.191l1.445-3.91H2.423A2.42,2.42,0,0,1,0,9.3L0,9.17V2.422A2.455,2.455,0,0,1,2.3,0l.127,0H13.578A2.42,2.42,0,0,1,16,2.293l0,.129v6.8a2.421,2.421,0,0,1-2.294,2.419l-.128,0H8.111l-5.386,4.3ZM13.578.654,2.423.709A1.74,1.74,0,0,0,.713,2.316l0,.106v6.8a1.742,1.742,0,0,0,1.607,1.71l.106,0H4.164a.363.363,0,0,1,.275.131.316.316,0,0,1,.076.209l0,.123-.005.03-1.2,3.143L7.759,11.01a.249.249,0,0,1,.175-.072h5.644A1.741,1.741,0,0,0,15.287,9.33l0-.106V2.368A1.741,1.741,0,0,0,13.684.658ZM11.51,7.239a1.171,1.171,0,1,1,1.171-1.17A1.172,1.172,0,0,1,11.51,7.239Zm0-1.633a.462.462,0,1,0,.462.463A.433.433,0,0,0,11.51,5.606ZM8.245,7.239a1.171,1.171,0,1,1,1.171-1.17A1.171,1.171,0,0,1,8.245,7.239Zm0-1.633a.433.433,0,0,0-.461.463.462.462,0,1,0,.461-.463ZM4.981,7.239a1.171,1.171,0,1,1,1.171-1.17A1.172,1.172,0,0,1,4.981,7.239Zm0-1.633a.462.462,0,1,0,0,.923.432.432,0,0,0,.461-.461A.433.433,0,0,0,4.981,5.606Z" fill="#4b286d"/>
</svg>
