
<svg id="Connection" xmlns="http://www.w3.org/2000/svg" width="29" height="27" viewBox="0 0 29 27">
  <path id="Shape" d="M0,4.5A4.5,4.5,0,1,1,4.5,9,4.505,4.505,0,0,1,0,4.5Z" transform="translate(20 17)" fill="#4b286d"/>
  <path id="Shape-2" data-name="Shape" d="M0,4.5A4.5,4.5,0,1,1,4.5,9,4.505,4.505,0,0,1,0,4.5Z" transform="translate(10)" fill="#4b286d"/>
  <path id="Shape-3" data-name="Shape" d="M0,4.5A4.5,4.5,0,1,1,4.5,9,4.505,4.505,0,0,1,0,4.5Z" transform="translate(0 17)" fill="#4b286d"/>
  <path id="Path" d="M.7,13.349a.5.5,0,0,1-.49-.4A11.484,11.484,0,0,1,7.394.032a.5.5,0,0,1,.354.936A10.482,10.482,0,0,0,1.191,12.754a.5.5,0,0,1-.4.586.512.512,0,0,1-.1.009Z" transform="translate(3 4.731)" fill="#4b286d"/>
  <path id="Path-2" data-name="Path" d="M7.42,3.451A11.53,11.53,0,0,1,.186.889.5.5,0,0,1,.815.112,10.528,10.528,0,0,0,7.42,2.451a10.528,10.528,0,0,0,6.6-2.339.5.5,0,0,1,.629.777A11.53,11.53,0,0,1,7.42,3.451Z" transform="translate(7.08 23.549)" fill="#4b286d"/>
  <path id="Path-3" data-name="Path" d="M7.372,13.35a.52.52,0,0,1-.1-.009.5.5,0,0,1-.4-.586,10.439,10.439,0,0,0,.191-1.985A10.528,10.528,0,0,0,.324.968.5.5,0,0,1,.678.032,11.534,11.534,0,0,1,8.071,10.77a11.441,11.441,0,0,1-.209,2.175.5.5,0,0,1-.49.4Z" transform="translate(17.929 4.73)" fill="#4b286d"/>
</svg>
