<svg width="24" height="24" viewBox="0 0 24 24" fill="none" xmlns="http://www.w3.org/2000/svg">
<path fill-rule="evenodd" clip-rule="evenodd" d="M23.7051 2.31322C23.3155 1.89548 22.6922 1.89685 22.307 2.3098L7.09639 18.6168L1.6883 12.8189C1.30967 12.413 0.68104 12.4073 0.296614 12.8194C-0.0904918 13.2344 -0.0987525 13.913 0.272177 14.3416L6.34964 21.3634C6.55544 21.6012 6.84188 21.7194 7.12657 21.7132C7.39399 21.7262 7.66475 21.6196 7.86727 21.3951L8.04052 21.2031L8.08461 21.1626C8.14499 21.1071 8.19701 21.0462 8.24065 20.9813L23.7199 3.82452C24.0995 3.40381 24.092 2.72806 23.7051 2.31322Z" fill="#248700"/>
<mask id="mask0_901_19180" style="mask-type:alpha" maskUnits="userSpaceOnUse" x="0" y="2" width="24" height="20">
<path fill-rule="evenodd" clip-rule="evenodd" d="M23.7051 2.31322C23.3155 1.89548 22.6922 1.89685 22.307 2.3098L7.09639 18.6168L1.6883 12.8189C1.30967 12.413 0.68104 12.4073 0.296614 12.8194C-0.0904918 13.2344 -0.0987525 13.913 0.272177 14.3416L6.34964 21.3634C6.55544 21.6012 6.84188 21.7194 7.12657 21.7132C7.39399 21.7262 7.66475 21.6196 7.86727 21.3951L8.04052 21.2031L8.08461 21.1626C8.14499 21.1071 8.19701 21.0462 8.24065 20.9813L23.7199 3.82452C24.0995 3.40381 24.092 2.72806 23.7051 2.31322Z" fill="white"/>
</mask>
<g mask="url(#mask0_901_19180)">
</g>
</svg>
