<svg width="41" height="35" viewBox="0 0 41 35" fill="none" xmlns="http://www.w3.org/2000/svg">
<path d="M1 20L5 23" stroke="#4B286D" stroke-width="1.5" stroke-linecap="round" stroke-linejoin="round"/>
<path d="M19 5C14.9543 3.81327 10.7605 4.18912 8.16605 4.58417C6.73484 4.80168 5.28033 4.42743 4.16697 3.53659L1 1" stroke="#4B286D" stroke-width="1.5" stroke-linecap="round" stroke-linejoin="round"/>
<path d="M22.5 11.5L35.1959 22.5325C35.7059 22.9875 36 23.649 36 24.3455V24.3525C36 25.6772 34.9579 26.75 33.671 26.75H33.4432C32.8975 26.75 32.3705 26.554 31.9523 26.1935L22.4 18L31.7687 26.036C32.2957 26.4893 32.6 27.1577 32.6 27.8647V27.87C32.6 29.1843 31.5647 30.25 30.288 30.25H30.0364C29.4958 30.25 28.9722 30.054 28.5574 29.6987L19 21.5L26.7367 28.136C27.2195 28.5525 27.5 29.1668 27.5 29.8143C27.5 31.0218 26.5497 32 25.3767 32C24.5505 32 23.7481 31.7095 23.1021 31.1793L19 27.5847" stroke="#4B286D" stroke-width="1.5" stroke-linecap="round" stroke-linejoin="round"/>
<path d="M22.6743 31C23.298 31.6239 22.9407 32.9101 22.3185 33.5324C22.0074 33.8452 21.599 34 21.1906 34C20.7822 34 20.3738 33.8452 20.0627 33.5324L18 31.6064" stroke="#4B286D" stroke-width="1.5" stroke-linecap="round" stroke-linejoin="round"/>
<path d="M39.5 19.5L35.5 22.5" stroke="#4B286D" stroke-width="1.5" stroke-linecap="round" stroke-linejoin="round"/>
<path d="M22.1711 11.6667C20.7692 12.2213 17.8948 14.9307 16.2557 16.3387C15.7525 16.7689 15.1315 17 14.4853 17H13.8105C12.7469 17 11.7725 16.3653 11.2962 15.3591C10.756 14.216 10.9681 12.8347 11.823 11.9316L16.281 7.22222C17.9218 6.18222 19.6703 4.55556 22.1711 4.55556C25.2205 4.55556 27.903 7.16711 33.1099 6.33333L39 1" stroke="#4B286D" stroke-width="1.5" stroke-linecap="round" stroke-linejoin="round"/>
<path fill-rule="evenodd" clip-rule="evenodd" d="M7.4368 21V21C8.3008 21 9 21.7283 9 22.6283V23.0067C9 23.3283 8.9088 23.6433 8.7376 23.91L7.864 25.275C7.5744 25.7283 7.0864 26 6.5632 26C5.7008 26 5 25.2717 5 24.3717V23.9933C5 23.6717 5.0912 23.3567 5.2624 23.09L6.136 21.725C6.4256 21.2717 6.9136 21 7.4368 21Z" stroke="#4B286D" stroke-width="1.5" stroke-linecap="round" stroke-linejoin="round"/>
<path fill-rule="evenodd" clip-rule="evenodd" d="M7 26.9874V27.3251C7 28.2509 7.72833 29 8.62833 29H8.685C9.19833 29 9.68167 28.7531 9.98833 28.3314L11.675 26.0189C11.885 25.7291 12 25.376 12 25.0143V24.6749C12 23.7509 11.27 23 10.3717 23H10.3133C9.80167 23 9.31833 23.2486 9.01167 23.6703L7.325 25.9829C7.115 26.2726 7 26.6257 7 26.9874Z" stroke="#4B286D" stroke-width="1.5" stroke-linecap="round" stroke-linejoin="round"/>
<path fill-rule="evenodd" clip-rule="evenodd" d="M11 27.9874V28.3251C11 29.2509 11.7283 30 12.6283 30H12.685C13.1983 30 13.6817 29.7531 13.9883 29.3314L15.675 27.0189C15.885 26.7291 16 26.376 16 26.0143V25.6749C16 24.7509 15.27 24 14.3717 24H14.3133C13.8017 24 13.3183 24.2486 13.0117 24.6703L11.325 26.9829C11.115 27.2726 11 27.6257 11 27.9874Z" stroke="#4B286D" stroke-width="1.5" stroke-linecap="round" stroke-linejoin="round"/>
<path fill-rule="evenodd" clip-rule="evenodd" d="M14 29.9874V30.3251C14 31.2509 14.7283 32 15.6283 32H15.685C16.1983 32 16.6817 31.7531 16.9883 31.3314L18.675 29.0189C18.885 28.7291 19 28.376 19 28.0143V27.6749C19 26.7509 18.27 26 17.3717 26H17.3133C16.8017 26 16.3183 26.2486 16.0117 26.6703L14.325 28.9829C14.115 29.2726 14 29.6257 14 29.9874Z" stroke="#4B286D" stroke-width="1.5" stroke-linecap="round" stroke-linejoin="round"/>
</svg>
