<svg xmlns="http://www.w3.org/2000/svg" fill="none" viewBox="0 0 23 22" width="23" height="22"><path fill="#414547" fill-rule="evenodd" d="M16.5 16c1.4 0 2.6 1.1 2.6 2.5S17.9 21 16.5 21a2.5 2.5 0 0 1-2.5-2.5c0-1.4 1.1-2.5 2.5-2.5Zm0 1.5a1 1 0 0 0-1 1c0 .5.5 1 1 1 .6 0 1-.5 1-1s-.4-1-1-1Zm-9 2a1 1 0 0 1-1-1c0-.5.5-1 1-1 .6 0 1 .5 1 1s-.4 1-1 1Zm0-3.5c1.4 0 2.6 1.1 2.6 2.5S8.9 21 7.5 21A2.5 2.5 0 0 1 5 18.5C5 17.1 6.1 16 7.5 16ZM1 0h2.7c.4 0 .8.3 1 .7v.1L5 2.5h16.2c.3 0 .5.2.7.4.2.2.3.4.3.7v.1l-.8 5.5c-.1.7-.7 1.4-1.5 1.5h-.2L7.1 12.3c.3.4.7.7 1.2.7h11.1c.6 0 1 .5 1 1 0 .6-.4 1-.9 1h-11a3.7 3.7 0 0 1-3.6-2.7V12l-2-10H1A1 1 0 0 1 0 1c0-.5.4-1 1-1h2.7H1Zm19 4.6H5.4l1.2 5.7 12.8-1.5.6-4.2Z" clip-rule="evenodd"/></svg>