<svg width="24" height="24" viewBox="0 0 24 24" fill="none" xmlns="http://www.w3.org/2000/svg">
<path fill-rule="evenodd" clip-rule="evenodd" d="M19.7433 19.7441C15.4738 24.0136 8.52619 24.0136 4.25567 19.7441C3.40058 18.889 2.72462 17.9231 2.21196 16.8958H7.7374C8.63406 16.8958 9.44561 16.3396 9.7633 15.4904C10.08 14.5363 10.9796 13.896 12 13.896C12.5334 13.896 13.0342 14.0722 13.437 14.378C13.4588 14.3998 13.4835 14.4186 13.5093 14.4364C13.8408 14.7095 14.0991 15.0767 14.2436 15.5102C14.5554 16.3396 15.3659 16.8958 16.2626 16.8958H21.7871C21.2744 17.9231 20.5984 18.889 19.7433 19.7441M19.6978 9.36916C19.5098 9.12767 19.1624 9.0871 18.9209 9.27415L13.7983 13.2844C13.2688 12.9667 12.6502 12.7885 12 12.7885C10.5016 12.7885 9.18037 13.7337 8.71819 15.1212C8.57072 15.5141 8.16792 15.7883 7.7374 15.7883H1.73691C1.35291 14.7432 1.13518 13.6535 1.07975 12.554H3.71134C4.01715 12.554 4.26458 12.3056 4.26458 11.9998C4.26458 11.6939 4.01715 11.4465 3.71134 11.4465H1.07975C1.20247 9.00297 2.13674 6.6 3.88355 4.66813L5.76594 6.55052C5.8748 6.6584 6.01633 6.71283 6.15786 6.71283C6.30037 6.71283 6.4419 6.6584 6.54977 6.55052C6.76652 6.33378 6.76652 5.98343 6.54977 5.76668L4.66738 3.88429C6.60025 2.13749 9.00223 1.20322 11.4458 1.0805V3.7111C11.4458 4.01691 11.6942 4.26532 12 4.26532C12.3058 4.26532 12.5532 4.01691 12.5532 3.7111V1.0805C14.9968 1.20322 17.3998 2.13749 19.3316 3.88528L17.5294 5.68751C17.3127 5.90425 17.3127 6.25559 17.5294 6.47134C17.6373 6.58021 17.7788 6.63365 17.9203 6.63365C18.0628 6.63365 18.2034 6.58021 18.3122 6.47134L20.1155 4.66813C21.8623 6.6 22.7965 9.00297 22.9193 11.4465H20.2887C19.9819 11.4465 19.7344 11.6939 19.7344 11.9998C19.7344 12.3056 19.9819 12.554 20.2887 12.554H22.9193C22.8638 13.6535 22.6461 14.7432 22.2621 15.7883H16.2626C15.8321 15.7883 15.4293 15.5141 15.2887 15.14C15.1482 14.7204 14.9334 14.3424 14.6583 14.0177L19.6028 10.1471C19.8453 9.95802 19.8878 9.61064 19.6978 9.36916M23.9228 12.266C23.9673 12.1858 24 12.0987 24 11.9998C24 11.9018 23.9673 11.8137 23.9228 11.7335C23.8565 8.76545 22.7035 5.81815 20.444 3.55868C20.444 3.55769 20.444 3.5567 20.4431 3.5567C20.4421 3.55571 20.4421 3.55571 20.4411 3.55472C18.1806 1.29625 15.2333 0.143261 12.2662 0.0779414C12.1861 0.0324157 12.098 -0.000244141 12 -0.000244141C11.901 -0.000244141 11.8139 0.0324157 11.7338 0.0779414C8.7647 0.143261 5.81641 1.29625 3.55596 3.5567C1.29551 5.81716 0.142515 8.76545 0.0771959 11.7345C0.0316701 11.8147 0 11.9018 0 11.9998C0 12.0977 0.0316701 12.1858 0.0771959 12.265C0.106887 13.6426 0.371134 15.0134 0.873897 16.3138C0.873897 16.3237 0.867959 16.3326 0.867959 16.3415C0.867959 16.5068 0.942186 16.6493 1.05501 16.7513C1.63497 18.0913 2.46235 19.3502 3.55596 20.4438C5.88371 22.7725 8.94186 23.9354 12 23.9354C15.0581 23.9354 18.1143 22.7725 20.4431 20.4438C21.5367 19.3502 22.3631 18.0923 22.943 16.7523C23.0578 16.6503 23.132 16.5068 23.132 16.3415C23.132 16.3316 23.1261 16.3227 23.1261 16.3118C23.6279 15.0124 23.8911 13.6417 23.9228 12.266" fill="#4B286D"/>
<mask id="mask0" mask-type="alpha" maskUnits="userSpaceOnUse" x="0" y="-1" width="24" height="25">
<path fill-rule="evenodd" clip-rule="evenodd" d="M19.7433 19.7441C15.4738 24.0136 8.52619 24.0136 4.25567 19.7441C3.40058 18.889 2.72462 17.9231 2.21196 16.8958H7.7374C8.63406 16.8958 9.44561 16.3396 9.7633 15.4904C10.08 14.5363 10.9796 13.896 12 13.896C12.5334 13.896 13.0342 14.0722 13.437 14.378C13.4588 14.3998 13.4835 14.4186 13.5093 14.4364C13.8408 14.7095 14.0991 15.0767 14.2436 15.5102C14.5554 16.3396 15.3659 16.8958 16.2626 16.8958H21.7871C21.2744 17.9231 20.5984 18.889 19.7433 19.7441M19.6978 9.36916C19.5098 9.12767 19.1624 9.0871 18.9209 9.27415L13.7983 13.2844C13.2688 12.9667 12.6502 12.7885 12 12.7885C10.5016 12.7885 9.18037 13.7337 8.71819 15.1212C8.57072 15.5141 8.16792 15.7883 7.7374 15.7883H1.73691C1.35291 14.7432 1.13518 13.6535 1.07975 12.554H3.71134C4.01715 12.554 4.26458 12.3056 4.26458 11.9998C4.26458 11.6939 4.01715 11.4465 3.71134 11.4465H1.07975C1.20247 9.00297 2.13674 6.6 3.88355 4.66813L5.76594 6.55052C5.8748 6.6584 6.01633 6.71283 6.15786 6.71283C6.30037 6.71283 6.4419 6.6584 6.54977 6.55052C6.76652 6.33378 6.76652 5.98343 6.54977 5.76668L4.66738 3.88429C6.60025 2.13749 9.00223 1.20322 11.4458 1.0805V3.7111C11.4458 4.01691 11.6942 4.26532 12 4.26532C12.3058 4.26532 12.5532 4.01691 12.5532 3.7111V1.0805C14.9968 1.20322 17.3998 2.13749 19.3316 3.88528L17.5294 5.68751C17.3127 5.90425 17.3127 6.25559 17.5294 6.47134C17.6373 6.58021 17.7788 6.63365 17.9203 6.63365C18.0628 6.63365 18.2034 6.58021 18.3122 6.47134L20.1155 4.66813C21.8623 6.6 22.7965 9.00297 22.9193 11.4465H20.2887C19.9819 11.4465 19.7344 11.6939 19.7344 11.9998C19.7344 12.3056 19.9819 12.554 20.2887 12.554H22.9193C22.8638 13.6535 22.6461 14.7432 22.2621 15.7883H16.2626C15.8321 15.7883 15.4293 15.5141 15.2887 15.14C15.1482 14.7204 14.9334 14.3424 14.6583 14.0177L19.6028 10.1471C19.8453 9.95802 19.8878 9.61064 19.6978 9.36916M23.9228 12.266C23.9673 12.1858 24 12.0987 24 11.9998C24 11.9018 23.9673 11.8137 23.9228 11.7335C23.8565 8.76545 22.7035 5.81815 20.444 3.55868C20.444 3.55769 20.444 3.5567 20.4431 3.5567C20.4421 3.55571 20.4421 3.55571 20.4411 3.55472C18.1806 1.29625 15.2333 0.143261 12.2662 0.0779414C12.1861 0.0324157 12.098 -0.000244141 12 -0.000244141C11.901 -0.000244141 11.8139 0.0324157 11.7338 0.0779414C8.7647 0.143261 5.81641 1.29625 3.55596 3.5567C1.29551 5.81716 0.142515 8.76545 0.0771959 11.7345C0.0316701 11.8147 0 11.9018 0 11.9998C0 12.0977 0.0316701 12.1858 0.0771959 12.265C0.106887 13.6426 0.371134 15.0134 0.873897 16.3138C0.873897 16.3237 0.867959 16.3326 0.867959 16.3415C0.867959 16.5068 0.942186 16.6493 1.05501 16.7513C1.63497 18.0913 2.46235 19.3502 3.55596 20.4438C5.88371 22.7725 8.94186 23.9354 12 23.9354C15.0581 23.9354 18.1143 22.7725 20.4431 20.4438C21.5367 19.3502 22.3631 18.0923 22.943 16.7523C23.0578 16.6503 23.132 16.5068 23.132 16.3415C23.132 16.3316 23.1261 16.3227 23.1261 16.3118C23.6279 15.0124 23.8911 13.6417 23.9228 12.266" fill="white"/>
</mask>
<g mask="url(#mask0)">
<rect width="24" height="24" fill="#4B286D"/>
</g>
</svg>
