<svg xmlns="http://www.w3.org/2000/svg" width="20" height="19.999" viewBox="0 0 20 19.999">
  <path id="Edit" d="M.539,20a.542.542,0,0,1-.381-.157.535.535,0,0,1-.146-.495L.04,19.26l1.643-4.118a.526.526,0,0,1,.07-.123l.049-.057.147-.148,4.272-4.275L16.108.646a2.281,2.281,0,0,1,3.353,3.086l-.137.148L5.11,18.093a2.174,2.174,0,0,1-.227.205l-.03.015L.74,19.961A.552.552,0,0,1,.539,20Zm2.077-4.284-1.11,2.776,2.773-1.111Zm11.5-11.548h0L3.359,14.931l1.679,1.682,1.335-1.37c1.2-1.218,3-3.019,5.672-5.669L15.8,5.852,14.116,4.167Zm3.6-3.1a1.206,1.206,0,0,0-.741.251l-.1.092L14.879,3.4l1.686,1.689,2-1.982a1.171,1.171,0,0,0,.356-.844,1.193,1.193,0,0,0-1.207-1.2Z" transform="translate(0)" fill="#2b8000"/>
</svg>
