<svg id="Group_45_Copy_3" data-name="Group 45 Copy 3" xmlns="http://www.w3.org/2000/svg" width="18" height="23" viewBox="0 0 18 23">
  <path id="Delete" d="M13.427,23H4.687a3.7,3.7,0,0,1-3.682-3.52L1,19.283V5.82H.947a.931.931,0,0,1-.94-.8L0,4.919v-.8a2.617,2.617,0,0,1,2.565-2.5l.173,0H4.853l.133-.24A2.736,2.736,0,0,1,7.232.006L7.425,0h3.262a2.777,2.777,0,0,1,2.346,1.212l.093.155.134.24h2.115A2.545,2.545,0,0,1,18,3.956l0,.158v.8a.919.919,0,0,1-.84.895l-.111.006H17V19.283A3.6,3.6,0,0,1,13.623,23ZM2,5.82V19.283l.005.171a2.7,2.7,0,0,0,2.51,2.54L4.687,22h8.74l.171-.005a2.6,2.6,0,0,0,2.4-2.54l0-.171V5.82Zm.738-3.213-.158.006A1.632,1.632,0,0,0,1.006,3.985L1,4.115V4.82H17V4.115l-.006-.137a1.528,1.528,0,0,0-1.462-1.364l-.158-.006h-2.7l-.422-.753-.079-.128a1.755,1.755,0,0,0-1.319-.719L10.687,1H7.425l-.167.007a1.758,1.758,0,0,0-1.319.719l-.08.128-.418.753ZM13.5,20.5a.5.5,0,0,1-.492-.41L13,20V8a.5.5,0,0,1,.993-.09L14,8V20A.5.5,0,0,1,13.5,20.5Zm-3,0a.5.5,0,0,1-.492-.41L10,20V8a.5.5,0,0,1,.992-.09L11,8V20A.5.5,0,0,1,10.5,20.5Zm-3,0a.5.5,0,0,1-.491-.41L7,20V8a.5.5,0,0,1,.992-.09L8,8V20A.5.5,0,0,1,7.5,20.5Zm-3,0a.5.5,0,0,1-.492-.41L4,20V8a.5.5,0,0,1,.993-.09L5,8V20A.5.5,0,0,1,4.5,20.5Z" fill="#545960"/>
</svg>
