<svg xmlns="http://www.w3.org/2000/svg" viewBox="0 0 33.82 51.52" width="34" height="52"><g fill="none" stroke="#2a2c2e" stroke-linejoin="round" stroke-width="1.5" data-name="Gruppe 24"><g data-name="Gruppe 21" transform="translate(.75 .75)"><circle cx="3.29" cy="3.29" r="3.29" data-name="Ellipse 9" transform="translate(12.87 12.53)"/><path d="M9.79 22.09a8.74 8.74 0 0 1 0-12.52 9.13 9.13 0 0 1 12.74 0 8.74 8.74 0 0 1 0 12.52" data-name="Pfad 14"/><path d="M7.22 24.53a12.08 12.08 0 0 1 0-17.4 12.88 12.88 0 0 1 17.88 0 12.08 12.08 0 0 1 0 17.4" data-name="Pfad 15"/><path d="M4.73 27.02a15.6 15.6 0 0 1 0-22.38 16.4 16.4 0 0 1 22.86 0 15.6 15.6 0 0 1 0 22.38" data-name="Pfad 16"/></g><path d="m21.54 29.55-12.2 8.63 20.73 12.6-13.16-31.03L3.75 50.77l20.73-12.59-12.2-8.63" data-name="Pfad 17"/></g></svg>