
<svg xmlns="http://www.w3.org/2000/svg" width="39.007" height="35.006" viewBox="0 0 39.007 35.006">
  <g id="Group_7" data-name="Group 7" transform="translate(1.007 1.006)">
    <path id="Stroke_1" data-name="Stroke 1" d="M19,2.974A11.365,11.365,0,0,0,12.327.048,11.213,11.213,0,0,0,.049,10a10.805,10.805,0,0,0,2.909,8.427L.914,24l8.937-2.077" fill="none" stroke="#4b286d" stroke-linecap="round" stroke-linejoin="round" stroke-miterlimit="10" stroke-width="2"/>
    <path id="Stroke_3" data-name="Stroke 3" d="M11.5,0A11.733,11.733,0,0,1,23,11.952a12.122,12.122,0,0,1-3.761,8.824L20.774,27l-8.868-3.116c-.136,0-.269.021-.406.021A11.733,11.733,0,0,1,0,11.952,11.733,11.733,0,0,1,11.5,0Z" transform="translate(14 6)" fill="none" stroke="#4b286d" stroke-linecap="round" stroke-linejoin="round" stroke-miterlimit="10" stroke-width="2"/>
  </g>
</svg>
