<svg id="Icon" xmlns="http://www.w3.org/2000/svg" width="24" height="24" viewBox="0 0 24 24">
  <rect id="Rectangle" width="24" height="24" fill="none"/>
  <g id="Icon-2" data-name="Icon" transform="translate(2 2)">
    <path id="Fill_1" data-name="Fill 1" d="M.9,0H.23A.228.228,0,0,0,0,.225V5.252a.221.221,0,0,0,.067.159L4.694,9.934a.234.234,0,0,0,.326,0L5.5,9.469a.222.222,0,0,0,0-.318L1.133,4.887V.225A.228.228,0,0,0,.9,0" transform="translate(10.013 4.737)" fill="#545960"/>
    <path id="Fill_3" data-name="Fill 3" d="M18.636,4.947A10,10,0,0,0,6.107.774,10.015,10.015,0,0,0,.382,12.734a.224.224,0,0,0,.278.154l.631-.181a.223.223,0,0,0,.155-.278,8.772,8.772,0,0,1-.315-1.883H2.49a.225.225,0,0,0,.225-.225V9.663a.225.225,0,0,0-.225-.225H1.135A8.918,8.918,0,0,1,9.448,1.124V2.48a.225.225,0,0,0,.225.225h.658a.225.225,0,0,0,.225-.225V1.118a8.911,8.911,0,0,1,3.938,1.2,9,9,0,0,1,4.379,7.125h-1.36a.225.225,0,0,0-.225.225v.659a.225.225,0,0,0,.225.225h1.356a8.918,8.918,0,0,1-8.312,8.319V17.508a.225.225,0,0,0-.225-.225H9.673a.225.225,0,0,0-.225.225v1.364a8.92,8.92,0,0,1-1.817-.3.223.223,0,0,0-.276.157l-.176.633a.225.225,0,0,0,.156.277,10.009,10.009,0,0,0,11.3-14.694" fill="#545960"/>
    <path id="Fill_6" data-name="Fill 6" d="M1.983,3.353a.649.649,0,0,1-.652-.413.59.59,0,0,1,.35-.749.637.637,0,0,1,.84.306.669.669,0,0,0,.887.3.6.6,0,0,0,.282-.834,1.778,1.778,0,0,0-.7-.763c-.126-.074-.312-.11-.376-.214S2.6.711,2.593.569A.618.618,0,0,0,1.951,0,.621.621,0,0,0,1.3.574a1.489,1.489,0,0,0,0,.289c.016.122-.038.173-.154.222A1.775,1.775,0,0,0,.7,4.156a2.115,2.115,0,0,0,1.261.418.607.607,0,0,1,.107,1.208.7.7,0,0,1-.743-.377.671.671,0,0,0-.884-.279.594.594,0,0,0-.272.837,1.58,1.58,0,0,0,.761.767.513.513,0,0,1,.371.581.6.6,0,0,0,.64.582.622.622,0,0,0,.616-.433,1.56,1.56,0,0,0,.032-.422.165.165,0,0,1,.125-.18,1.774,1.774,0,0,0,.823-2.726,1.926,1.926,0,0,0-1.557-.78" transform="translate(2.781 11.053)" fill="#545960"/>
  </g>
</svg>
