<svg width="24" height="25" viewBox="0 0 24 25" fill="none" xmlns="http://www.w3.org/2000/svg">
<path fill-rule="evenodd" clip-rule="evenodd" d="M22.554 11.555C22.841 11.275 22.997 10.902 22.997 10.5V2.503C22.994 1.679 22.32 1.006 21.496 1.003H13.5H13.489C13.099 1.003 12.721 1.163 12.45 1.441C12.4419 1.44907 12.4344 1.45654 12.4273 1.4636C12.3973 1.49328 12.3748 1.51553 12.353 1.543L1.433 12.457C1.159 12.723 1.004 13.096 1.004 13.499C1.004 13.901 1.16 14.273 1.442 14.549L9.444 22.554C9.721 22.837 10.1 22.997 10.489 22.997H10.497C10.855 22.989 11.276 22.839 11.551 22.558L22.554 11.555ZM13.503 0H21.498C22.873 0.004 23.995 1.125 24 2.5V2.501V10.5C24 11.175 23.736 11.803 23.259 12.269L12.265 23.264C11.809 23.73 11.168 24 10.51 24H10.483C9.831 24 9.191 23.73 8.73 23.26L0.737 15.264C0.264 14.803 0 14.174 0 13.499C0 12.822 0.264 12.194 0.743 11.729L0.891 11.592L11.605 0.876C11.62 0.853 11.672 0.799 11.739 0.733C12.189 0.27 12.829 0 13.486 0H13.503ZM17.9738 6.0258C18.3978 6.4478 19.0828 6.4478 19.5068 6.0258C19.9288 5.6028 19.9288 4.9158 19.5068 4.4928C19.2948 4.2808 19.0178 4.1748 18.7398 4.1748C18.4628 4.1748 18.1858 4.2808 17.9738 4.4928C17.5508 4.9158 17.5508 5.6028 17.9738 6.0258ZM17.2638 6.7348C16.4488 5.9218 16.4488 4.5968 17.2638 3.7828C18.0768 2.9678 19.4028 2.9678 20.2158 3.7828C21.0298 4.5968 21.0298 5.9218 20.2158 6.7348C19.8098 7.1428 19.2748 7.3458 18.7398 7.3458C18.2058 7.3458 17.6708 7.1428 17.2638 6.7348Z" fill="#2B8000"/>
<mask id="mask0_1940_37771" style="mask-type:alpha" maskUnits="userSpaceOnUse" x="0" y="0" width="24" height="24">
<path fill-rule="evenodd" clip-rule="evenodd" d="M22.554 11.555C22.841 11.275 22.997 10.902 22.997 10.5V2.503C22.994 1.679 22.32 1.006 21.496 1.003H13.5H13.489C13.099 1.003 12.721 1.163 12.45 1.441C12.4419 1.44907 12.4344 1.45654 12.4273 1.4636C12.3973 1.49328 12.3748 1.51553 12.353 1.543L1.433 12.457C1.159 12.723 1.004 13.096 1.004 13.499C1.004 13.901 1.16 14.273 1.442 14.549L9.444 22.554C9.721 22.837 10.1 22.997 10.489 22.997H10.497C10.855 22.989 11.276 22.839 11.551 22.558L22.554 11.555ZM13.503 0H21.498C22.873 0.004 23.995 1.125 24 2.5V2.501V10.5C24 11.175 23.736 11.803 23.259 12.269L12.265 23.264C11.809 23.73 11.168 24 10.51 24H10.483C9.831 24 9.191 23.73 8.73 23.26L0.737 15.264C0.264 14.803 0 14.174 0 13.499C0 12.822 0.264 12.194 0.743 11.729L0.891 11.592L11.605 0.876C11.62 0.853 11.672 0.799 11.739 0.733C12.189 0.27 12.829 0 13.486 0H13.503ZM17.9738 6.0258C18.3978 6.4478 19.0828 6.4478 19.5068 6.0258C19.9288 5.6028 19.9288 4.9158 19.5068 4.4928C19.2948 4.2808 19.0178 4.1748 18.7398 4.1748C18.4628 4.1748 18.1858 4.2808 17.9738 4.4928C17.5508 4.9158 17.5508 5.6028 17.9738 6.0258ZM17.2638 6.7348C16.4488 5.9218 16.4488 4.5968 17.2638 3.7828C18.0768 2.9678 19.4028 2.9678 20.2158 3.7828C21.0298 4.5968 21.0298 5.9218 20.2158 6.7348C19.8098 7.1428 19.2748 7.3458 18.7398 7.3458C18.2058 7.3458 17.6708 7.1428 17.2638 6.7348Z" fill="white"/>
</mask>
<g mask="url(#mask0_1940_37771)">
<rect width="24" height="24" fill="#2B8000"/>
</g>
<circle cx="17.5" cy="18.5" r="6.5" fill="white"/>
<path fill-rule="evenodd" clip-rule="evenodd" d="M17.5 24C14.467 24 12 21.532 12 18.5C12 15.468 14.467 13 17.5 13C20.533 13 23 15.468 23 18.5C23 21.532 20.533 24 17.5 24ZM17.5 14C15.019 14 13 16.019 13 18.5C13 20.981 15.019 23 17.5 23C19.981 23 22 20.981 22 18.5C22 16.019 19.981 14 17.5 14ZM15.5 19C15.224 19 15 18.776 15 18.5C15 18.224 15.224 18 15.5 18H17V16.5C17 16.224 17.224 16 17.5 16C17.776 16 18 16.224 18 16.5V18H19.5C19.776 18 20 18.224 20 18.5C20 18.776 19.776 19 19.5 19H18V20.5C18 20.776 17.776 21 17.5 21C17.224 21 17 20.776 17 20.5V19H15.5Z" fill="#2B8000"/>
</svg>
