<svg xmlns="http://www.w3.org/2000/svg" viewBox="0 0 32 33" width="32" height="33"><defs><clipPath id="a-ico-backup"><path fill="#fff" stroke="#707070" d="M0 0h32v33H0z" data-name="Rectangle 7453" transform="translate(12 185)"/></clipPath></defs><g clip-path="url(#a-ico-backup)" data-name="Mask Group 3" transform="translate(-12 -185)"><g fill="none" stroke-miterlimit="10" data-name="Group 6611"><g data-name="Path 16143"><path d="M38.25 212.03a12.25 12.25 0 0 0 3.53-8.42 11.58 11.58 0 0 0-11.8-11.8l-.04 3.16a8.53 8.53 0 0 1 8.69 8.69 9.02 9.02 0 0 1-2.59 6.18l-2.24-2.24-.11 6.87 6.86-.12Z"/><path fill="#2a2c2e" d="m33.68 214.47 6.87-.12-2.3-2.32a12.25 12.25 0 0 0 3.53-8.42c.09-6.6-5.2-11.9-11.8-11.8l-.05 3.15a8.53 8.53 0 0 1 8.7 8.7 9.02 9.02 0 0 1-2.6 6.18l-2.23-2.24-.12 6.87M32.16 216l.2-11.96 3.56 3.56a7.47 7.47 0 0 0 1.2-3.97 7.03 7.03 0 0 0-7.17-7.17l-1.54.02.09-6.15 1.46-.02a13.04 13.04 0 0 1 13.32 13.32 13.7 13.7 0 0 1-2.98 8.34l3.79 3.83-11.93.2Z"/></g><g data-name="Path 16144"><path d="M19.94 194.34a12.25 12.25 0 0 0-3.53 8.42 11.58 11.58 0 0 0 11.8 11.8l.04-3.16a8.53 8.53 0 0 1-8.7-8.69 9.02 9.02 0 0 1 2.6-6.18l2.24 2.24.11-6.87-6.87.12Z"/><path fill="#2a2c2e" d="m24.5 191.9-6.87.12 2.3 2.32a12.25 12.25 0 0 0-3.52 8.42c-.1 6.6 5.2 11.9 11.8 11.8l.04-3.15a8.53 8.53 0 0 1-8.7-8.7c.04-2.3.96-4.5 2.6-6.18l2.24 2.24.11-6.87m1.53-1.52-.2 11.95-3.56-3.56a7.47 7.47 0 0 0-1.21 3.97 7.03 7.03 0 0 0 7.17 7.17l1.54-.02-.08 6.15-1.46.02a13.04 13.04 0 0 1-13.32-13.32 13.7 13.7 0 0 1 2.98-8.33l-3.79-3.84 11.93-.2Z"/></g></g></g></svg>