
<svg xmlns="http://www.w3.org/2000/svg" width="14.88" height="15.359" viewBox="0 0 14.88 15.359">
  <g id="Group_23_Copy_2" data-name="Group 23 Copy 2" transform="translate(-0.667 -0.641)">
    <path id="SignPost" d="M8.253,15.359H7.2a.846.846,0,0,1-.861-.828V11.806H3.676a.882.882,0,0,1-.608-.243L1.747,10.3a.805.805,0,0,1,0-1.171L3.067,7.855a.88.88,0,0,1,.607-.242H6.336V6.224H.861A.846.846,0,0,1,0,5.4V2.351a.846.846,0,0,1,.861-.828H6.336V.828A.846.846,0,0,1,7.2,0H8.253a.846.846,0,0,1,.861.828v.695h3.32a.884.884,0,0,1,.61.243l1.583,1.522a.805.805,0,0,1,0,1.17L13.044,5.981a.874.874,0,0,1-.609.243H9.114V7.613h3.363a.846.846,0,0,1,.861.827v2.539a.846.846,0,0,1-.861.827H9.114v2.725A.846.846,0,0,1,8.253,15.359ZM7,11.806v2.725a.193.193,0,0,0,.194.187H8.253a.194.194,0,0,0,.2-.187V11.806ZM3.676,8.254a.2.2,0,0,0-.136.054L2.219,9.578a.181.181,0,0,0,0,.264l1.321,1.269a.2.2,0,0,0,.137.055h8.8a.191.191,0,0,0,.194-.186V8.44a.191.191,0,0,0-.194-.186ZM7,6.224V7.613H8.448V6.224ZM.861,2.164a.191.191,0,0,0-.194.187V5.4a.191.191,0,0,0,.194.187H12.434a.2.2,0,0,0,.138-.056l1.585-1.522a.184.184,0,0,0,0-.265L12.573,2.219a.2.2,0,0,0-.139-.055ZM7.2.641A.193.193,0,0,0,7,.828v.695H8.448V.828a.194.194,0,0,0-.2-.187Z" transform="translate(0.667 0.641)" fill="#4b286d"/>
  </g>
</svg>
