<svg width="22" height="22" viewBox="0 0 22 22" fill="none" xmlns="http://www.w3.org/2000/svg">
<path fill-rule="evenodd" clip-rule="evenodd" d="M9.02234 0L9.27539 0.00307998C14.2686 0.13325 18.2104 4.28127 18.0811 9.26988C18.0326 11.1754 17.3971 12.9256 16.3528 14.3567L16.1643 14.6059L21.768 20.503C22.0684 20.8195 22.0743 21.3046 21.8017 21.6362L21.7277 21.7158L21.6974 21.7442C21.3722 22.0517 20.8768 22.0812 20.5254 21.8418L20.4333 21.7698L14.352 16.3522C12.7991 17.4797 10.875 18.1242 8.8088 18.071C3.8156 17.9408 -0.126163 13.7928 0.00308999 8.80421C0.130152 3.89834 4.14445 0.00768555 9.02234 0ZM9.04164 1.81079C5.05771 1.81079 1.8273 5.04028 1.8273 9.02513C1.8273 13.0091 5.05771 16.2386 9.04164 16.2386C13.0265 16.2386 16.256 13.0091 16.256 9.02513C16.256 5.04028 13.0265 1.81079 9.04164 1.81079Z" fill="#54595F"/>
</svg>
