<svg xmlns="http://www.w3.org/2000/svg" viewBox="0 0 72 74" width="72" height="74"><defs><clipPath id="a-ico-chat-purple"><path fill="none" d="M0 0h72v74H0z" data-name="Rectangle 7358"/></clipPath></defs><g clip-path="url(#a-ico-chat-purple)" data-name="Group 6517"><path fill="#4b296e" d="M68 74H4a4 4 0 0 1-4-4V4a4 4 0 0 1 4-4h64a4 4 0 0 1 4 4v66a4 4 0 0 1-4 4" data-name="Path 16085"/><path fill="#fff" d="M55.082 11.487h-40a4 4 0 0 0-4 4v40a4 4 0 0 0 4 4h27v8l8-8h5a4 4 0 0 0 4-4v-40a4 4 0 0 0-4-4" data-name="Path 16086"/><path fill="#4b296e" d="M22.082 24.487h6v6h-6z" data-name="Rectangle 7356"/><path fill="#4b296e" d="M42.082 24.487h6v6h-6z" data-name="Rectangle 7357"/><path fill="#4b296e" d="M48.082 41.571s-3.759 4.706-13 4.706-13-4.706-13-4.706v1s3.759 5.706 13 5.706 13-5.706 13-5.706Z" data-name="Path 16087"/></g></svg>