
<svg xmlns="http://www.w3.org/2000/svg" width="30.118" height="30" viewBox="0 0 30.118 30">
  <g id="Clipboard" transform="translate(0.5 0.5)">
    <path id="Shape" d="M19,25H2a2,2,0,0,1-2-2V2A2,2,0,0,1,2,0H5L21,18v5A2,2,0,0,1,19,25ZM21,4h0L16,0h3a2,2,0,0,1,2,2V4Z" transform="translate(0 4)" fill="none" stroke="#4b286d" stroke-linecap="round" stroke-linejoin="round" stroke-miterlimit="10" stroke-width="1"/>
    <path id="Shape-2" data-name="Shape" d="M0,16.6H0l.88-4.418L9.719,3.342,13.25,6.871,9.721,3.342,12.37.692a2.5,2.5,0,0,1,3.541,3.53L4.42,15.722,0,16.6Z" transform="translate(12.36 7.038)" fill="none" stroke="#4b286d" stroke-linecap="round" stroke-linejoin="round" stroke-miterlimit="10" stroke-width="1"/>
    <path id="Path" d="M3.5,2a2,2,0,0,1,4,0H9.75A1.25,1.25,0,0,1,11,3.25V6H0V3.25A1.25,1.25,0,0,1,1.25,2H3.56" transform="translate(5)" fill="none" stroke="#4b286d" stroke-linecap="round" stroke-linejoin="round" stroke-miterlimit="10" stroke-width="1"/>
    <path id="Path-2" data-name="Path" d="M0,0A3.664,3.664,0,0,1,2.25,1.13,3.664,3.664,0,0,1,3.38,3.38" transform="translate(13.57 19.02)" fill="none" stroke="#4b286d" stroke-linecap="round" stroke-linejoin="round" stroke-miterlimit="10" stroke-width="1"/>
  </g>
</svg>
