<svg xmlns="http://www.w3.org/2000/svg" fill="none" viewBox="0 0 22 22" width="22" height="22"><path fill="#2A2C2E" fill-rule="evenodd" d="M8.05 6.33 6.6 9.03c-.05.1-.07.2-.04.3a8.68 8.68 0 0 0 6.39 6.4c.1.03.21.02.31-.04l2.7-1.45a1.21 1.21 0 0 1 1.43.2l2.03 2.04a1.23 1.23 0 0 1 0 1.72l-1.21 1.21c-.24.24-.6.38-.93.35-8.04-.68-14.37-7-15.05-15.03-.03-.34.1-.69.36-.93L3.8 2.58a1.23 1.23 0 0 1 1.71 0L7.85 4.9c.35.35.45.86.27 1.31l-.06.12ZM3.2 1.97a2.13 2.13 0 0 1 2.8-.1l.12.1L8.44 4.3c.61.61.78 1.52.43 2.3l-.07.14L7.43 9.3a7.87 7.87 0 0 0 5.31 5.5l.26.07 2.54-1.37c.76-.4 1.69-.3 2.33.26l.12.1 2.03 2.04a2.05 2.05 0 0 1 .12 2.78l-.12.13-1.21 1.21c-.38.4-.92.62-1.46.62l-.15-.01A17.3 17.3 0 0 1 1.38 4.8c-.04-.55.14-1.08.5-1.5l.1-.12 1.22-1.2Zm9.83-.6a7.6 7.6 0 0 1 7.6 7.6.5.5 0 0 1-1.02 0 6.6 6.6 0 0 0-6.58-6.58.5.5 0 1 1 0-1.01Zm0 4.06a3.55 3.55 0 0 1 3.54 3.54.5.5 0 0 1-1.01 0c0-1.4-1.14-2.53-2.53-2.53a.5.5 0 1 1 0-1.01Z" clip-rule="evenodd"/></svg>