<svg width="24" height="24" viewBox="0 0 24 24" fill="none" xmlns="http://www.w3.org/2000/svg">
<path fill-rule="evenodd" clip-rule="evenodd" d="M12 14C8.968 14 6.5 11.533 6.5 8.5C6.5 5.467 8.968 3 12 3C15.032 3 17.5 5.467 17.5 8.5C17.5 11.533 15.032 14 12 14ZM12 4C9.519 4 7.5 6.019 7.5 8.5C7.5 10.981 9.519 13 12 13C14.481 13 16.5 10.981 16.5 8.5C16.5 6.019 14.481 4 12 4ZM12 24C11.884 24 11.767 23.959 11.673 23.878C11.339 23.59 3.5 16.718 3.5 8.5C3.5 3.813 7.313 0 12 0C16.687 0 20.5 3.813 20.5 8.5C20.5 16.718 12.661 23.59 12.327 23.878C12.233 23.959 12.116 24 12 24ZM12 1C7.864 1 4.5 4.364 4.5 8.5C4.5 15.342 10.516 21.426 12 22.822C13.483 21.425 19.5 15.334 19.5 8.5C19.5 4.364 16.136 1 12 1Z" fill="#4B286D"/>
<mask id="mask0_1940_38038" style="mask-type:alpha" maskUnits="userSpaceOnUse" x="3" y="0" width="18" height="24">
<path fill-rule="evenodd" clip-rule="evenodd" d="M12 14C8.968 14 6.5 11.533 6.5 8.5C6.5 5.467 8.968 3 12 3C15.032 3 17.5 5.467 17.5 8.5C17.5 11.533 15.032 14 12 14ZM12 4C9.519 4 7.5 6.019 7.5 8.5C7.5 10.981 9.519 13 12 13C14.481 13 16.5 10.981 16.5 8.5C16.5 6.019 14.481 4 12 4ZM12 24C11.884 24 11.767 23.959 11.673 23.878C11.339 23.59 3.5 16.718 3.5 8.5C3.5 3.813 7.313 0 12 0C16.687 0 20.5 3.813 20.5 8.5C20.5 16.718 12.661 23.59 12.327 23.878C12.233 23.959 12.116 24 12 24ZM12 1C7.864 1 4.5 4.364 4.5 8.5C4.5 15.342 10.516 21.426 12 22.822C13.483 21.425 19.5 15.334 19.5 8.5C19.5 4.364 16.136 1 12 1Z" fill="white"/>
</mask>
<g mask="url(#mask0_1940_38038)">
<rect width="24" height="24" fill="#4B286D"/>
</g>
</svg>
