
<svg xmlns="http://www.w3.org/2000/svg" width="11.334" height="16" viewBox="0 0 11.334 16">
  <g id="Group_37_Copy" data-name="Group 37 Copy" transform="translate(-2.667)">
    <path id="Flag" d="M.333,16A.334.334,0,0,1,0,15.666V.333A.333.333,0,0,1,.333,0H5.666a1,1,0,0,1,1,1v.333H11a.334.334,0,0,1,.334.334V9A.334.334,0,0,1,11,9.333H7a1,1,0,0,1-1-1A.334.334,0,0,0,5.666,8h-5v7.666A.334.334,0,0,1,.333,16ZM.667.667V7.333h5a1,1,0,0,1,1,1A.334.334,0,0,0,7,8.667h3.667V2h-4V4.333a.333.333,0,0,1-.666,0V1A.334.334,0,0,0,5.666.667Z" transform="translate(2.667)" fill="#c12335"/>
  </g>
</svg>
