<svg width="21" height="21" viewBox="0 0 21 21" fill="none" xmlns="http://www.w3.org/2000/svg">
<path fill-rule="evenodd" clip-rule="evenodd" d="M19.341 13.8257C18.0456 13.8257 16.7768 13.6235 15.5743 13.2267C14.9885 13.0244 14.3209 13.1814 13.9352 13.5737L11.5511 15.3742C8.81668 13.9153 7.06595 12.1656 5.62468 9.44889L7.37653 7.12121C7.81753 6.67911 7.97558 6.03474 7.78658 5.43016C7.38758 4.221 7.18421 2.95105 7.18421 1.65789C7.18421 0.743842 6.44037 0 5.52632 0H1.65789C0.743842 0 0 0.743842 0 1.65789C0 12.3226 8.67742 21 19.3421 21C20.2562 21 21 20.2562 20.9989 19.3421V15.4836C20.9989 14.5696 20.2551 13.8257 19.341 13.8257ZM19.8947 8.28947C19.8947 4.32821 16.6718 1.10526 12.7105 1.10526C12.4055 1.10526 12.1579 0.857684 12.1579 0.552632C12.1579 0.247579 12.4055 0 12.7105 0C17.2819 0 21 3.71811 21 8.28947C21 8.59453 20.7524 8.8421 20.4474 8.8421C20.1423 8.8421 19.8947 8.59453 19.8947 8.28947ZM15.4737 8.28947C15.4737 6.76642 14.2347 5.52632 12.7105 5.52632C12.4055 5.52632 12.1579 5.27874 12.1579 4.97368C12.1579 4.66863 12.4055 4.42105 12.7105 4.42105C14.8437 4.42105 16.5789 6.15632 16.5789 8.28947C16.5789 8.59453 16.3314 8.8421 16.0263 8.8421C15.7213 8.8421 15.4737 8.59453 15.4737 8.28947ZM19.3421 19.8947C19.6461 19.8947 19.8947 19.6472 19.8947 19.3421V15.4847C19.8947 15.1797 19.6461 14.9321 19.3421 14.9321C17.9296 14.9321 16.5436 14.7111 15.2217 14.2745C15.0238 14.2082 14.8061 14.2612 14.6591 14.406L11.9379 16.4684C11.7688 16.5966 11.5401 16.6165 11.3533 16.5193C8.11042 14.8581 6.11984 12.8664 4.48074 9.64674C4.38458 9.45884 4.40447 9.23226 4.53158 9.06316L6.54316 6.39947C6.74542 6.18947 6.79737 5.97616 6.73326 5.76947C6.3 4.45532 6.07895 3.06932 6.07895 1.65789C6.07895 1.35284 5.83026 1.10526 5.52632 1.10526H1.65789C1.35395 1.10526 1.10526 1.35284 1.10526 1.65789C1.10526 11.7136 9.28642 19.8947 19.3421 19.8947Z" fill="#4B286D"/>
</svg>
