<svg xmlns="http://www.w3.org/2000/svg" width="22.8" height="22.8" viewBox="0 0 22.8 22.8">
  <g id="Icon" transform="translate(-0.6 -0.6)">
    <path id="Fill_1" data-name="Fill 1" d="M1.029,0H.262A.259.259,0,0,0,0,.256V5.987a.252.252,0,0,0,.077.181l5.275,5.156a.267.267,0,0,0,.371,0l.542-.53a.253.253,0,0,0,0-.363L1.292,5.571V.256A.259.259,0,0,0,1.029,0" transform="translate(12.015 6)" fill="#2a2c2e"/>
    <path id="Fill_3" data-name="Fill 3" d="M21.245,5.639A11.4,11.4,0,0,0,6.962.882,11.417,11.417,0,0,0,.435,14.517a.256.256,0,0,0,.316.176l.72-.206a.254.254,0,0,0,.176-.317,10,10,0,0,1-.359-2.147h1.55a.256.256,0,0,0,.256-.256v-.751a.256.256,0,0,0-.256-.256H1.294a10.166,10.166,0,0,1,9.476-9.478V2.827a.256.256,0,0,0,.256.256h.75a.256.256,0,0,0,.256-.256V1.275a10.159,10.159,0,0,1,4.489,1.363,10.254,10.254,0,0,1,4.993,8.122H19.964a.256.256,0,0,0-.256.256v.751a.256.256,0,0,0,.256.256h1.545a10.167,10.167,0,0,1-9.476,9.484V19.959a.256.256,0,0,0-.256-.256h-.75a.256.256,0,0,0-.256.256v1.555A10.169,10.169,0,0,1,8.7,21.174a.255.255,0,0,0-.315.178l-.2.722a.257.257,0,0,0,.178.316A11.41,11.41,0,0,0,21.245,5.639" transform="translate(0.6 0.6)" fill="#2a2c2e"/>
    <path id="Fill_6" data-name="Fill 6" d="M2.261,3.823a.74.74,0,0,1-.744-.471.673.673,0,0,1,.4-.854.726.726,0,0,1,.958.349.763.763,0,0,0,1.011.344.679.679,0,0,0,.322-.951,2.027,2.027,0,0,0-.8-.87c-.144-.085-.355-.126-.428-.244S2.967.811,2.955.649A.7.7,0,0,0,2.224,0a.708.708,0,0,0-.744.654,1.7,1.7,0,0,0,0,.33c.019.139-.043.2-.176.253a2.023,2.023,0,0,0-.5,3.5,2.411,2.411,0,0,0,1.438.476.692.692,0,0,1,.122,1.378.8.8,0,0,1-.847-.43A.765.765,0,0,0,.506,5.845.677.677,0,0,0,.2,6.8a1.8,1.8,0,0,0,.868.874.585.585,0,0,1,.423.663A.687.687,0,0,0,2.217,9a.709.709,0,0,0,.7-.493,1.778,1.778,0,0,0,.037-.481A.188.188,0,0,1,3.1,7.82a2.023,2.023,0,0,0,.938-3.108,2.2,2.2,0,0,0-1.775-.89" transform="translate(3.771 13.2)" fill="#2a2c2e"/>
  </g>
</svg>
