<svg width="48" height="48" viewBox="0 0 48 48" fill="none" xmlns="http://www.w3.org/2000/svg">
<path fill-rule="evenodd" clip-rule="evenodd" d="M47 33H44V10C44 8.346 42.654 7 41 7H7C5.346 7 4 8.346 4 10V33H1C0.448 33 0 33.448 0 34V36C0 38.756 2.244 41 5 41H43C45.756 41 48 38.756 48 36V34C48 33.448 47.552 33 47 33ZM6 10C6 9.448 6.448 9 7 9H41C41.552 9 42 9.448 42 10V33H32C31.734 33 31.48 33.106 31.296 33.292L29.588 35H18.416L16.708 33.292C16.52 33.106 16.266 33 16 33H6V10ZM46 36C46 37.654 44.654 39 43 39H5C3.346 39 2 37.654 2 36V35H15.586L17.292 36.708C17.48 36.894 17.734 37 18 37H30C30.266 37 30.52 36.894 30.706 36.708L32.414 35H46V36Z" fill="#4B286D"/>
<mask id="mask0_6_17983" style="mask-type:alpha" maskUnits="userSpaceOnUse" x="0" y="7" width="48" height="34">
<path fill-rule="evenodd" clip-rule="evenodd" d="M47 33H44V10C44 8.346 42.654 7 41 7H7C5.346 7 4 8.346 4 10V33H1C0.448 33 0 33.448 0 34V36C0 38.756 2.244 41 5 41H43C45.756 41 48 38.756 48 36V34C48 33.448 47.552 33 47 33ZM6 10C6 9.448 6.448 9 7 9H41C41.552 9 42 9.448 42 10V33H32C31.734 33 31.48 33.106 31.296 33.292L29.588 35H18.416L16.708 33.292C16.52 33.106 16.266 33 16 33H6V10ZM46 36C46 37.654 44.654 39 43 39H5C3.346 39 2 37.654 2 36V35H15.586L17.292 36.708C17.48 36.894 17.734 37 18 37H30C30.266 37 30.52 36.894 30.706 36.708L32.414 35H46V36Z" fill="white"/>
</mask>
<g mask="url(#mask0_6_17983)">
<rect width="48" height="48" fill="#4B286D"/>
</g>
</svg>
