<svg width="55" height="26" viewBox="0 0 55 26" fill="none" xmlns="http://www.w3.org/2000/svg">
<mask id="mask0" style="mask-type:alpha" maskUnits="userSpaceOnUse" x="0" y="0" width="55" height="26">
<path fill-rule="evenodd" clip-rule="evenodd" d="M0 0H55V26H0V0Z" fill="white"/>
</mask>
<g mask="url(#mask0)">
<path fill-rule="evenodd" clip-rule="evenodd" d="M54.8251 0.456666L30.9297 5.19521V6.85457L31.0057 6.83544C46.7924 3.01267 54.8251 0.714512 54.8903 0.698708C54.9788 0.675419 55.0113 0.606383 54.998 0.547328C54.9854 0.485777 54.9212 0.436704 54.8251 0.456666" fill="#26347D"/>
<path fill-rule="evenodd" clip-rule="evenodd" d="M35.395 0.00248839C34.2336 0.0690292 32.0828 1.78246 30.9023 2.80053C26.2008 6.85287 22.7058 10.5775 20.1635 14.4784C14.8651 17.3048 8.10974 20.2126 1.40115 22.4825L1.24001 22.5374L-0.0507812 26L0.686454 25.7155C4.9529 24.0969 12.0739 21.0535 18.5304 17.6716C18.1672 18.6372 17.9844 19.5247 17.9844 20.3365C17.9844 20.9387 18.0845 21.5002 18.2883 22.0117C18.694 23.0306 19.4939 23.8017 20.6035 24.2425C22.2558 24.8979 24.5109 24.9112 27.0825 24.136C33.6533 22.1506 41.4465 16.0596 43.143 14.8494L43.2073 14.8037C43.2733 14.7546 43.2791 14.6822 43.2499 14.634C43.2132 14.5774 43.1355 14.5641 43.0712 14.6007H43.0704H43.0712L42.9878 14.6531C41.1651 15.7394 32.3175 20.9728 26.5674 22.5099C23.6376 23.2934 21.4042 22.8659 20.5618 21.6906C20.2704 21.2906 20.1293 20.784 20.1293 20.1926C20.1293 19.0382 20.6745 17.5668 21.7265 15.9324C22.6925 15.3834 23.5959 14.8469 24.4099 14.3387C30.0214 11.1963 36.4862 5.0887 36.7609 1.36075C36.7626 1.33497 36.7626 1.30586 36.7626 1.27841C36.7626 0.957349 36.6231 0.624645 36.3785 0.380108C36.1155 0.112281 35.7682 -0.0208009 35.395 0.00248839ZM34.7696 1.78079C35.1378 1.54374 35.2439 1.69013 35.1362 1.95879C34.9608 2.38715 34.1509 4.96311 28.1353 9.88214C26.5657 11.1639 25.4494 11.8834 23.1893 13.215C26.8888 8.04811 32.2941 3.38193 34.7696 1.78079V1.78079Z" fill="#76BA43"/>
</g>
</svg>
