<svg width="50" height="50" viewBox="0 0 50 50" fill="none" xmlns="http://www.w3.org/2000/svg">
<ellipse cx="24.9527" cy="25" rx="24.9527" ry="25" fill="#2CA01C"/>
<path fill-rule="evenodd" clip-rule="evenodd" d="M31.4072 15.0266H32.7401C37.8925 15.0266 42.0703 19.3609 42.0703 24.7075C42.0703 30.054 37.8925 34.3883 32.7401 34.3883H26.0703V8.38831C27.9843 8.38831 29.5358 9.99809 29.5358 11.9841V30.7926H32.7401C35.9731 30.7926 38.6048 28.0626 38.6048 24.7075C38.6048 21.3523 35.9731 18.6223 32.7401 18.6223H31.4072V15.0266ZM17.4015 33.75C12.248 33.75 8.07031 29.4158 8.07031 24.0692C8.07031 18.7231 12.248 14.3883 17.4015 14.3883H24.0703V40.3883C22.1561 40.3883 20.6045 38.7785 20.6045 36.7926V17.984H17.4015C14.167 17.984 11.5362 20.7141 11.5362 24.0692C11.5362 27.4248 14.167 30.1543 17.4015 30.1543H18.7345V33.75H17.4015Z" fill="white"/>
</svg>
