<svg width="35" height="35" viewBox="0 0 35 35" fill="none" xmlns="http://www.w3.org/2000/svg">
<path fill-rule="evenodd" clip-rule="evenodd" d="M3.08862 24.2318L3.05078 23.9104L6.10303 17.4197L6.21655 17.4692H6.24177L6.25438 17.5063V17.6794L3.20213 24.2195L3.08862 24.2318ZM12.4976 17.4939L12.6238 17.531L15.6256 10.9044L15.6003 10.7437L15.512 10.7807L12.4598 17.4074L12.4976 17.4939ZM28.6796 17.4568L23.6472 28.2993L18.64 17.4692L15.512 24.2565L18.9427 31.6868C19.9012 33.7638 21.6544 35.0001 23.6472 35.0001C25.6274 35.0001 27.3931 33.7638 28.3391 31.6868L31.8201 24.2195L28.6796 17.4568Z" fill="#174EA6"/>
<path fill-rule="evenodd" clip-rule="evenodd" d="M28.3655 3.30095C27.407 1.23631 25.6664 0 23.6862 0C21.7187 0 19.9655 1.23631 19.007 3.30095L9.35831 24.3059L6.23038 17.4691L3.08984 24.2317L5.1457 28.6948C5.99074 30.5369 7.56732 31.6372 9.35831 31.6372C11.1493 31.6372 12.7259 30.5369 13.5709 28.6948L23.6862 6.70081L31.8214 24.2688L34.9998 17.4444C34.9998 17.432 28.3655 3.30095 28.3655 3.30095Z" fill="#4285F4"/>
<path fill-rule="evenodd" clip-rule="evenodd" d="M13.5712 6.31767C12.7261 4.47556 11.1495 3.37524 9.35856 3.37524C7.56757 3.37524 5.99099 4.47556 5.14595 6.31767L0 17.4321L3.09009 24.2318L9.35856 10.7066L12.4865 17.5063L15.6018 10.7313L13.5712 6.31767Z" fill="#174EA6"/>
</svg>
