<svg width="61" height="61" viewBox="0 0 61 61" fill="none" xmlns="http://www.w3.org/2000/svg">
<ellipse cx="30.4422" cy="30.5" rx="30.4422" ry="30.5" fill="#2CA01C"/>
<path fill-rule="evenodd" clip-rule="evenodd" d="M38.6613 19.1702H40.3274C46.7679 19.1702 51.9902 24.5047 51.9902 31.0851C51.9902 37.6655 46.7679 43 40.3274 43H31.9902V11C34.3827 11 36.3221 12.9813 36.3221 15.4255V38.5745H40.3274C44.3687 38.5745 47.6583 35.2145 47.6583 31.0851C47.6583 26.9557 44.3687 23.5957 40.3274 23.5957H38.6613V19.1702ZM20.6541 41.8298C14.2123 41.8298 8.99018 36.4953 8.99018 29.9149C8.99018 23.3351 14.2123 18 20.6541 18H28.9902V50C26.5974 50 24.6579 48.0187 24.6579 45.5745V22.4255H20.6541C16.6111 22.4255 13.3225 25.7855 13.3225 29.9149C13.3225 34.0449 16.6111 37.4042 20.6541 37.4042H22.3204V41.8298H20.6541Z" fill="white"/>
</svg>
