<svg width="130" height="23" viewBox="0 0 130 23" fill="none" xmlns="http://www.w3.org/2000/svg">
<path fill-rule="evenodd" clip-rule="evenodd" d="M71 6.52763V4H63V17H71V14.3635H66.2389V11.4823H70.1996V8.95842H66.2389V6.52763H71Z" fill="#26347D"/>
<path fill-rule="evenodd" clip-rule="evenodd" d="M85 14.4356H80.1693V4H77V17H85V14.4356Z" fill="#26347D"/>
<path fill-rule="evenodd" clip-rule="evenodd" d="M116.458 8.47126C113.732 7.89457 112.779 7.8299 112.779 6.81125C112.779 5.86729 114.129 5.57317 114.908 5.57317C116.165 5.57317 117.648 5.84804 119.161 6.57642L120.26 4.12182C118.709 3.32877 116.722 3 114.809 3C111.048 3 108.526 4.4298 108.42 7.21856C108.312 9.76093 110.517 10.7118 112.544 11.1068C114.498 11.4848 116.48 11.809 116.52 12.8977C116.557 13.9017 115.594 14.3314 113.777 14.3314C112.095 14.3314 110.532 13.8232 108.933 13.1972L108 15.8628C109.837 16.595 111.702 17 113.625 17C116.295 17 118.243 16.6089 119.68 15.3461C120.674 14.4784 121 13.4305 121 12.4327C121 10.3245 119.599 9.13573 116.458 8.47126Z" fill="#26347D"/>
<path fill-rule="evenodd" clip-rule="evenodd" d="M59 6.56592V4H46V6.56592H50.3919V17H54.603V6.56592H59Z" fill="#26347D"/>
<path fill-rule="evenodd" clip-rule="evenodd" d="M99.8302 3V11.7372C99.8302 12.4225 99.8302 12.6115 99.7883 12.8768C99.6593 13.7114 98.8243 14.1935 97.4905 14.2102C96.5044 14.1951 95.7829 13.9139 95.4459 13.4152C95.2758 13.1579 95.1936 12.6989 95.1936 11.9643V3H91V12.4781C91 13.7909 91.1824 14.3833 91.7955 15.1338C92.8071 16.3575 94.7811 17 97.4996 17C97.5292 17 97.5563 17 97.5875 17C97.6031 17 97.627 17 97.6467 17C101.286 17 103.164 15.6285 103.71 14.3452C103.98 13.7241 104 13.4279 104 12.174V3H99.8302Z" fill="#26347D"/>
<mask id="mask0" mask-type="alpha" maskUnits="userSpaceOnUse" x="0" y="0" width="48" height="23">
<path fill-rule="evenodd" clip-rule="evenodd" d="M0 0H48V23H0V0Z" fill="white"/>
</mask>
<g mask="url(#mask0)">
<path fill-rule="evenodd" clip-rule="evenodd" d="M47.8469 0.403898L26.9927 4.59568V6.06358L27.059 6.04666C40.8365 2.66498 47.8469 0.631993 47.9037 0.618013C47.981 0.597411 48.0094 0.53634 47.9977 0.484099C47.9868 0.429651 47.9307 0.38624 47.8469 0.403898Z" fill="#26347D"/>
<path fill-rule="evenodd" clip-rule="evenodd" d="M30.8905 0.00218719C29.877 0.0610502 27.9999 1.57677 26.9696 2.47738C22.8665 6.06214 19.8164 9.357 17.5976 12.8078C12.9735 15.3081 7.07797 17.8804 1.22319 19.8883L1.08256 19.9369L-0.0439453 23L0.59946 22.7483C4.32291 21.3165 10.5376 18.6242 16.1724 15.6325C15.8554 16.4868 15.6958 17.2719 15.6958 17.99C15.6958 18.5227 15.7833 19.0194 15.961 19.4719C16.3152 20.3732 17.0132 21.0553 17.9816 21.4453C19.4236 22.0251 21.3917 22.0368 23.636 21.3511C29.3706 19.5948 36.1719 14.2066 37.6525 13.136L37.7086 13.0955C37.7662 13.0521 37.7713 12.9881 37.7458 12.9454C37.7137 12.8954 37.6459 12.8836 37.5898 12.916H37.5891H37.5898L37.517 12.9624C35.9263 13.9233 28.2047 18.5529 23.1864 19.9126C20.6296 20.6057 18.6804 20.2275 17.9452 19.1879C17.6909 18.8339 17.5677 18.3859 17.5677 17.8627C17.5677 16.8414 18.0436 15.5398 18.9617 14.094C19.8047 13.6084 20.5931 13.1338 21.3036 12.6842C26.2009 9.90442 31.8429 4.50153 32.0826 1.20373C32.0841 1.18092 32.0841 1.15517 32.0841 1.13089C32.0841 0.846872 31.9624 0.552557 31.7489 0.336235C31.5194 0.0993112 31.2162 -0.0184149 30.8905 0.00218719ZM30.3448 1.5753C30.6661 1.3656 30.7586 1.4951 30.6646 1.73276C30.5116 2.11169 29.8048 4.39043 24.5548 8.74188C23.185 9.87573 22.2108 10.5122 20.2383 11.6902C23.467 7.11947 28.1843 2.99169 30.3448 1.5753Z" fill="#76BA43"/>
</g>
<path fill-rule="evenodd" clip-rule="evenodd" d="M28.896 6.02108L6.85001 10.7246L6 13L28.9649 7.4564L29 7.44767V6L28.896 6.02108Z" fill="#26347D"/>
<path fill-rule="evenodd" clip-rule="evenodd" d="M124.772 4.78614V3.71272H125.594C126.021 3.71272 126.47 3.7948 126.47 4.22344C126.47 4.75422 126.01 4.78614 125.495 4.78614H124.772ZM124.772 5.2321H125.468L126.521 6.72959H127.194L126.063 5.20748C126.647 5.14181 127.097 4.87551 127.097 4.25262C127.097 3.56954 126.628 3.26858 125.692 3.26858H124.173V6.72959H124.772V5.2321ZM125.507 8C127.387 8 129 6.72959 129 4.99316C129 3.26858 127.387 2 125.507 2C123.609 2 122 3.26858 122 4.99316C122 6.72959 123.609 8 125.507 8ZM122.691 4.99316C122.691 3.56954 123.926 2.49977 125.507 2.49977C127.069 2.49977 128.305 3.56954 128.305 4.99316C128.305 6.44049 127.069 7.50023 125.507 7.50023C123.926 7.50023 122.691 6.44049 122.691 4.99316Z" fill="#26347D"/>
</svg>
