<svg xmlns="http://www.w3.org/2000/svg" fill="none" viewBox="0 0 47 52" width="47" height="52"><g clip-path="url(#a)"><path fill="#FFCD00" d="M38.3 50.42C27.24 55.7 7.13 41.26 1.87 30.04-3.42 18.83 3.14 7.88 14.24 2.72 17.84 1.06 21.73.14 25.69 0c7.34 0 14.17 3.5 17.66 10.83 5.13 11.26 6.02 34.47-5.05 39.6Z"/><path fill="#000" d="M13.03 11.65h7.1c2.45 0 6.45.38 8.63 4.77l10.7 22.28a2.8 2.8 0 0 1-3.87 0c-.12-.12-.27-.27-.27-.39l-9.16-13c-1.29-1.79-3.89-2.33-5.67-1.05l-.39.39-2.56 2.44a2.83 2.83 0 0 1-4-.11l-.27-.27 2.44-3.23a6.85 6.85 0 0 0 .27-7.72l-2.95-4.11Z"/><path fill="#000" d="M17.15 34.97c-.37.62-.5 1.35-.39 2.06.12 1.44 1.94 2.72 1.94 2.72l6.72-11.34a2.06 2.06 0 0 0 0-1.78c-1.44-2.33-3.5-1.55-3.5-1.55l-4.77 9.9Z"/></g><defs><clipPath id="a"><path fill="#fff" d="M0 0h47v51.55H0z"/></clipPath></defs></svg>