<svg width="42" height="42" viewBox="0 0 42 42" fill="none" xmlns="http://www.w3.org/2000/svg">
<path fill-rule="evenodd" clip-rule="evenodd" d="M21.9117 5.978V11.0828H29.9618L27.4102 5.978H21.9117ZM34.9737 17.4457C37.5778 17.4457 39.788 15.47 40.11 12.9062H32.3015V16.6687C33.1362 17.1762 34.0585 17.4457 34.9737 17.4457ZM6.594 5.978L2.57425 11.0828H9.9995L12.5528 5.978H6.594ZM26.2395 19.2133C27.9247 19.2133 29.5033 18.3908 30.4797 17.0118V12.9062H21.9117V16.8823C22.8795 18.3435 24.493 19.2133 26.2395 19.2133ZM29.4472 5.978L31.9987 11.0828H39.3207L35.4007 5.978H29.4472ZM11.522 12.9062V17.0153C12.5002 18.3942 14.0787 19.215 15.7587 19.215C17.507 19.215 19.1205 18.3453 20.0882 16.884V12.9062H11.522ZM23.079 22.1655H32.7758C33.2798 22.1655 33.6875 22.575 33.6875 23.0772V36.0202H34.636V19.25C33.6158 19.1993 32.6305 18.921 31.6978 18.4205C30.3608 20.0865 28.3798 21.0367 26.2395 21.0367C24.2393 21.0367 22.3458 20.1827 21.0035 18.683C19.6735 20.1827 17.7783 21.0367 15.7605 21.0367C13.6203 21.0367 11.6375 20.0865 10.2988 18.4205C9.3695 18.921 8.38425 19.1993 7.364 19.25V36.0202H22.1673V23.0772C22.1673 22.575 22.575 22.1655 23.079 22.1655ZM14.5897 5.978L12.0382 11.0828H20.0882V5.978H14.5897ZM9.6985 16.6688V12.9062H1.89C2.212 15.4683 4.424 17.444 7.02625 17.444C7.94325 17.444 8.86375 17.1763 9.6985 16.6688ZM31.864 36.0202H23.989V23.989H31.864V36.0202ZM41.8127 11.333C41.9405 11.501 42.0052 11.7127 41.993 11.9315L42 11.9945V12.2657C42 15.561 39.6813 18.4065 36.4577 19.0995V36.932C36.4577 37.4342 36.05 37.8438 35.5477 37.8438H6.454C5.95 37.8438 5.54225 37.4342 5.54225 36.932V19.0995C2.31875 18.4065 0 15.561 0 12.2657V11.9945C0 11.9403 0.0105 11.8965 0.01925 11.8632C-0.021 11.6077 0.04025 11.354 0.19425 11.1597L5.4355 4.5045C5.60525 4.28575 5.873 4.15625 6.15125 4.15625H35.8488C36.1305 4.15625 36.4018 4.28925 36.5715 4.5115L41.8127 11.333ZM19.397 29.0929H10.136V23.9881H19.397V29.0929ZM9.22425 22.1664H20.307C20.8092 22.1664 21.2188 22.5741 21.2188 23.0764V30.0046C21.2188 30.5069 20.8092 30.9164 20.307 30.9164H9.22425C8.722 30.9164 8.3125 30.5069 8.3125 30.0046V23.0764C8.3125 22.5741 8.722 22.1664 9.22425 22.1664Z" fill="#4B286D"/>
<mask id="mask0_6_17981" style="mask-type:alpha" maskUnits="userSpaceOnUse" x="0" y="4" width="42" height="34">
<path fill-rule="evenodd" clip-rule="evenodd" d="M21.9117 5.978V11.0828H29.9618L27.4102 5.978H21.9117ZM34.9737 17.4457C37.5778 17.4457 39.788 15.47 40.11 12.9062H32.3015V16.6687C33.1362 17.1762 34.0585 17.4457 34.9737 17.4457ZM6.594 5.978L2.57425 11.0828H9.9995L12.5528 5.978H6.594ZM26.2395 19.2133C27.9247 19.2133 29.5033 18.3908 30.4797 17.0118V12.9062H21.9117V16.8823C22.8795 18.3435 24.493 19.2133 26.2395 19.2133ZM29.4472 5.978L31.9987 11.0828H39.3207L35.4007 5.978H29.4472ZM11.522 12.9062V17.0153C12.5002 18.3942 14.0787 19.215 15.7587 19.215C17.507 19.215 19.1205 18.3453 20.0882 16.884V12.9062H11.522ZM23.079 22.1655H32.7758C33.2798 22.1655 33.6875 22.575 33.6875 23.0772V36.0202H34.636V19.25C33.6158 19.1993 32.6305 18.921 31.6978 18.4205C30.3608 20.0865 28.3798 21.0367 26.2395 21.0367C24.2393 21.0367 22.3458 20.1827 21.0035 18.683C19.6735 20.1827 17.7783 21.0367 15.7605 21.0367C13.6203 21.0367 11.6375 20.0865 10.2988 18.4205C9.3695 18.921 8.38425 19.1993 7.364 19.25V36.0202H22.1673V23.0772C22.1673 22.575 22.575 22.1655 23.079 22.1655ZM14.5897 5.978L12.0382 11.0828H20.0882V5.978H14.5897ZM9.6985 16.6688V12.9062H1.89C2.212 15.4683 4.424 17.444 7.02625 17.444C7.94325 17.444 8.86375 17.1763 9.6985 16.6688ZM31.864 36.0202H23.989V23.989H31.864V36.0202ZM41.8127 11.333C41.9405 11.501 42.0052 11.7127 41.993 11.9315L42 11.9945V12.2657C42 15.561 39.6813 18.4065 36.4577 19.0995V36.932C36.4577 37.4342 36.05 37.8438 35.5477 37.8438H6.454C5.95 37.8438 5.54225 37.4342 5.54225 36.932V19.0995C2.31875 18.4065 0 15.561 0 12.2657V11.9945C0 11.9403 0.0105 11.8965 0.01925 11.8632C-0.021 11.6077 0.04025 11.354 0.19425 11.1597L5.4355 4.5045C5.60525 4.28575 5.873 4.15625 6.15125 4.15625H35.8488C36.1305 4.15625 36.4018 4.28925 36.5715 4.5115L41.8127 11.333ZM19.397 29.0929H10.136V23.9881H19.397V29.0929ZM9.22425 22.1664H20.307C20.8092 22.1664 21.2188 22.5741 21.2188 23.0764V30.0046C21.2188 30.5069 20.8092 30.9164 20.307 30.9164H9.22425C8.722 30.9164 8.3125 30.5069 8.3125 30.0046V23.0764C8.3125 22.5741 8.722 22.1664 9.22425 22.1664Z" fill="white"/>
</mask>
<g mask="url(#mask0_6_17981)">
<rect width="42" height="42" fill="#4B286D"/>
</g>
</svg>
