<svg width="299" height="27" viewBox="0 0 299 27" fill="none" xmlns="http://www.w3.org/2000/svg">
<path fill-rule="evenodd" clip-rule="evenodd" d="M116.764 4.42965H121.112V14.4695C121.112 15.838 121.091 16.1645 120.809 16.8487C120.236 18.2477 118.293 19.7496 114.47 19.7496H114.329C111.512 19.7496 109.439 19.0545 108.392 17.7065C107.749 16.89 107.558 16.236 107.558 14.8056V4.4188H111.935V14.2244C111.935 15.041 112.015 15.5311 112.196 15.8174C112.548 16.3683 113.304 16.6752 114.329 16.685C115.718 16.685 116.593 16.1547 116.725 15.2351C116.775 14.9488 116.775 14.7449 116.775 13.9891V4.4188L116.764 4.42965ZM67.9332 7.39128H63.5452V19.484H59.3292V7.38152H54.9519V4.4188H67.9022V7.38152L67.9332 7.39128ZM136.356 10.149C139.636 10.9146 141.085 12.2529 141.085 14.643C141.085 15.7665 140.753 16.9507 139.716 17.931C138.208 19.3614 136.174 19.8006 133.377 19.8006C131.364 19.8006 129.423 19.3408 127.511 18.5134L128.477 15.4899C130.147 16.2057 131.798 16.7674 133.537 16.7674C135.45 16.7674 136.456 16.2762 136.406 15.1332C136.375 13.9077 134.293 13.5499 132.261 13.1215C130.147 12.6715 127.833 11.5892 127.954 8.72949C128.054 5.56398 130.701 3.96008 134.625 3.96008C136.637 3.96008 138.71 4.33747 140.32 5.22672L139.163 8.00399C137.584 7.1874 136.044 6.8805 134.736 6.8805C133.91 6.8805 132.502 7.1874 132.502 8.26968C132.502 9.41377 133.509 9.49511 136.345 10.1393L136.356 10.149ZM102.365 16.5017V19.4634H91.6992V4.4188H95.9258V16.5017H102.365ZM84.2031 7.34031H78.0854V10.1588H83.1764V13.0803H78.0854V16.4204H84.2031V19.484H73.9196V4.39928H84.1828V7.3197L84.2031 7.34031Z" fill="#3F2758"/>
<mask id="mask0" mask-type="alpha" maskUnits="userSpaceOnUse" x="0" y="0" width="57" height="27">
<path fill-rule="evenodd" clip-rule="evenodd" d="M0.5 0H56.9319V26.7309H0.5V0Z" fill="white"/>
</mask>
<g mask="url(#mask0)">
<path fill-rule="evenodd" clip-rule="evenodd" d="M56.754 0.473145L32.2202 5.34343V7.05037H32.3206C48.5095 3.10446 56.754 0.745019 56.8245 0.724762C56.9248 0.704504 56.9451 0.624541 56.9248 0.574431C56.9248 0.504064 56.8544 0.473145 56.754 0.473145Z" fill="#3F2758"/>
<path fill-rule="evenodd" clip-rule="evenodd" d="M36.8155 0.00191677C35.608 0.0616225 33.4171 1.80908 32.2096 2.86353C27.3838 7.03014 23.7933 10.8662 21.1796 14.8718C15.7495 17.7846 8.81184 20.7763 1.92435 23.1059L1.76314 23.1667L0.436035 26.7309L1.19087 26.4494C5.57362 24.783 12.8839 21.6506 19.5205 18.1759C19.119 19.1803 18.9471 20.0833 18.9471 20.9171C18.9471 21.5493 19.0486 22.1218 19.2493 22.6443C19.671 23.688 20.4963 24.4813 21.6323 24.9536C23.3416 25.6157 25.6542 25.6263 28.2678 24.8331C35.025 22.785 43.0293 16.5287 44.7589 15.294L44.839 15.2343C44.8998 15.1832 44.9095 15.1128 44.8796 15.0627C44.839 15.003 44.7589 14.9934 44.6981 15.0328L44.5977 15.084C42.7378 16.1875 33.6584 21.5695 27.7553 23.1464C24.7392 23.9492 22.4469 23.5174 21.5821 22.3127C21.28 21.9107 21.139 21.3787 21.139 20.7667C21.139 19.5811 21.6921 18.0554 22.7779 16.389C23.7836 15.8261 24.689 15.2845 25.5335 14.7514C31.285 11.5187 37.9013 5.24323 38.2035 1.39754C38.2035 1.39754 38.2035 1.35702 38.2035 1.32717C38.2035 0.995591 38.0519 0.654415 37.801 0.403864C37.5394 0.122394 37.1774 -0.0183405 36.7952 0.00191677M36.1717 1.82934C36.5539 1.59798 36.6746 1.74831 36.5539 2.02978C36.3724 2.46158 35.5482 5.11315 29.3643 10.1636C27.7553 11.4889 26.5991 12.2213 24.2769 13.5967C28.0778 8.27543 33.6275 3.48617 36.161 1.84853" fill="#6CB644"/>
</g>
<path fill-rule="evenodd" clip-rule="evenodd" d="M32.0613 5.95967L6.44859 11.2727L5.4502 13.8605L32.1408 7.58229H32.1811V5.94019L32.0613 5.95967Z" fill="#3F2758"/>
<path fill-rule="evenodd" clip-rule="evenodd" d="M163.783 12.6453C163.451 12.3779 163.067 12.154 162.632 11.9737C162.196 11.7934 161.731 11.641 161.237 11.5167L157.844 10.7145C157.558 10.6523 157.288 10.5715 157.034 10.472C156.781 10.3725 156.556 10.2419 156.361 10.0802C156.166 9.91857 156.014 9.7227 155.903 9.49262C155.793 9.26255 155.737 8.99205 155.737 8.68114C155.737 8.18368 155.835 7.76706 156.03 7.43127C156.225 7.09549 156.482 6.825 156.8 6.61979C157.119 6.41459 157.489 6.26535 157.912 6.17208C158.335 6.07881 158.773 6.03217 159.228 6.03217C159.723 6.03217 160.194 6.09746 160.642 6.22804C161.091 6.35863 161.488 6.55139 161.832 6.80634C162.177 7.06129 162.456 7.37842 162.671 7.75773C162.885 8.13705 163.006 8.58165 163.032 9.09155H164.358C164.358 8.40754 164.218 7.80748 163.939 7.29136C163.659 6.77525 163.285 6.34308 162.817 5.99486C162.349 5.64664 161.803 5.38547 161.179 5.21136C160.555 5.03725 159.898 4.9502 159.209 4.9502C158.234 4.9502 157.434 5.08389 156.81 5.35127C156.186 5.61866 155.695 5.94511 155.338 6.33065C154.98 6.71618 154.736 7.12658 154.606 7.56186C154.476 7.99713 154.411 8.37645 154.411 8.6998C154.411 9.22213 154.499 9.66362 154.674 10.0243C154.85 10.3849 155.081 10.6896 155.367 10.9384C155.653 11.1871 155.988 11.3861 156.371 11.5353C156.755 11.6846 157.148 11.8089 157.551 11.9084L160.652 12.6359C160.977 12.7106 161.309 12.8069 161.647 12.9251C161.985 13.0432 162.294 13.1956 162.573 13.3821C162.853 13.5687 163.08 13.7988 163.256 14.0724C163.431 14.346 163.519 14.6693 163.519 15.0424C163.519 15.5274 163.396 15.9409 163.149 16.2829C162.902 16.6249 162.593 16.9048 162.222 17.1224C161.852 17.34 161.452 17.4986 161.023 17.5981C160.594 17.6976 160.197 17.7473 159.833 17.7473C159.196 17.7473 158.598 17.6883 158.039 17.5701C157.48 17.452 156.995 17.2561 156.586 16.9825C156.176 16.7089 155.854 16.342 155.62 15.8819C155.386 15.4217 155.276 14.8496 155.289 14.1656H153.963C153.924 14.9864 154.037 15.6891 154.304 16.2736C154.57 16.8581 154.951 17.3369 155.445 17.71C155.939 18.0831 156.537 18.3598 157.239 18.5402C157.941 18.7205 158.702 18.8107 159.521 18.8107C160.34 18.8107 161.042 18.7392 161.627 18.5961C162.212 18.4531 162.703 18.2666 163.1 18.0365C163.496 17.8064 163.809 17.5484 164.036 17.2623C164.264 16.9763 164.439 16.6933 164.563 16.4135C164.686 16.1337 164.764 15.8694 164.797 15.6207C164.829 15.372 164.845 15.173 164.845 15.0238C164.845 14.4765 164.751 14.0102 164.563 13.6246C164.374 13.2391 164.114 12.9127 163.783 12.6453Z" fill="#3F2758"/>
<path fill-rule="evenodd" clip-rule="evenodd" d="M173.176 17.1024L168.71 4.9502H166.826V18.8107H168.107V6.8332H168.145L172.573 18.8107H173.779L178.377 6.8332H178.415V18.8107H179.696V4.9502H177.812L173.176 17.1024Z" fill="#3F2758"/>
<path fill-rule="evenodd" clip-rule="evenodd" d="M190.946 16.2191C190.751 16.5879 190.485 16.8824 190.146 17.1024C189.808 17.3224 189.418 17.4744 188.975 17.5586C188.533 17.6427 188.065 17.6847 187.57 17.6847H183.003V12.1522H187.57C188.754 12.1522 189.662 12.3754 190.293 12.8219C190.924 13.2684 191.239 13.9381 191.239 14.8311C191.239 15.3876 191.142 15.8503 190.946 16.2191ZM183.003 6.07612H187.57C189.665 6.07612 190.712 6.9432 190.712 8.67738C190.712 9.00092 190.647 9.30505 190.517 9.58976C190.387 9.87448 190.192 10.1236 189.932 10.3371C189.671 10.5507 189.346 10.7189 188.956 10.8419C188.565 10.9648 188.104 11.0263 187.57 11.0263H183.003V6.07612ZM189.619 11.4922V11.4534C189.984 11.3757 190.312 11.2398 190.605 11.0457C190.898 10.8516 191.151 10.6154 191.366 10.3371C191.581 10.0589 191.747 9.7483 191.864 9.40534C191.981 9.06239 192.039 8.70973 192.039 8.34737C192.039 7.70029 191.916 7.15998 191.669 6.72643C191.421 6.29289 191.093 5.94346 190.683 5.67816C190.273 5.41286 189.798 5.2252 189.258 5.1152C188.718 5.0052 188.156 4.9502 187.57 4.9502H181.676V18.8107H187.57C188.325 18.8107 188.972 18.7427 189.512 18.6068C190.052 18.4709 190.507 18.2962 190.878 18.0827C191.249 17.8692 191.545 17.62 191.766 17.3353C191.987 17.0506 192.157 16.7627 192.274 16.4715C192.391 16.1803 192.469 15.8956 192.508 15.6173C192.547 15.3391 192.566 15.0899 192.566 14.8699C192.566 13.964 192.3 13.2037 191.766 12.589C191.233 11.9743 190.517 11.6087 189.619 11.4922Z" fill="#3F2758"/>
<path fill-rule="evenodd" clip-rule="evenodd" d="M206.837 17.1024L202.371 4.9502H200.487V18.8107H201.768V6.8332H201.806L206.234 18.8107H207.44L212.038 6.8332H212.076V18.8107H213.357V4.9502H211.473L206.837 17.1024Z" fill="#3F2758"/>
<path fill-rule="evenodd" clip-rule="evenodd" d="M222.011 15.5244C222.011 16.0306 221.919 16.4836 221.74 16.8832C221.56 17.2829 221.318 17.6226 221.013 17.9023C220.709 18.1821 220.352 18.3952 219.941 18.5418C219.531 18.6883 219.103 18.7616 218.655 18.7616C218.382 18.7616 218.115 18.7149 217.854 18.6217C217.593 18.5284 217.363 18.3919 217.164 18.212C216.965 18.0322 216.807 17.8191 216.689 17.5726C216.57 17.3262 216.512 17.0431 216.512 16.7234C216.512 16.2171 216.651 15.8275 216.931 15.5544C217.211 15.2813 217.568 15.0715 218.003 14.925C218.438 14.7784 218.918 14.6685 219.447 14.5952C219.976 14.522 220.488 14.4387 220.985 14.3455C221.147 14.3188 221.333 14.2722 221.545 14.2056C221.756 14.139 221.899 14.0324 221.973 13.8859H222.011V15.5244ZM223.185 17.7025V12.2273C223.185 11.5346 223.079 10.9718 222.868 10.5388C222.657 10.1059 222.383 9.76952 222.048 9.52973C221.712 9.28994 221.333 9.12675 220.911 9.04016C220.488 8.95357 220.065 8.91028 219.643 8.91028C219.084 8.91028 218.573 8.97689 218.115 9.1101C217.655 9.24332 217.254 9.4498 216.912 9.72955C216.57 10.0093 216.3 10.369 216.101 10.8086C215.903 11.2482 215.785 11.7678 215.747 12.3672H216.922C216.946 11.528 217.194 10.9185 217.667 10.5388C218.139 10.1592 218.748 9.96934 219.494 9.96934C219.842 9.96934 220.168 9.99931 220.473 10.0593C220.777 10.1192 221.044 10.2291 221.274 10.389C221.504 10.5488 221.684 10.7653 221.815 11.0384C221.945 11.3115 222.011 11.6612 222.011 12.0875C222.011 12.3672 221.976 12.5937 221.908 12.7669C221.84 12.94 221.743 13.0766 221.619 13.1765C221.495 13.2764 221.339 13.3464 221.153 13.3863C220.967 13.4263 220.749 13.4596 220.501 13.4862C219.867 13.5662 219.242 13.6494 218.627 13.736C218.012 13.8226 217.459 13.9725 216.968 14.1856C216.477 14.3988 216.083 14.7085 215.785 15.1148C215.486 15.5211 215.337 16.0839 215.337 16.8033C215.337 17.3228 215.421 17.7724 215.589 18.1521C215.757 18.5318 215.986 18.8448 216.279 19.0913C216.57 19.3377 216.912 19.5176 217.304 19.6308C217.695 19.744 218.115 19.8006 218.562 19.8006C219.034 19.8006 219.44 19.754 219.783 19.6608C220.125 19.5675 220.428 19.4343 220.696 19.2611C220.964 19.0879 221.205 18.8715 221.423 18.6117C221.64 18.3519 221.854 18.0555 222.066 17.7225H222.104C222.104 17.9889 222.119 18.232 222.15 18.4518C222.18 18.6716 222.247 18.8615 222.346 19.0213C222.446 19.1812 222.585 19.3044 222.766 19.391C222.946 19.4776 223.185 19.5209 223.483 19.5209C223.644 19.5209 223.778 19.5142 223.884 19.5009C223.989 19.4876 224.111 19.4676 224.247 19.441V18.3819C224.136 18.4352 224.011 18.4618 223.875 18.4618C223.415 18.4618 223.185 18.2087 223.185 17.7025Z" fill="#3F2758"/>
<path fill-rule="evenodd" clip-rule="evenodd" d="M226.402 11.3368H226.363V9.04733H225.238V18.8106H226.461V13.6073C226.461 13.0901 226.551 12.614 226.732 12.1788C226.913 11.7436 227.169 11.3683 227.499 11.053C227.829 10.7376 228.221 10.4948 228.674 10.3245C229.127 10.1542 229.631 10.0817 230.188 10.1069V8.91488C229.282 8.87704 228.502 9.07256 227.849 9.50143C227.195 9.93031 226.713 10.5421 226.402 11.3368Z" fill="#3F2758"/>
<path fill-rule="evenodd" clip-rule="evenodd" d="M239.79 8.79385H238.119L232.431 13.647V4.9502H231.178V18.8107H232.431V15.0058L234.459 13.3558L238.517 18.8107H240.088L235.414 12.5016L239.79 8.79385Z" fill="#3F2758"/>
<path fill-rule="evenodd" clip-rule="evenodd" d="M241.309 13.6461C241.359 13.1798 241.466 12.7236 241.627 12.2773C241.788 11.831 242.004 11.438 242.275 11.0983C242.546 10.7586 242.877 10.4856 243.263 10.2791C243.65 10.0726 244.095 9.96934 244.599 9.96934C245.089 9.96934 245.527 10.0726 245.915 10.2791C246.303 10.4856 246.631 10.7586 246.903 11.0983C247.174 11.438 247.382 11.8277 247.532 12.2673C247.679 12.7069 247.761 13.1665 247.773 13.6461H241.309ZM248.799 12.577C248.644 11.8777 248.39 11.2582 248.034 10.7187C247.679 10.1792 247.218 9.74288 246.65 9.40984C246.082 9.0768 245.398 8.91028 244.599 8.91028C243.811 8.91028 243.13 9.06681 242.557 9.37986C241.982 9.69292 241.514 10.1059 241.154 10.6188C240.793 11.1316 240.525 11.7145 240.349 12.3672C240.175 13.02 240.088 13.6861 240.088 14.3655C240.088 15.0981 240.175 15.7942 240.349 16.4536C240.525 17.113 240.793 17.6925 241.154 18.1921C241.514 18.6916 241.982 19.0846 242.557 19.371C243.13 19.6574 243.811 19.8006 244.599 19.8006C245.863 19.8006 246.841 19.4809 247.532 18.8415C248.221 18.2021 248.695 17.2962 248.954 16.1239H247.735C247.54 16.9232 247.192 17.5626 246.689 18.0422C246.187 18.5218 245.489 18.7616 244.599 18.7616C244.019 18.7616 243.521 18.635 243.108 18.3819C242.695 18.1288 242.353 17.8091 242.082 17.4227C241.811 17.0364 241.614 16.6001 241.491 16.1139C241.369 15.6277 241.309 15.1581 241.309 14.7052H248.993C249.018 13.9858 248.954 13.2764 248.799 12.577Z" fill="#3F2758"/>
<path fill-rule="evenodd" clip-rule="evenodd" d="M252.924 5.94019H251.715V8.89125H249.988V9.90032H251.715V16.6211C251.702 17.4588 251.856 18.0332 252.176 18.3442C252.495 18.6551 253.058 18.8106 253.864 18.8106C254.043 18.8106 254.222 18.8043 254.401 18.7916C254.58 18.7789 254.759 18.7725 254.938 18.7725V17.7635C254.593 17.8015 254.248 17.8206 253.902 17.8206C253.467 17.7952 253.196 17.6714 253.087 17.4493C252.978 17.2272 252.924 16.9194 252.924 16.5259V9.90032H254.938V8.89125H252.924V5.94019Z" fill="#3F2758"/>
<path fill-rule="evenodd" clip-rule="evenodd" d="M263.481 15.6867C263.363 16.1929 263.175 16.6447 262.92 17.042C262.664 17.4393 262.336 17.7629 261.937 18.0128C261.537 18.2627 261.058 18.3877 260.496 18.3877C259.871 18.3877 259.345 18.2627 258.914 18.0128C258.484 17.7629 258.133 17.4393 257.865 17.042C257.597 16.6447 257.404 16.1929 257.285 15.6867C257.167 15.1805 257.107 14.6711 257.107 14.1584C257.107 13.5945 257.161 13.0562 257.267 12.5436C257.372 12.031 257.557 11.5824 257.819 11.1979C258.08 10.8134 258.43 10.5059 258.866 10.2752C259.303 10.0445 259.847 9.92915 260.496 9.92915C261.058 9.92915 261.537 10.0541 261.937 10.304C262.336 10.5539 262.664 10.8775 262.92 11.2748C263.175 11.6721 263.363 12.1239 263.481 12.6301C263.6 13.1363 263.659 13.6458 263.659 14.1584C263.659 14.6711 263.6 15.1805 263.481 15.6867ZM263.772 10.477C263.41 9.99643 262.956 9.61516 262.414 9.33321C261.872 9.05125 261.231 8.91028 260.496 8.91028C259.709 8.91028 259.008 9.09931 258.389 9.47738C257.772 9.85546 257.325 10.3905 257.052 11.0826H257.014V9.19864H255.928V22.7707H257.107V17.2342H257.145C257.269 17.5931 257.448 17.9071 257.679 18.1762C257.909 18.4454 258.175 18.6696 258.473 18.8491C258.774 19.0285 259.098 19.163 259.447 19.2528C259.796 19.3425 260.145 19.3873 260.496 19.3873C261.231 19.3873 261.872 19.2496 262.414 18.974C262.956 18.6985 263.41 18.3204 263.772 17.8398C264.133 17.3592 264.402 16.8017 264.577 16.1673C264.751 15.5329 264.839 14.8633 264.839 14.1584C264.839 13.4535 264.751 12.7839 264.577 12.1495C264.402 11.5151 264.133 10.9576 263.772 10.477Z" fill="#3F2758"/>
<path fill-rule="evenodd" clip-rule="evenodd" d="M266.819 18.8107H267.809V4.9502H266.819V18.8107Z" fill="#3F2758"/>
<path fill-rule="evenodd" clip-rule="evenodd" d="M276.462 15.5244C276.462 16.0306 276.371 16.4836 276.192 16.8832C276.012 17.2829 275.77 17.6226 275.465 17.9023C275.16 18.1821 274.803 18.3952 274.393 18.5418C273.983 18.6883 273.555 18.7616 273.107 18.7616C272.834 18.7616 272.567 18.7149 272.306 18.6217C272.045 18.5284 271.814 18.3919 271.616 18.212C271.417 18.0322 271.259 17.8191 271.141 17.5726C271.021 17.3262 270.963 17.0431 270.963 16.7234C270.963 16.2171 271.103 15.8275 271.383 15.5544C271.662 15.2813 272.02 15.0715 272.455 14.925C272.89 14.7784 273.37 14.6685 273.899 14.5952C274.426 14.522 274.94 14.4387 275.437 14.3455C275.599 14.3188 275.784 14.2722 275.996 14.2056C276.208 14.139 276.351 14.0324 276.425 13.8859H276.462V15.5244ZM277.637 17.7025V12.2273C277.637 11.5346 277.53 10.9718 277.32 10.5388C277.109 10.1059 276.835 9.76952 276.5 9.52973C276.164 9.28994 275.784 9.12675 275.363 9.04016C274.94 8.95357 274.517 8.91028 274.095 8.91028C273.536 8.91028 273.025 8.97689 272.567 9.1101C272.107 9.24332 271.706 9.4498 271.364 9.72955C271.021 10.0093 270.752 10.369 270.553 10.8086C270.354 11.2482 270.236 11.7678 270.199 12.3672H271.374C271.398 11.528 271.646 10.9185 272.119 10.5388C272.59 10.1592 273.2 9.96934 273.946 9.96934C274.294 9.96934 274.619 9.99931 274.925 10.0593C275.229 10.1192 275.496 10.2291 275.726 10.389C275.955 10.5488 276.136 10.7653 276.267 11.0384C276.397 11.3115 276.462 11.6612 276.462 12.0875C276.462 12.3672 276.428 12.5937 276.36 12.7669C276.292 12.94 276.194 13.0766 276.071 13.1765C275.947 13.2764 275.791 13.3464 275.605 13.3863C275.419 13.4263 275.2 13.4596 274.953 13.4862C274.319 13.5662 273.694 13.6494 273.079 13.736C272.464 13.8226 271.911 13.9725 271.42 14.1856C270.929 14.3988 270.535 14.7085 270.236 15.1148C269.938 15.5211 269.789 16.0839 269.789 16.8033C269.789 17.3228 269.873 17.7724 270.041 18.1521C270.208 18.5318 270.438 18.8448 270.73 19.0913C271.021 19.3377 271.364 19.5176 271.756 19.6308C272.147 19.744 272.567 19.8006 273.014 19.8006C273.486 19.8006 273.892 19.754 274.235 19.6608C274.576 19.5675 274.88 19.4343 275.148 19.2611C275.415 19.0879 275.657 18.8715 275.875 18.6117C276.092 18.3519 276.306 18.0555 276.518 17.7225H276.556C276.556 17.9889 276.571 18.232 276.602 18.4518C276.632 18.6716 276.699 18.8615 276.798 19.0213C276.897 19.1812 277.036 19.3044 277.217 19.391C277.398 19.4776 277.637 19.5209 277.935 19.5209C278.096 19.5209 278.23 19.5142 278.336 19.5009C278.44 19.4876 278.563 19.4676 278.699 19.441V18.3819C278.588 18.4352 278.463 18.4618 278.327 18.4618C277.867 18.4618 277.637 18.2087 277.637 17.7025Z" fill="#3F2758"/>
<mask id="mask1" mask-type="alpha" maskUnits="userSpaceOnUse" x="279" y="8" width="20" height="12">
<path fill-rule="evenodd" clip-rule="evenodd" d="M279.689 8.91028H298.5V19.8006H279.689V8.91028Z" fill="white"/>
</mask>
<g mask="url(#mask1)">
<path fill-rule="evenodd" clip-rule="evenodd" d="M286.948 17.0031C286.781 17.3628 286.57 17.6725 286.314 17.9323C286.058 18.1921 285.764 18.3952 285.432 18.5418C285.098 18.6883 284.747 18.7616 284.375 18.7616C283.799 18.7616 283.293 18.635 282.858 18.3819C282.423 18.1288 282.061 17.7958 281.773 17.3828C281.485 16.9698 281.267 16.5002 281.121 15.974C280.973 15.4478 280.9 14.9116 280.9 14.3655C280.9 13.8193 280.973 13.2831 281.121 12.7569C281.267 12.2307 281.485 11.7611 281.773 11.3481C282.061 10.9352 282.423 10.6021 282.858 10.349C283.293 10.0959 283.799 9.96934 284.375 9.96934C285.181 9.96934 285.809 10.1891 286.258 10.6288C286.705 11.0684 287.013 11.6745 287.178 12.4471H288.389C288.247 11.2615 287.81 10.3756 287.074 9.7895C286.337 9.20335 285.437 8.91028 284.375 8.91028C283.619 8.91028 282.951 9.05682 282.369 9.34989C281.786 9.64296 281.296 10.0359 280.9 10.5288C280.502 11.0217 280.202 11.5979 279.997 12.2573C279.792 12.9167 279.689 13.6194 279.689 14.3655C279.689 15.1115 279.792 15.8142 279.997 16.4736C280.202 17.133 280.502 17.7092 280.9 18.2021C281.296 18.695 281.786 19.0846 282.369 19.371C282.951 19.6574 283.619 19.8006 284.375 19.8006C285.501 19.8006 286.423 19.451 287.141 18.7516C287.858 18.0522 288.299 17.0764 288.465 15.8242H287.256C287.217 16.2505 287.114 16.6434 286.948 17.0031Z" fill="#3F2758"/>
<path fill-rule="evenodd" clip-rule="evenodd" d="M291.188 12.2773C291.347 11.831 291.563 11.438 291.832 11.0983C292.1 10.7586 292.427 10.4856 292.811 10.2791C293.194 10.0726 293.637 9.96934 294.136 9.96934C294.621 9.96934 295.058 10.0726 295.44 10.2791C295.826 10.4856 296.151 10.7586 296.421 11.0983C296.69 11.438 296.898 11.8277 297.045 12.2673C297.192 12.7069 297.272 13.1665 297.284 13.6461H290.871C290.923 13.1798 291.027 12.7236 291.188 12.2773ZM296.21 18.0422C295.71 18.5218 295.018 18.7616 294.136 18.7616C293.56 18.7616 293.066 18.635 292.657 18.3819C292.247 18.1288 291.907 17.8091 291.638 17.4227C291.37 17.0364 291.174 16.6001 291.054 16.1139C290.931 15.6277 290.871 15.1581 290.871 14.7052H298.495C298.52 13.9858 298.456 13.2764 298.303 12.577C298.148 11.8777 297.896 11.2582 297.544 10.7187C297.192 10.1792 296.733 9.74288 296.17 9.40984C295.608 9.0768 294.928 8.91028 294.136 8.91028C293.354 8.91028 292.68 9.06681 292.11 9.37986C291.54 9.69292 291.076 10.1059 290.718 10.6188C290.359 11.1316 290.094 11.7145 289.921 12.3672C289.747 13.02 289.661 13.6861 289.661 14.3655C289.661 15.0981 289.747 15.7942 289.921 16.4536C290.094 17.113 290.359 17.6925 290.718 18.1921C291.076 18.6916 291.54 19.0846 292.11 19.371C292.68 19.6574 293.354 19.8006 294.136 19.8006C295.39 19.8006 296.36 19.4809 297.045 18.8415C297.729 18.2021 298.199 17.2962 298.456 16.1239H297.247C297.055 16.9232 296.708 17.5626 296.21 18.0422Z" fill="#3F2758"/>
</g>
</svg>
