<svg xmlns="http://www.w3.org/2000/svg" fill="none" viewBox="0 0 29 29" width="29" height="29"><g fill="#3C9A63" clip-path="url(#a)"><path d="M24 .06h-.86v1.15c-.03 7.42-.32 17.57 3.7 25.32.17.35.38.7.58 1.05A4.95 4.95 0 0 0 28.95 24V5.01A4.97 4.97 0 0 0 23.99.06ZM21.88 27.8C16.28 24.82 10 21.68 1.2 21.04l-1.15-.08V24a4.97 4.97 0 0 0 4.96 4.96h18.98l-2.11-1.15M5 .06A4.97 4.97 0 0 0 .06 5.01v12.56c.4-.12.77-.27 1.15-.44 4.6-1.88 11.17-6.19 18.95-15.93.3-.39.58-.78.9-1.15L5.02.06Z"/></g><defs><clipPath id="a"><path fill="#fff" d="M0 0h28.9v28.9H0z" transform="translate(.05 .05)"/></clipPath></defs></svg>