<svg width="32" height="21" viewBox="0 0 32 21" fill="none" xmlns="http://www.w3.org/2000/svg">
<path fill-rule="evenodd" clip-rule="evenodd" d="M0 1.5C0 0.671573 0.671573 0 1.5 0H30.5C31.3284 0 32 0.671573 32 1.5V19.5C32 20.3284 31.3284 21 30.5 21H1.5C0.671573 21 0 20.3284 0 19.5V1.5Z" fill="#F4F6F7"/>
<path fill-rule="evenodd" clip-rule="evenodd" d="M21.3994 6.36594C20.9991 6.19095 20.3695 6 19.5852 6C17.5835 6 16.1744 7.18331 16.1627 8.87755C16.15 10.1306 17.1682 10.8297 17.9359 11.2462C18.7248 11.6732 18.9899 11.9464 18.9867 12.3282C18.9813 12.9121 18.357 13.1797 17.7749 13.1797C16.9643 13.1797 16.5336 13.048 15.8678 12.7225L15.6073 12.5837L15.3242 14.5353C15.7963 14.7781 16.6716 14.9889 17.5799 15C19.7073 15 21.0896 13.8311 21.1058 12.0219C21.1131 11.0281 20.5736 10.2747 19.4051 9.65282C18.6976 9.24864 18.2633 8.98081 18.2683 8.57161C18.2688 8.20915 18.6352 7.82132 19.4282 7.82132C20.0904 7.80948 20.5698 7.97905 20.9434 8.15623L21.1252 8.25602L21.3994 6.36594ZM12.0312 14.8707L13.2979 6.15189H15.3225L14.056 14.8707H12.0312ZM24.9003 9.34237C24.9003 9.34237 24.2615 11.2782 24.0938 11.7793H25.7746C25.6946 11.3434 25.3061 9.26241 25.3061 9.26241L25.1694 8.51044C25.1153 8.68324 25.0399 8.91231 24.9826 9.08644C24.9315 9.24162 24.8947 9.35317 24.9003 9.34237ZM26.5936 6.16103H25.0289C24.5436 6.16103 24.1803 6.31529 23.9677 6.88377L20.9609 14.874H23.0875C23.0875 14.874 23.4344 13.7991 23.5132 13.5632C23.6222 13.5632 24.1364 13.5642 24.6815 13.5653H24.6815L24.6821 13.5653C25.2966 13.5665 25.9501 13.5677 26.1064 13.5677C26.1671 13.872 26.3529 14.874 26.3529 14.874H28.2321L26.5936 6.16103ZM10.3307 6.15943L8.34897 12.1035L8.13671 10.8953C8.13482 10.8881 8.13292 10.881 8.13099 10.8739C8.13336 10.881 8.13571 10.888 8.13805 10.895L7.42854 6.88888C7.30614 6.33637 6.95041 6.17259 6.51071 6.15327H3.24573L3.21875 6.33392C4.01237 6.55952 4.72211 6.88475 5.3442 7.28923L7.145 14.8633L9.28776 14.8619L12.4762 6.15943H10.3307Z" fill="#0071CE"/>
<path fill-rule="evenodd" clip-rule="evenodd" d="M0 1.5C0 0.671573 0.671573 0 1.5 0H30.5C31.3284 0 32 0.671573 32 1.5V19.5C32 20.3284 31.3284 21 30.5 21H1.5C0.671573 21 0 20.3284 0 19.5V1.5Z" fill="#E5E5E5" fill-opacity="0.01"/>
</svg>
